FrauncesItalic-144ptS100Thin.ufo
<glyph name="exclam" format="2">
  <advance width="446"/>
  <unicode hex="0021"/>
  <outline>
    <contour>
      <point x="536" y="1428" type="curve" smooth="yes"/>
      <point x="509" y="1428"/>
      <point x="495" y="1408"/>
      <point x="490" y="1389" type="curve" smooth="yes"/>
      <point x="486" y="1376"/>
      <point x="481" y="1357"/>
      <point x="477" y="1342" type="curve" smooth="yes"/>
      <point x="193" y="387" type="line" smooth="yes"/>
      <point x="183" y="353"/>
      <point x="188" y="341"/>
      <point x="205" y="341" type="curve" smooth="yes"/>
      <point x="222" y="341"/>
      <point x="231" y="354"/>
      <point x="242" y="389" type="curve" smooth="yes"/>
      <point x="548" y="1342" type="line" smooth="yes"/>
      <point x="555" y="1363"/>
      <point x="561" y="1384"/>
      <point x="561" y="1401" type="curve" smooth="yes"/>
      <point x="561" y="1415"/>
      <point x="556" y="1428"/>
    </contour>
    <component base="period" xOffset="16" yOffset="3"/>
  </outline>
</glyph>
<glyph name="numbersign" format="2">
  <advance width="1041"/>
  <unicode hex="0023"/>
  <outline>
    <contour>
      <point x="499" y="686" type="curve" smooth="yes"/>
      <point x="585" y="857"/>
      <point x="750" y="1176"/>
      <point x="826" y="1318" type="curve" smooth="yes"/>
      <point x="851" y="1364"/>
      <point x="851" y="1385"/>
      <point x="836" y="1390" type="curve" smooth="yes"/>
      <point x="819" y="1398"/>
      <point x="798" y="1381"/>
      <point x="777" y="1339" type="curve" smooth="yes"/>
      <point x="705" y="1197"/>
      <point x="546" y="885"/>
      <point x="459" y="715" type="curve" smooth="yes"/>
      <point x="367" y="536"/>
      <point x="188" y="213"/>
      <point x="110" y="62" type="curve" smooth="yes"/>
      <point x="92" y="27"/>
      <point x="92" y="3"/>
      <point x="108" y="-1" type="curve" smooth="yes"/>
      <point x="128" y="-5"/>
      <point x="146" y="11"/>
      <point x="164" y="46" type="curve" smooth="yes"/>
      <point x="234" y="179"/>
      <point x="408" y="509"/>
    </contour>
    <contour>
      <point x="666" y="833" type="curve" smooth="yes"/>
      <point x="780" y="833"/>
      <point x="1003" y="830"/>
      <point x="1081" y="829" type="curve" smooth="yes"/>
      <point x="1105" y="829"/>
      <point x="1123" y="839"/>
      <point x="1126" y="857" type="curve" smooth="yes"/>
      <point x="1131" y="873"/>
      <point x="1118" y="881"/>
      <point x="1095" y="881" type="curve" smooth="yes"/>
      <point x="1016" y="879"/>
      <point x="795" y="881"/>
      <point x="681" y="881" type="curve" smooth="yes"/>
      <point x="560" y="880"/>
      <point x="330" y="886"/>
      <point x="247" y="886" type="curve" smooth="yes"/>
      <point x="227" y="886"/>
      <point x="212" y="877"/>
      <point x="210" y="861" type="curve" smooth="yes"/>
      <point x="204" y="843"/>
      <point x="212" y="834"/>
      <point x="234" y="835" type="curve" smooth="yes"/>
      <point x="315" y="834"/>
      <point x="548" y="831"/>
    </contour>
    <contour>
      <point x="793" y="686" type="curve" smooth="yes"/>
      <point x="881" y="857"/>
      <point x="1046" y="1176"/>
      <point x="1122" y="1318" type="curve" smooth="yes"/>
      <point x="1144" y="1364"/>
      <point x="1146" y="1385"/>
      <point x="1131" y="1390" type="curve" smooth="yes"/>
      <point x="1114" y="1398"/>
      <point x="1093" y="1381"/>
      <point x="1072" y="1339" type="curve" smooth="yes"/>
      <point x="998" y="1197"/>
      <point x="841" y="885"/>
      <point x="754" y="715" type="curve" smooth="yes"/>
      <point x="661" y="536"/>
      <point x="483" y="213"/>
      <point x="404" y="62" type="curve" smooth="yes"/>
      <point x="387" y="27"/>
      <point x="386" y="3"/>
      <point x="404" y="-1" type="curve" smooth="yes"/>
      <point x="422" y="-5"/>
      <point x="442" y="11"/>
      <point x="460" y="46" type="curve" smooth="yes"/>
      <point x="528" y="180"/>
      <point x="701" y="509"/>
    </contour>
    <contour>
      <point x="527" y="488" type="curve" smooth="yes"/>
      <point x="640" y="488"/>
      <point x="863" y="485"/>
      <point x="941" y="484" type="curve" smooth="yes"/>
      <point x="965" y="484"/>
      <point x="983" y="493"/>
      <point x="988" y="512" type="curve" smooth="yes"/>
      <point x="992" y="527"/>
      <point x="978" y="535"/>
      <point x="956" y="535" type="curve" smooth="yes"/>
      <point x="877" y="533"/>
      <point x="655" y="536"/>
      <point x="541" y="536" type="curve" smooth="yes"/>
      <point x="421" y="534"/>
      <point x="191" y="541"/>
      <point x="107" y="540" type="curve" smooth="yes"/>
      <point x="88" y="540"/>
      <point x="73" y="532"/>
      <point x="70" y="516" type="curve" smooth="yes"/>
      <point x="64" y="498"/>
      <point x="73" y="489"/>
      <point x="95" y="490" type="curve" smooth="yes"/>
      <point x="176" y="489"/>
      <point x="409" y="486"/>
    </contour>
  </outline>
</glyph>
<glyph name="dollar" format="2">
  <advance width="878"/>
  <unicode hex="0024"/>
  <outline>
    <contour>
      <point x="361" y="7" type="curve" smooth="yes"/>
      <point x="564" y="7"/>
      <point x="729.0071050455" y="103.0262721449"/>
      <point x="772" y="262" type="curve" smooth="yes"/>
      <point x="813.9875958836" y="419.9533368953"/>
      <point x="775.7844605869" y="521.0656050361"/>
      <point x="550" y="719" type="curve" smooth="yes"/>
      <point x="373.4052926281" y="872.5169899312"/>
      <point x="328.7125809801" y="980.9602194282"/>
      <point x="363" y="1105" type="curve" smooth="yes"/>
      <point x="402.0244020642" y="1243.0863457657"/>
      <point x="536.4494382022" y="1351"/>
      <point x="722" y="1351" type="curve" smooth="yes"/>
      <point x="884" y="1351"/>
      <point x="941.0091598333" y="1291.7120656004"/>
      <point x="954" y="1167" type="curve" smooth="yes"/>
      <point x="959" y="1119" type="line" smooth="yes"/>
      <point x="962" y="1093"/>
      <point x="978" y="1082"/>
      <point x="999" y="1085" type="curve" smooth="yes"/>
      <point x="1021" y="1088"/>
      <point x="1037" y="1127"/>
      <point x="1033" y="1176" type="curve" smooth="yes"/>
      <point x="1023" y="1299"/>
      <point x="926" y="1390"/>
      <point x="732" y="1390" type="curve" smooth="yes"/>
      <point x="510" y="1390"/>
      <point x="357" y="1263"/>
      <point x="315" y="1112" type="curve" smooth="yes"/>
      <point x="271" y="956"/>
      <point x="326" y="840"/>
      <point x="510" y="685" type="curve" smooth="yes"/>
      <point x="717.1638515926" y="511.0225906528"/>
      <point x="762.028083607" y="421.1029732256"/>
      <point x="720" y="267" type="curve" smooth="yes"/>
      <point x="684.230107947" y="134.1404009462"/>
      <point x="557" y="46"/>
      <point x="369" y="46" type="curve" smooth="yes"/>
      <point x="176" y="46"/>
      <point x="121.7207534313" y="139.239260197"/>
      <point x="112" y="252" type="curve" smooth="yes"/>
      <point x="107" y="310" type="line" smooth="yes"/>
      <point x="104" y="344"/>
      <point x="92" y="358"/>
      <point x="69" y="352" type="curve" smooth="yes"/>
      <point x="48" y="347"/>
      <point x="33" y="303"/>
      <point x="35" y="255" type="curve" smooth="yes"/>
      <point x="47" y="110"/>
      <point x="145" y="7"/>
    </contour>
    <contour>
      <point x="558" y="693" type="line"/>
      <point x="745" y="1311"/>
      <point x="794" y="1441"/>
      <point x="804" y="1475" type="curve" smooth="yes"/>
      <point x="812" y="1503"/>
      <point x="803" y="1517"/>
      <point x="788" y="1517" type="curve" smooth="yes"/>
      <point x="770" y="1517"/>
      <point x="753" y="1503"/>
      <point x="744" y="1475" type="curve" smooth="yes"/>
      <point x="734" y="1443"/>
      <point x="700" y="1311"/>
      <point x="512" y="693" type="curve"/>
    </contour>
    <contour>
      <point x="511" y="688" type="line"/>
      <point x="335" y="107"/>
      <point x="293" y="-21"/>
      <point x="282" y="-56" type="curve" smooth="yes"/>
      <point x="270" y="-92"/>
      <point x="279" y="-107"/>
      <point x="297" y="-107" type="curve" smooth="yes"/>
      <point x="315" y="-107"/>
      <point x="331" y="-92"/>
      <point x="341" y="-58" type="curve" smooth="yes"/>
      <point x="353" y="-21"/>
      <point x="381" y="107"/>
      <point x="558" y="688" type="curve"/>
    </contour>
  </outline>
</glyph>
<glyph name="ampersand" format="2">
  <advance width="1111"/>
  <unicode hex="0026"/>
  <outline>
    <contour>
      <point x="198" y="242" type="line" smooth="yes"/>
      <point x="44" y="107"/>
      <point x="-48" y="-3"/>
      <point x="-51" y="-174" type="curve" smooth="yes"/>
      <point x="-54" y="-272"/>
      <point x="-21" y="-311"/>
      <point x="21" y="-311" type="curve" smooth="yes"/>
      <point x="47" y="-311"/>
      <point x="68" y="-288"/>
      <point x="70" y="-260" type="curve" smooth="yes"/>
      <point x="71" y="-215"/>
      <point x="8" y="-185"/>
      <point x="10" y="-118" type="curve" smooth="yes"/>
      <point x="13" y="-20"/>
      <point x="57" y="62"/>
      <point x="223" y="207" type="curve" smooth="yes"/>
      <point x="1026" y="910" type="line" smooth="yes"/>
      <point x="1166" y="1032"/>
      <point x="1216" y="1143"/>
      <point x="1216" y="1297" type="curve" smooth="yes"/>
      <point x="1216" y="1385"/>
      <point x="1181" y="1430"/>
      <point x="1141" y="1430" type="curve" smooth="yes"/>
      <point x="1115" y="1430"/>
      <point x="1096" y="1410"/>
      <point x="1095" y="1375" type="curve" smooth="yes"/>
      <point x="1094" y="1322"/>
      <point x="1151" y="1289"/>
      <point x="1148" y="1206" type="curve" smooth="yes"/>
      <point x="1145" y="1112"/>
      <point x="1098" y="1027"/>
      <point x="1013" y="953" type="curve" smooth="yes"/>
    </contour>
    <contour>
      <point x="951" y="412" type="curve" smooth="yes"/>
      <point x="948" y="218"/>
      <point x="774" y="27"/>
      <point x="573" y="27" type="curve" smooth="yes"/>
      <point x="344.438" y="27"/>
      <point x="208.869" y="171.913"/>
      <point x="255" y="476" type="curve" smooth="yes"/>
      <point x="296.665" y="743.203"/>
      <point x="449.019" y="963"/>
      <point x="619" y="963" type="curve" smooth="yes"/>
      <point x="731.23" y="963"/>
      <point x="784" y="886.996"/>
      <point x="782" y="770" type="curve" smooth="yes"/>
      <point x="781" y="744"/>
      <point x="771" y="709"/>
      <point x="749" y="684" type="curve"/>
      <point x="766" y="692"/>
      <point x="776" y="696"/>
      <point x="789" y="696" type="curve" smooth="yes"/>
      <point x="822" y="695"/>
      <point x="841" y="724"/>
      <point x="842" y="768" type="curve" smooth="yes"/>
      <point x="845" y="903.994"/>
      <point x="775.489" y="1006"/>
      <point x="637" y="1006" type="curve" smooth="yes"/>
      <point x="420.639" y="1006"/>
      <point x="245.499" y="767.55"/>
      <point x="199" y="484" type="curve" smooth="yes"/>
      <point x="146.864" y="167.392"/>
      <point x="311.479" y="-19"/>
      <point x="555" y="-19" type="curve" smooth="yes"/>
      <point x="831" y="-19"/>
      <point x="1017" y="236"/>
      <point x="1022" y="498" type="curve" smooth="yes"/>
      <point x="1023" y="572"/>
      <point x="1006" y="601"/>
      <point x="974" y="601" type="curve" smooth="yes"/>
      <point x="949" y="601"/>
      <point x="932" y="575"/>
      <point x="931" y="536" type="curve" smooth="yes"/>
      <point x="930" y="502"/>
      <point x="952" y="472"/>
    </contour>
  </outline>
</glyph>
<glyph name="quotesingle" format="2">
  <advance width="190"/>
  <unicode hex="0027"/>
  <outline>
    <contour>
      <point x="242" y="1000" type="curve" smooth="yes"/>
      <point x="254" y="1000"/>
      <point x="266" y="1009"/>
      <point x="272" y="1031" type="curve" smooth="yes"/>
      <point x="405" y="1490" type="line" smooth="yes"/>
      <point x="415" y="1525"/>
      <point x="407" y="1538"/>
      <point x="387" y="1538" type="curve" smooth="yes"/>
      <point x="367" y="1538"/>
      <point x="351" y="1521"/>
      <point x="343" y="1490" type="curve" smooth="yes"/>
      <point x="225" y="1031" type="line" smooth="yes"/>
      <point x="219" y="1009"/>
      <point x="229" y="1000"/>
    </contour>
  </outline>
</glyph>
<glyph name="parenleft" format="2">
  <advance width="630"/>
  <unicode hex="0028"/>
  <outline>
    <contour>
      <point x="244" y="640" type="curve" smooth="yes"/>
      <point x="129.268" y="214.993"/>
      <point x="225.715" y="-69.221"/>
      <point x="410" y="-229" type="curve" smooth="yes"/>
      <point x="421" y="-238"/>
      <point x="434" y="-234"/>
      <point x="443" y="-222" type="curve" smooth="yes"/>
      <point x="453" y="-211"/>
      <point x="449" y="-197"/>
      <point x="438" y="-186" type="curve" smooth="yes"/>
      <point x="264" y="-12"/>
      <point x="191" y="232"/>
      <point x="299" y="627" type="curve" smooth="yes"/>
      <point x="398" y="989"/>
      <point x="618.623" y="1250.933"/>
      <point x="855" y="1405" type="curve" smooth="yes"/>
      <point x="875" y="1418"/>
      <point x="888" y="1432"/>
      <point x="884" y="1447" type="curve" smooth="yes"/>
      <point x="879" y="1459"/>
      <point x="866" y="1464"/>
      <point x="849" y="1455" type="curve" smooth="yes"/>
      <point x="598.075" y="1316.168"/>
      <point x="340.936" y="1001.763"/>
    </contour>
  </outline>
</glyph>
<glyph name="asterisk" format="2">
  <advance width="1060"/>
  <unicode hex="002A"/>
  <outline>
    <contour>
      <point x="668" y="1010" type="line"/>
      <point x="704.961" y="1158.843"/>
      <point x="754.016" y="1369.077"/>
      <point x="775" y="1469" type="curve" smooth="yes"/>
      <point x="782.966" y="1508.829"/>
      <point x="776.765" y="1529"/>
      <point x="760" y="1529" type="curve" smooth="yes"/>
      <point x="737.958" y="1529"/>
      <point x="721.987" y="1508.937"/>
      <point x="714" y="1469" type="curve" smooth="yes"/>
      <point x="692.978" y="1368.893"/>
      <point x="663.033" y="1159.156"/>
      <point x="632" y="1010" type="curve"/>
    </contour>
    <contour>
      <point x="649" y="1028" type="curve"/>
      <point x="650" y="990" type="line"/>
      <point x="791.145" y="1036.169"/>
      <point x="978" y="1097"/>
      <point x="1076" y="1129" type="curve" smooth="yes"/>
      <point x="1112" y="1140"/>
      <point x="1132" y="1158"/>
      <point x="1129" y="1176" type="curve" smooth="yes"/>
      <point x="1128" y="1199"/>
      <point x="1108" y="1202"/>
      <point x="1072" y="1190" type="curve" smooth="yes"/>
      <point x="976" y="1160"/>
      <point x="789.371" y="1072.604"/>
    </contour>
    <contour>
      <point x="660" y="1029" type="line"/>
      <point x="540.728" y="1076.438"/>
      <point x="384.433" y="1151.818"/>
      <point x="303" y="1186" type="curve" smooth="yes"/>
      <point x="274.944" y="1198.158"/>
      <point x="250.586" y="1193.173"/>
      <point x="242" y="1176" type="curve" smooth="yes"/>
      <point x="229.371" y="1156.57"/>
      <point x="240.142" y="1139.948"/>
      <point x="270" y="1129" type="curve" smooth="yes"/>
      <point x="352.162" y="1096.937"/>
      <point x="520.177" y="1039.122"/>
      <point x="640" y="992" type="curve"/>
    </contour>
    <contour>
      <point x="638" y="1021" type="line"/>
      <point x="531.081" y="907.717"/>
      <point x="384.991" y="747.991"/>
      <point x="312" y="670" type="curve" smooth="yes"/>
      <point x="282.69" y="639.713"/>
      <point x="277.446" y="612.623"/>
      <point x="290" y="602" type="curve" smooth="yes"/>
      <point x="304.743" y="588.24"/>
      <point x="330.652" y="597.675"/>
      <point x="359" y="627" type="curve" smooth="yes"/>
      <point x="430.005" y="706.005"/>
      <point x="554.352" y="883.442"/>
      <point x="660" y="998" type="curve"/>
    </contour>
    <contour>
      <point x="632" y="998" type="line"/>
      <point x="683.735" y="874.108"/>
      <point x="750.86" y="704.335"/>
      <point x="786" y="620" type="curve" smooth="yes"/>
      <point x="799.814" y="590.399"/>
      <point x="816.033" y="580.652"/>
      <point x="834" y="592" type="curve" smooth="yes"/>
      <point x="848.304" y="601.787"/>
      <point x="852.89" y="627.646"/>
      <point x="841" y="656" type="curve" smooth="yes"/>
      <point x="805.869" y="739.311"/>
      <point x="719.043" y="898.952"/>
      <point x="666" y="1020" type="curve"/>
    </contour>
  </outline>
</glyph>
<glyph name="plus" format="2">
  <advance width="944"/>
  <unicode hex="002B"/>
  <outline>
    <contour>
      <point x="447" y="284.0" type="curve" smooth="yes"/>
      <point x="464" y="284.0"/>
      <point x="478" y="299"/>
      <point x="484.0" y="318" type="curve" smooth="yes"/>
      <point x="676" y="1043" type="line" smooth="yes"/>
      <point x="682.0" y="1062"/>
      <point x="676" y="1077"/>
      <point x="660" y="1077" type="curve" smooth="yes"/>
      <point x="645" y="1077"/>
      <point x="633" y="1062"/>
      <point x="627" y="1043" type="curve" smooth="yes"/>
      <point x="435" y="320.0" type="line" smooth="yes"/>
      <point x="430.0" y="300"/>
      <point x="434" y="284.0"/>
    </contour>
    <component base="minus" xOffset="-22"/>
  </outline>
</glyph>
<glyph name="comma" format="2">
  <advance width="300"/>
  <unicode hex="002C"/>
  <outline>
    <contour>
      <point x="83" y="0" type="curve" smooth="yes"/>
      <point x="100" y="0" type="line" smooth="yes"/>
      <point x="115" y="0"/>
      <point x="120" y="-15"/>
      <point x="112" y="-46" type="curve" smooth="yes"/>
      <point x="87" y="-144"/>
      <point x="5" y="-239"/>
      <point x="-62" y="-268" type="curve" smooth="yes"/>
      <point x="-76" y="-274"/>
      <point x="-85" y="-282"/>
      <point x="-85" y="-293" type="curve" smooth="yes"/>
      <point x="-85" y="-302"/>
      <point x="-80" y="-308"/>
      <point x="-68" y="-308" type="curve" smooth="yes"/>
      <point x="-20" y="-308"/>
      <point x="115" y="-184"/>
      <point x="155" y="-39" type="curve" smooth="yes"/>
      <point x="187" y="75"/>
      <point x="165" y="115"/>
      <point x="113" y="115" type="curve" smooth="yes"/>
      <point x="81" y="115"/>
      <point x="50" y="92"/>
      <point x="41" y="60" type="curve" smooth="yes"/>
      <point x="32" y="26"/>
      <point x="54" y="0"/>
    </contour>
  </outline>
</glyph>
<glyph name="hyphen" format="2">
  <advance width="528"/>
  <unicode hex="002D"/>
  <outline>
    <contour>
      <point x="473" y="495" type="curve" smooth="yes"/>
      <point x="87" y="495" type="line" smooth="yes"/>
      <point x="63" y="495"/>
      <point x="53" y="490"/>
      <point x="43" y="474" type="curve" smooth="yes"/>
      <point x="37" y="464" type="line" smooth="yes"/>
      <point x="28" y="449"/>
      <point x="34" y="435"/>
      <point x="56" y="435" type="curve" smooth="yes"/>
      <point x="443" y="435" type="line" smooth="yes"/>
      <point x="465.0" y="435.0"/>
      <point x="477" y="442"/>
      <point x="485" y="455" type="curve" smooth="yes"/>
      <point x="493" y="469" type="line" smooth="yes"/>
      <point x="501" y="483"/>
      <point x="495.0" y="495.0"/>
    </contour>
  </outline>
</glyph>
<glyph name="slash" format="2">
  <advance width="775"/>
  <unicode hex="002F"/>
  <outline>
    <contour>
      <point x="414" y="581" type="curve" smooth="yes"/>
      <point x="521" y="783"/>
      <point x="764" y="1239"/>
      <point x="862" y="1436" type="curve" smooth="yes"/>
      <point x="878" y="1469"/>
      <point x="875" y="1489"/>
      <point x="864" y="1494" type="curve" smooth="yes"/>
      <point x="848" y="1501"/>
      <point x="830" y="1493"/>
      <point x="811" y="1457" type="curve" smooth="yes"/>
      <point x="707" y="1257"/>
      <point x="467" y="782"/>
      <point x="371" y="597" type="curve" smooth="yes"/>
      <point x="281.2895176929" y="418.4761402088"/>
      <point x="43" y="-27"/>
      <point x="-62" y="-227" type="curve" smooth="yes"/>
      <point x="-77" y="-250"/>
      <point x="-72" y="-269"/>
      <point x="-58" y="-274" type="curve" smooth="yes"/>
      <point x="-39" y="-279"/>
      <point x="-22" y="-267"/>
      <point x="-9" y="-243" type="curve" smooth="yes"/>
      <point x="79" y="-75"/>
      <point x="317.1664836148" y="390.9193937624"/>
    </contour>
  </outline>
</glyph>
<glyph name="zero" format="2">
  <advance width="1170"/>
  <unicode hex="0030"/>
  <outline>
    <contour>
      <point x="862" y="1418" type="curve" smooth="yes"/>
      <point x="580" y="1418"/>
      <point x="308" y="1131"/>
      <point x="205" y="676" type="curve" smooth="yes"/>
      <point x="104" y="232"/>
      <point x="208" y="-20"/>
      <point x="488" y="-20" type="curve" smooth="yes"/>
      <point x="760" y="-20"/>
      <point x="1042" y="256"/>
      <point x="1154" y="730" type="curve" smooth="yes"/>
      <point x="1255" y="1161"/>
      <point x="1159" y="1418"/>
    </contour>
    <contour>
      <point x="1086" y="707" type="curve" smooth="yes"/>
      <point x="990" y="283"/>
      <point x="732" y="28"/>
      <point x="497" y="28" type="curve" smooth="yes"/>
      <point x="266" y="28"/>
      <point x="167" y="251"/>
      <point x="271" y="694" type="curve" smooth="yes"/>
      <point x="370" y="1111"/>
      <point x="613" y="1369"/>
      <point x="852" y="1369" type="curve" smooth="yes"/>
      <point x="1102" y="1369"/>
      <point x="1193" y="1177"/>
    </contour>
  </outline>
</glyph>
<glyph name="one" format="2">
  <advance width="695"/>
  <unicode hex="0031"/>
  <outline>
    <contour>
      <point x="384" y="1314" type="line" smooth="yes"/>
      <point x="364.0" y="1314.0"/>
      <point x="354" y="1323"/>
      <point x="356" y="1340" type="curve" smooth="yes"/>
      <point x="358" y="1354"/>
      <point x="377.0" y="1365.0"/>
      <point x="399" y="1365" type="curve" smooth="yes"/>
      <point x="558" y="1365" type="line" smooth="yes"/>
      <point x="584" y="1365"/>
      <point x="606" y="1378"/>
      <point x="622" y="1400" type="curve" smooth="yes"/>
      <point x="639" y="1424"/>
      <point x="652" y="1440"/>
      <point x="669" y="1440" type="curve" smooth="yes"/>
      <point x="688" y="1440"/>
      <point x="698" y="1428"/>
      <point x="689" y="1397" type="curve" smooth="yes"/>
      <point x="313" y="139" type="line" smooth="yes"/>
      <point x="298" y="89"/>
      <point x="309" y="56"/>
      <point x="367" y="53" type="curve" smooth="yes"/>
      <point x="489" y="46" type="line" smooth="yes"/>
      <point x="510" y="45"/>
      <point x="518" y="35"/>
      <point x="516" y="20" type="curve" smooth="yes"/>
      <point x="514" y="7"/>
      <point x="500.0" y="0.0"/>
      <point x="482" y="0" type="curve" smooth="yes"/>
      <point x="-14" y="0" type="line" smooth="yes"/>
      <point x="-33" y="0"/>
      <point x="-40" y="7"/>
      <point x="-36" y="21" type="curve" smooth="yes"/>
      <point x="-32" y="35"/>
      <point x="-16" y="45"/>
      <point x="5" y="46" type="curve" smooth="yes"/>
      <point x="151" y="52" type="line" smooth="yes"/>
      <point x="200" y="54"/>
      <point x="236" y="88"/>
      <point x="252" y="140" type="curve" smooth="yes"/>
      <point x="589" y="1249" type="line" smooth="yes"/>
      <point x="604" y="1297"/>
      <point x="590" y="1314"/>
      <point x="544" y="1314" type="curve" smooth="yes"/>
    </contour>
  </outline>
</glyph>
<glyph name="four" format="2">
  <advance width="909"/>
  <unicode hex="0034"/>
  <outline>
    <contour>
      <point x="755" y="894" type="curve" smooth="yes"/>
      <point x="518" y="113" type="line" smooth="yes"/>
      <point x="507" y="78"/>
      <point x="479" y="58"/>
      <point x="440" y="55" type="curve" smooth="yes"/>
      <point x="326" y="45" type="line" smooth="yes"/>
      <point x="307" y="43"/>
      <point x="295" y="34"/>
      <point x="290" y="21" type="curve" smooth="yes"/>
      <point x="287" y="7"/>
      <point x="295" y="0"/>
      <point x="313" y="0" type="curve" smooth="yes"/>
      <point x="713" y="0" type="line" smooth="yes"/>
      <point x="732" y="0"/>
      <point x="743" y="7"/>
      <point x="747" y="21" type="curve" smooth="yes"/>
      <point x="752" y="35"/>
      <point x="741" y="43"/>
      <point x="721" y="45" type="curve" smooth="yes"/>
      <point x="616" y="55" type="line" smooth="yes"/>
      <point x="582" y="58"/>
      <point x="567" y="77"/>
      <point x="578" y="113" type="curve" smooth="yes"/>
      <point x="831" y="955" type="line" smooth="yes"/>
      <point x="836" y="970"/>
      <point x="832" y="979"/>
      <point x="824" y="979" type="curve" smooth="yes"/>
      <point x="816" y="979"/>
      <point x="808" y="973"/>
      <point x="795" y="960" type="curve" smooth="yes"/>
      <point x="786" y="951" type="line" smooth="yes"/>
      <point x="773" y="938"/>
      <point x="764" y="923"/>
    </contour>
    <contour>
      <point x="741" y="1121" type="curve" smooth="yes"/>
      <point x="46" y="449" type="line" smooth="yes"/>
      <point x="24" y="426"/>
      <point x="14" y="413"/>
      <point x="10" y="397" type="curve" smooth="yes"/>
      <point x="5" y="379"/>
      <point x="14" y="368"/>
      <point x="40" y="368" type="curve" smooth="yes"/>
      <point x="828" y="367" type="line" smooth="yes"/>
      <point x="849" y="367"/>
      <point x="861" y="375"/>
      <point x="864" y="389" type="curve" smooth="yes"/>
      <point x="867" y="405"/>
      <point x="861" y="410"/>
      <point x="844" y="410" type="curve" smooth="yes"/>
      <point x="55" y="410" type="line"/>
      <point x="53" y="394" type="line"/>
      <point x="772" y="1092" type="line" smooth="yes"/>
      <point x="856" y="1174"/>
      <point x="907" y="1236"/>
      <point x="931" y="1325" type="curve" smooth="yes"/>
      <point x="945" y="1378"/>
      <point x="926" y="1410"/>
      <point x="897" y="1410" type="curve" smooth="yes"/>
      <point x="863" y="1410"/>
      <point x="832" y="1380"/>
      <point x="823" y="1343" type="curve" smooth="yes"/>
      <point x="814" y="1305"/>
      <point x="831" y="1271"/>
      <point x="819" y="1229" type="curve" smooth="yes"/>
      <point x="809" y="1194"/>
      <point x="785" y="1164"/>
    </contour>
  </outline>
</glyph>
<glyph name="five" format="2">
  <advance width="905"/>
  <unicode hex="0035"/>
  <outline>
    <contour>
      <point x="61" y="269" type="curve" smooth="yes"/>
      <point x="17.3845390836" y="115.3977245988"/>
      <point x="121" y="-19"/>
      <point x="341" y="-19" type="curve" smooth="yes"/>
      <point x="584.375" y="-19"/>
      <point x="794.8441302823" y="158.4397115551"/>
      <point x="869" y="425" type="curve" smooth="yes"/>
      <point x="936.3034373767" y="667.0914687729"/>
      <point x="849.7899159664" y="842"/>
      <point x="615" y="842" type="curve" smooth="yes"/>
      <point x="481.1444141689" y="842"/>
      <point x="342.9921829985" y="769.1186376944"/>
      <point x="240" y="653" type="curve"/>
      <point x="249" y="653" type="line"/>
      <point x="462" y="1377" type="line"/>
      <point x="459" y="1376" type="line"/>
      <point x="533.495833709" y="1275.6789439386"/>
      <point x="646.8801169591" y="1229"/>
      <point x="814" y="1229" type="curve" smooth="yes"/>
      <point x="942.1290322581" y="1229"/>
      <point x="1085.2987617921" y="1285.9421999915"/>
      <point x="1145" y="1376" type="curve" smooth="yes"/>
      <point x="1167" y="1409"/>
      <point x="1162" y="1419"/>
      <point x="1155" y="1425" type="curve" smooth="yes"/>
      <point x="1144" y="1433"/>
      <point x="1130" y="1427"/>
      <point x="1105" y="1398" type="curve" smooth="yes"/>
      <point x="1034.7399966346" y="1312.4660828595"/>
      <point x="932.0677966102" y="1273"/>
      <point x="820" y="1273" type="curve" smooth="yes"/>
      <point x="648.125" y="1273"/>
      <point x="581.0567574363" y="1319.8998750895"/>
      <point x="495" y="1402" type="curve" smooth="yes"/>
      <point x="480" y="1417"/>
      <point x="472" y="1423"/>
      <point x="456" y="1423" type="curve" smooth="yes"/>
      <point x="435" y="1423"/>
      <point x="425" y="1406"/>
      <point x="417" y="1380" type="curve" smooth="yes"/>
      <point x="188" y="611" type="line" smooth="yes"/>
      <point x="181" y="588"/>
      <point x="187" y="574"/>
      <point x="204" y="574" type="curve" smooth="yes"/>
      <point x="223" y="574"/>
      <point x="238" y="587"/>
      <point x="257" y="609" type="curve" smooth="yes"/>
      <point x="374.270322198" y="737.3907837858"/>
      <point x="491.9386503067" y="794"/>
      <point x="602" y="794" type="curve" smooth="yes"/>
      <point x="789.3163265306" y="794"/>
      <point x="878.0900643712" y="668.325617342"/>
      <point x="813" y="433" type="curve" smooth="yes"/>
      <point x="739.9548949193" y="164.8344087449"/>
      <point x="550.0023696682" y="30"/>
      <point x="360" y="30" type="curve" smooth="yes"/>
      <point x="179.2532751092" y="30"/>
      <point x="107.2471441962" y="108.2402902671"/>
      <point x="141" y="223" type="curve" smooth="yes"/>
      <point x="161" y="291" type="line" smooth="yes"/>
      <point x="173" y="333"/>
      <point x="166" y="354"/>
      <point x="132" y="354" type="curve" smooth="yes"/>
      <point x="103" y="354"/>
      <point x="74" y="326"/>
    </contour>
  </outline>
</glyph>
<glyph name="eight" format="2">
  <advance width="946"/>
  <unicode hex="0038"/>
  <outline>
    <contour>
      <point x="354" y="-19" type="curve" smooth="yes"/>
      <point x="586.0127118644" y="-19"/>
      <point x="775.0145967624" y="100.0530249736"/>
      <point x="824" y="278" type="curve" smooth="yes"/>
      <point x="872" y="454"/>
      <point x="810" y="569"/>
      <point x="562" y="686" type="curve" smooth="yes"/>
      <point x="366" y="779"/>
      <point x="322" y="912"/>
      <point x="367" y="1081" type="curve" smooth="yes"/>
      <point x="408.9615565773" y="1236.8572101443"/>
      <point x="569" y="1370"/>
      <point x="788" y="1370" type="curve" smooth="yes"/>
      <point x="975" y="1370"/>
      <point x="1083" y="1246"/>
      <point x="1027" y="1039" type="curve" smooth="yes"/>
      <point x="983" y="877"/>
      <point x="817.4176638522" y="748.3667728736"/>
      <point x="609" y="647" type="curve"/>
      <point x="630" y="612" type="line"/>
      <point x="850.8243600589" y="703.3755972657"/>
      <point x="1035" y="848"/>
      <point x="1092" y="1051" type="curve" smooth="yes"/>
      <point x="1144" y="1235"/>
      <point x="1048" y="1419"/>
      <point x="805" y="1419" type="curve" smooth="yes"/>
      <point x="542" y="1419"/>
      <point x="358.9528086065" y="1270.8311044865"/>
      <point x="302" y="1067" type="curve" smooth="yes"/>
      <point x="251" y="885"/>
      <point x="309" y="747"/>
      <point x="528" y="639" type="curve" smooth="yes"/>
      <point x="756" y="526"/>
      <point x="808" y="436"/>
      <point x="766" y="283" type="curve" smooth="yes"/>
      <point x="723.0158015288" y="128.0569589991"/>
      <point x="568.0257731959" y="28"/>
      <point x="380" y="28" type="curve" smooth="yes"/>
      <point x="184.3697478992" y="28"/>
      <point x="94" y="147"/>
      <point x="140" y="310" type="curve" smooth="yes"/>
      <point x="178" y="444"/>
      <point x="297" y="565"/>
      <point x="524" y="648" type="curve"/>
      <point x="507" y="688" type="line"/>
      <point x="288" y="622"/>
      <point x="127" y="479"/>
      <point x="84" y="321" type="curve" smooth="yes"/>
      <point x="29" y="119"/>
      <point x="124.2985074627" y="-19"/>
    </contour>
  </outline>
</glyph>
<glyph name="nine" format="2">
  <advance width="1053"/>
  <unicode hex="0039"/>
  <outline>
    <contour>
      <point x="352" y="-18" type="curve" smooth="yes"/>
      <point x="623" y="-18"/>
      <point x="889" y="251"/>
      <point x="1028" y="711" type="curve" smooth="yes"/>
      <point x="1170" y="1182"/>
      <point x="1057" y="1418"/>
      <point x="801" y="1418" type="curve" smooth="yes"/>
      <point x="557.9652509653" y="1418"/>
      <point x="336.3916271208" y="1261.1669676915"/>
      <point x="263" y="995" type="curve" smooth="yes"/>
      <point x="185.3988815877" y="711.1432773865"/>
      <point x="293.2448979592" y="543"/>
      <point x="548" y="543" type="curve" smooth="yes"/>
      <point x="769.5285451197" y="543"/>
      <point x="1011.1516488592" y="729.553518336"/>
      <point x="1071" y="948" type="curve"/>
      <point x="1039" y="965" type="line"/>
      <point x="986.1447751751" y="771.5299317731"/>
      <point x="762.5430861723" y="592"/>
      <point x="560" y="592" type="curve" smooth="yes"/>
      <point x="345.2" y="592"/>
      <point x="251.3867025804" y="732.9561544431"/>
      <point x="320" y="990" type="curve" smooth="yes"/>
      <point x="384.4267493751" y="1230.1360658526"/>
      <point x="578.0762331839" y="1371"/>
      <point x="786" y="1371" type="curve" smooth="yes"/>
      <point x="1003" y="1371"/>
      <point x="1111" y="1190"/>
      <point x="974" y="725" type="curve" smooth="yes"/>
      <point x="832" y="245"/>
      <point x="581" y="31"/>
      <point x="367" y="31" type="curve" smooth="yes"/>
      <point x="201" y="31"/>
      <point x="134" y="93"/>
      <point x="164" y="205" type="curve" smooth="yes"/>
      <point x="177" y="254" type="line" smooth="yes"/>
      <point x="188" y="295"/>
      <point x="179" y="319"/>
      <point x="153" y="319" type="curve" smooth="yes"/>
      <point x="121" y="319"/>
      <point x="94" y="292"/>
      <point x="78" y="239" type="curve" smooth="yes"/>
      <point x="40" y="99"/>
      <point x="154" y="-18"/>
    </contour>
  </outline>
</glyph>
<glyph name="less" format="2">
  <advance width="863"/>
  <unicode hex="003C"/>
  <outline>
    <contour>
      <point x="203" y="688" type="line"/>
      <point x="745" y="328" type="line" smooth="yes"/>
      <point x="762" y="316"/>
      <point x="770" y="301"/>
      <point x="767" y="288" type="curve" smooth="yes"/>
      <point x="764" y="277"/>
      <point x="754" y="271"/>
      <point x="740" y="271" type="curve" smooth="yes"/>
      <point x="728.0" y="271.0"/>
      <point x="719.5839000943593" y="282.69065070680847"/>
      <point x="704" y="293" type="curve" smooth="yes"/>
      <point x="184" y="637" type="line" smooth="yes"/>
      <point x="153.7694669956782" y="656.9986602951667"/>
      <point x="142" y="672"/>
      <point x="146" y="692" type="curve" smooth="yes"/>
      <point x="150" y="710"/>
      <point x="171.47022517262926" y="720.9267220517584"/>
      <point x="202" y="736" type="curve" smooth="yes"/>
      <point x="919" y="1090" type="line" smooth="yes"/>
      <point x="937" y="1099"/>
      <point x="952" y="1103"/>
      <point x="965" y="1103" type="curve" smooth="yes"/>
      <point x="979" y="1103"/>
      <point x="982" y="1095"/>
      <point x="979" y="1082" type="curve" smooth="yes"/>
      <point x="976" y="1070"/>
      <point x="960" y="1054"/>
      <point x="937" y="1042" type="curve" smooth="yes"/>
      <point x="201" y="682" type="line"/>
    </contour>
  </outline>
</glyph>
<glyph name="question" format="2">
  <advance width="631"/>
  <unicode hex="003F"/>
  <outline>
    <contour>
      <point x="232" y="584" type="line" smooth="yes"/>
      <point x="240.242" y="613.516"/>
      <point x="256.236" y="641.91"/>
      <point x="279" y="653" type="curve" smooth="yes"/>
      <point x="357" y="691" type="line" smooth="yes"/>
      <point x="582.478" y="800.848"/>
      <point x="709.707" y="940.878"/>
      <point x="750" y="1095" type="curve" smooth="yes"/>
      <point x="804.044" y="1303.17"/>
      <point x="716.215" y="1396"/>
      <point x="593" y="1396" type="curve" smooth="yes"/>
      <point x="448.505" y="1396"/>
      <point x="342.1" y="1325.518"/>
      <point x="303" y="1194" type="curve" smooth="yes"/>
      <point x="292" y="1157" type="line" smooth="yes"/>
      <point x="283.807" y="1129.44"/>
      <point x="265" y="1114"/>
      <point x="241" y="1114" type="curve" smooth="yes"/>
      <point x="213" y="1114"/>
      <point x="198.668" y="1138.482"/>
      <point x="212" y="1188" type="curve" smooth="yes"/>
      <point x="241" y="1298"/>
      <point x="394" y="1436"/>
      <point x="601" y="1436" type="curve" smooth="yes"/>
      <point x="768.383" y="1436"/>
      <point x="867.961" y="1316.856"/>
      <point x="808" y="1095" type="curve" smooth="yes"/>
      <point x="761.016" y="923.059"/>
      <point x="607.137" y="765.708"/>
      <point x="403" y="665" type="curve" smooth="yes"/>
      <point x="317" y="623" type="line" smooth="yes"/>
      <point x="297" y="613"/>
      <point x="287" y="597"/>
      <point x="279" y="571" type="curve" smooth="yes"/>
      <point x="203" y="319" type="line" smooth="yes"/>
      <point x="198" y="302"/>
      <point x="186" y="289"/>
      <point x="173" y="289" type="curve" smooth="yes"/>
      <point x="160" y="289"/>
      <point x="153" y="300"/>
      <point x="158" y="319" type="curve" smooth="yes"/>
    </contour>
    <component base="period" xOffset="7" yOffset="1"/>
  </outline>
</glyph>
<glyph name="B" format="2">
  <advance width="1062"/>
  <unicode hex="0042"/>
  <outline>
    <contour>
      <point x="573" y="1308" type="curve" smooth="yes"/>
      <point x="582" y="1340"/>
      <point x="617" y="1356"/>
      <point x="727" y="1356" type="curve" smooth="yes"/>
      <point x="946.0" y="1356.0"/>
      <point x="1060" y="1231"/>
      <point x="1017" y="1010" type="curve" smooth="yes"/>
      <point x="975" y="796"/>
      <point x="797.0" y="672.0"/>
      <point x="611" y="672" type="curve" smooth="yes"/>
      <point x="371" y="672" type="line"/>
      <point x="349" y="630" type="line"/>
      <point x="636" y="630" type="line" smooth="yes"/>
      <point x="833" y="630"/>
      <point x="932" y="532"/>
      <point x="901" y="349" type="curve" smooth="yes"/>
      <point x="870" y="153"/>
      <point x="701" y="46"/>
      <point x="446" y="46" type="curve" smooth="yes"/>
      <point x="261" y="46"/>
      <point x="230" y="63"/>
      <point x="238" y="98" type="curve" smooth="yes"/>
      <point x="268" y="223"/>
      <point x="477" y="983"/>
    </contour>
    <contour>
      <point x="414" y="1400" type="line" smooth="yes"/>
      <point x="392.0" y="1400.0"/>
      <point x="384" y="1391"/>
      <point x="383" y="1382" type="curve" smooth="yes"/>
      <point x="383" y="1369"/>
      <point x="393" y="1362"/>
      <point x="409" y="1359" type="curve" smooth="yes"/>
      <point x="471" y="1347" type="line" smooth="yes"/>
      <point x="507" y="1340"/>
      <point x="520" y="1328"/>
      <point x="512" y="1296" type="curve" smooth="yes"/>
      <point x="491" y="1215"/>
      <point x="218" y="226"/>
      <point x="180" y="102" type="curve" smooth="yes"/>
      <point x="170" y="71"/>
      <point x="145" y="56"/>
      <point x="102" y="51" type="curve" smooth="yes"/>
      <point x="41" y="44" type="line" smooth="yes"/>
      <point x="16" y="41"/>
      <point x="6" y="28"/>
      <point x="6" y="20" type="curve" smooth="yes"/>
      <point x="6" y="7"/>
      <point x="15.0" y="0"/>
      <point x="36" y="0" type="curve" smooth="yes"/>
      <point x="431" y="0" type="line" smooth="yes"/>
      <point x="747" y="0"/>
      <point x="925" y="138"/>
      <point x="958" y="343" type="curve" smooth="yes"/>
      <point x="988" y="535"/>
      <point x="875" y="664"/>
      <point x="628" y="664" type="curve"/>
      <point x="627" y="644" type="line"/>
      <point x="845" y="644.0"/>
      <point x="1034" y="786"/>
      <point x="1072" y="1004" type="curve" smooth="yes"/>
      <point x="1115" y="1248"/>
      <point x="988.0" y="1400"/>
      <point x="726" y="1400" type="curve" smooth="yes"/>
    </contour>
  </outline>
</glyph>
<glyph name="C" format="2">
  <advance width="1145"/>
  <unicode hex="0043"/>
  <anchor x="952" y="1510" name="center"/>
  <outline>
    <contour>
      <point x="1056" y="352" type="curve" smooth="yes"/>
      <point x="1040" y="361"/>
      <point x="1026" y="349"/>
      <point x="1015" y="326" type="curve" smooth="yes"/>
      <point x="902.497" y="122.556"/>
      <point x="763.295" y="21"/>
      <point x="572" y="21" type="curve" smooth="yes"/>
      <point x="329" y="21"/>
      <point x="182" y="257"/>
      <point x="236" y="614" type="curve" smooth="yes"/>
      <point x="292" y="999"/>
      <point x="563" y="1381"/>
      <point x="914" y="1381" type="curve" smooth="yes"/>
      <point x="1082.414" y="1381"/>
      <point x="1188" y="1315"/>
      <point x="1210" y="1182" type="curve" smooth="yes"/>
      <point x="1223" y="1105" type="line" smooth="yes"/>
      <point x="1227" y="1082"/>
      <point x="1236" y="1073"/>
      <point x="1248" y="1073" type="curve" smooth="yes"/>
      <point x="1263" y="1073"/>
      <point x="1273" y="1089"/>
      <point x="1273" y="1106" type="curve" smooth="yes"/>
      <point x="1274" y="1391" type="line" smooth="yes"/>
      <point x="1274" y="1410"/>
      <point x="1265" y="1421"/>
      <point x="1249" y="1421" type="curve" smooth="yes"/>
      <point x="1214" y="1421"/>
      <point x="1217" y="1334"/>
      <point x="1203" y="1334" type="curve" smooth="yes"/>
      <point x="1187" y="1334"/>
      <point x="1117" y="1430"/>
      <point x="942" y="1430" type="curve" smooth="yes"/>
      <point x="542" y="1430"/>
      <point x="235.997" y="1028.98"/>
      <point x="179" y="623" type="curve" smooth="yes"/>
      <point x="123.006" y="225.04"/>
      <point x="276.495" y="-30"/>
      <point x="565" y="-30" type="curve" smooth="yes"/>
      <point x="786.364" y="-30"/>
      <point x="952.134" y="97.037"/>
      <point x="1052" y="293" type="curve" smooth="yes"/>
      <point x="1063" y="316"/>
      <point x="1069" y="344"/>
    </contour>
  </outline>
</glyph>
<glyph name="D" format="2">
  <advance width="1265"/>
  <unicode hex="0044"/>
  <anchor x="905" y="1485" name="center"/>
  <outline>
    <contour>
      <point x="7" y="18" type="curve" smooth="yes"/>
      <point x="7.0" y="5"/>
      <point x="16.0" y="0"/>
      <point x="30" y="0" type="curve" smooth="yes"/>
      <point x="445" y="0" type="line" smooth="yes"/>
      <point x="864.968137254902" y="0"/>
      <point x="1178.2119684721756" y="261.31106425382654"/>
      <point x="1259" y="761" type="curve" smooth="yes"/>
      <point x="1320.1800012864728" y="1140.1154178079785"/>
      <point x="1099.6926406926407" y="1400"/>
      <point x="799" y="1400" type="curve" smooth="yes"/>
      <point x="403" y="1400" type="line" smooth="yes"/>
      <point x="380.5" y="1400"/>
      <point x="373" y="1394"/>
      <point x="373" y="1381" type="curve" smooth="yes"/>
      <point x="373.0" y="1368"/>
      <point x="382" y="1360"/>
      <point x="402" y="1357" type="curve" smooth="yes"/>
      <point x="469" y="1347" type="line" smooth="yes"/>
      <point x="503" y="1342"/>
      <point x="517" y="1321"/>
      <point x="508" y="1284" type="curve" smooth="yes"/>
      <point x="487" y="1196"/>
      <point x="205" y="176"/>
      <point x="190" y="128" type="curve" smooth="yes"/>
      <point x="174.0" y="77.0"/>
      <point x="148" y="58"/>
      <point x="104" y="52" type="curve" smooth="yes"/>
      <point x="44" y="44" type="line" smooth="yes"/>
      <point x="16" y="40"/>
      <point x="7" y="34"/>
    </contour>
    <contour>
      <point x="457" y="46" type="curve" smooth="yes"/>
      <point x="284" y="46" type="line" smooth="yes"/>
      <point x="248.0" y="46"/>
      <point x="234.467319282127" y="64.86927712850792"/>
      <point x="243" y="99" type="curve" smooth="yes"/>
      <point x="261" y="171"/>
      <point x="558" y="1237"/>
      <point x="579" y="1308" type="curve" smooth="yes"/>
      <point x="588" y="1340"/>
      <point x="606" y="1354.0"/>
      <point x="641" y="1354" type="curve" smooth="yes"/>
      <point x="785" y="1354" type="line" smooth="yes"/>
      <point x="1036" y="1354"/>
      <point x="1259" y="1126"/>
      <point x="1205" y="766" type="curve" smooth="yes"/>
      <point x="1140" y="335"/>
      <point x="858.0" y="46"/>
    </contour>
  </outline>
</glyph>
<glyph name="E" format="2">
  <advance width="1040"/>
  <unicode hex="0045"/>
  <anchor x="840" y="1468.0" name="center"/>
  <outline>
    <contour>
      <point x="376" y="705" type="line"/>
      <point x="363" y="665" type="line"/>
      <point x="785" y="665" type="line" smooth="yes"/>
      <point x="824" y="665"/>
      <point x="843" y="651"/>
      <point x="862" y="562" type="curve" smooth="yes"/>
      <point x="867" y="538"/>
      <point x="877" y="527"/>
      <point x="891" y="527" type="curve" smooth="yes"/>
      <point x="905" y="527"/>
      <point x="913" y="538"/>
      <point x="909" y="562" type="curve" smooth="yes"/>
      <point x="862" y="844" type="line" smooth="yes"/>
      <point x="860" y="853"/>
      <point x="855" y="863"/>
      <point x="839" y="863" type="curve" smooth="yes"/>
      <point x="829" y="863"/>
      <point x="819" y="854"/>
      <point x="822" y="836" type="curve" smooth="yes"/>
      <point x="836" y="731"/>
      <point x="820" y="705"/>
      <point x="774" y="705" type="curve" smooth="yes"/>
    </contour>
    <contour>
      <point x="659" y="0" type="line" smooth="yes"/>
      <point x="690" y="0"/>
      <point x="708" y="-21"/>
      <point x="740" y="-21" type="curve" smooth="yes"/>
      <point x="814" y="-21"/>
      <point x="925" y="108"/>
      <point x="953" y="269" type="curve" smooth="yes"/>
      <point x="955" y="285"/>
      <point x="948" y="296"/>
      <point x="938" y="296" type="curve" smooth="yes"/>
      <point x="927" y="296"/>
      <point x="920" y="288"/>
      <point x="916" y="278" type="curve" smooth="yes"/>
      <point x="845" y="90"/>
      <point x="773" y="40"/>
      <point x="680" y="40" type="curve" smooth="yes"/>
      <point x="293" y="40" type="line" smooth="yes"/>
      <point x="249" y="40"/>
      <point x="228" y="66"/>
      <point x="241" y="115" type="curve" smooth="yes"/>
      <point x="261" y="190"/>
      <point x="563" y="1283"/>
      <point x="585" y="1360" type="curve"/>
      <point x="1016" y="1360" type="line" smooth="yes"/>
      <point x="1065" y="1360"/>
      <point x="1102" y="1325"/>
      <point x="1124" y="1171" type="curve" smooth="yes"/>
      <point x="1127" y="1152"/>
      <point x="1138" y="1140"/>
      <point x="1152" y="1140" type="curve" smooth="yes"/>
      <point x="1168" y="1140"/>
      <point x="1178" y="1152"/>
      <point x="1174" y="1177" type="curve" smooth="yes"/>
      <point x="1143" y="1394" type="line" smooth="yes"/>
      <point x="1139" y="1420"/>
      <point x="1134" y="1429"/>
      <point x="1117" y="1429" type="curve" smooth="yes"/>
      <point x="1097" y="1429"/>
      <point x="1075" y="1400"/>
      <point x="1046" y="1400" type="curve" smooth="yes"/>
      <point x="405" y="1400" type="line" smooth="yes"/>
      <point x="387" y="1400"/>
      <point x="375" y="1394"/>
      <point x="375" y="1379" type="curve" smooth="yes"/>
      <point x="375" y="1370"/>
      <point x="384" y="1361"/>
      <point x="402" y="1358" type="curve" smooth="yes"/>
      <point x="482" y="1345" type="line" smooth="yes"/>
      <point x="512" y="1340"/>
      <point x="520" y="1308"/>
      <point x="511" y="1272" type="curve" smooth="yes"/>
      <point x="493" y="1202"/>
      <point x="208" y="196"/>
      <point x="184" y="118" type="curve" smooth="yes"/>
      <point x="171" y="75"/>
      <point x="147" y="59"/>
      <point x="108" y="53" type="curve" smooth="yes"/>
      <point x="37" y="42" type="line" smooth="yes"/>
      <point x="19" y="39"/>
      <point x="7" y="33"/>
      <point x="7" y="20" type="curve" smooth="yes"/>
      <point x="6" y="10"/>
      <point x="13" y="0"/>
      <point x="29" y="0" type="curve" smooth="yes"/>
    </contour>
  </outline>
</glyph>
<glyph name="F" format="2">
  <advance width="975"/>
  <unicode hex="0046"/>
  <outline>
    <contour>
      <point x="373" y="1384" type="curve" smooth="yes"/>
      <point x="370.5521543818085" y="1367.6810292120567"/>
      <point x="381" y="1361"/>
      <point x="404" y="1357" type="curve" smooth="yes"/>
      <point x="475" y="1346" type="line" smooth="yes"/>
      <point x="503.573481774624" y="1341.5731225419597"/>
      <point x="516" y="1321"/>
      <point x="508" y="1287" type="curve" smooth="yes"/>
      <point x="496.9024796126356" y="1241.601052960782"/>
      <point x="205.18058757410807" y="177.56885085844044"/>
      <point x="185" y="114" type="curve" smooth="yes"/>
      <point x="172.7782575550294" y="75.58880945866383"/>
      <point x="145" y="59"/>
      <point x="102" y="52" type="curve" smooth="yes"/>
      <point x="38" y="42" type="line" smooth="yes"/>
      <point x="14.327000456466294" y="38.30109382132286"/>
      <point x="6.885057378462785" y="32.27586067694176"/>
      <point x="6" y="19" type="curve" smooth="yes"/>
      <point x="4.9445575448858055" y="7.39013299374386"/>
      <point x="15" y="0"/>
      <point x="31" y="0" type="curve" smooth="yes"/>
      <point x="349" y="0" type="line" smooth="yes"/>
      <point x="379.40677966101697" y="0"/>
      <point x="388.0" y="10.758620689655173"/>
      <point x="388" y="24" type="curve" smooth="yes"/>
      <point x="389.29149552008295" y="35.62345968074617"/>
      <point x="379.12526556988166" y="43.685830802774056"/>
      <point x="354" y="46" type="curve" smooth="yes"/>
      <point x="278" y="53" type="line" smooth="yes"/>
      <point x="240" y="57"/>
      <point x="229.01801313621365" y="80.66124466312642"/>
      <point x="240" y="118" type="curve" smooth="yes"/>
      <point x="254.0716124250465" y="170.26598900731568"/>
      <point x="576.9788998965676" y="1322.9251905423757"/>
      <point x="588" y="1362" type="curve"/>
      <point x="985" y="1362" type="line" smooth="yes"/>
      <point x="1049.0243902439026" y="1362"/>
      <point x="1073" y="1329"/>
      <point x="1090" y="1248" type="curve" smooth="yes"/>
      <point x="1105" y="1178" type="line" smooth="yes"/>
      <point x="1110.616994840946" y="1151.7873574089183"/>
      <point x="1119.5157579538177" y="1141.9677651278864"/>
      <point x="1135" y="1141" type="curve" smooth="yes"/>
      <point x="1152.8947368421052" y="1141.0"/>
      <point x="1159.9769473253311" y="1156.4236175069234"/>
      <point x="1155" y="1189" type="curve" smooth="yes"/>
      <point x="1122" y="1405" type="line" smooth="yes"/>
      <point x="1119" y="1422"/>
      <point x="1112" y="1429"/>
      <point x="1099" y="1429" type="curve" smooth="yes"/>
      <point x="1075.2474226804122" y="1429.0"/>
      <point x="1059.142857142857" y="1400"/>
      <point x="1027" y="1400" type="curve" smooth="yes"/>
      <point x="405" y="1400" type="line" smooth="yes"/>
      <point x="385" y="1400"/>
      <point x="374.8808050737316" y="1395.2848304423896"/>
    </contour>
    <contour>
      <point x="369" y="666" type="line"/>
      <point x="358" y="626" type="line"/>
      <point x="753" y="626" type="line" smooth="yes"/>
      <point x="795.5675675675676" y="626"/>
      <point x="812" y="603"/>
      <point x="828" y="528" type="curve" smooth="yes"/>
      <point x="835" y="497"/>
      <point x="845.3714285714286" y="488.0"/>
      <point x="860" y="488" type="curve" smooth="yes"/>
      <point x="869.8421052631579" y="488.0"/>
      <point x="880" y="498"/>
      <point x="877" y="517" type="curve" smooth="yes"/>
      <point x="831" y="797" type="line" smooth="yes"/>
      <point x="828.4158293419896" y="812.7297344400631"/>
      <point x="821.3846153846154" y="824.0"/>
      <point x="806" y="824" type="curve" smooth="yes"/>
      <point x="793.0" y="824.0"/>
      <point x="787.7188074264816" y="812.0099381126539"/>
      <point x="790" y="793" type="curve" smooth="yes"/>
      <point x="804.2106077053257" y="690.2463750537983"/>
      <point x="783.1219512195122" y="666"/>
      <point x="743" y="666" type="curve" smooth="yes"/>
    </contour>
  </outline>
</glyph>
<glyph name="G" format="2">
  <advance width="1220"/>
  <unicode hex="0047"/>
  <anchor x="989.0" y="1566.0" name="center"/>
  <outline>
    <contour>
      <point x="930" y="1427" type="curve" smooth="yes"/>
      <point x="553" y="1427"/>
      <point x="247" y="1102"/>
      <point x="154" y="671" type="curve" smooth="yes"/>
      <point x="63" y="248"/>
      <point x="230" y="-22"/>
      <point x="528" y="-22" type="curve" smooth="yes"/>
      <point x="762" y="-22"/>
      <point x="846" y="66"/>
      <point x="864" y="66" type="curve" smooth="yes"/>
      <point x="878" y="66"/>
      <point x="848" y="-18"/>
      <point x="883" y="-18" type="curve" smooth="yes"/>
      <point x="896" y="-18"/>
      <point x="911" y="-13"/>
      <point x="917" y="8" type="curve" smooth="yes"/>
      <point x="1060" y="479" type="line" smooth="yes"/>
      <point x="1069" y="508"/>
      <point x="1084" y="527"/>
      <point x="1116" y="533" type="curve" smooth="yes"/>
      <point x="1162" y="541" type="line" smooth="yes"/>
      <point x="1193" y="546"/>
      <point x="1205" y="555"/>
      <point x="1207" y="566" type="curve" smooth="yes"/>
      <point x="1210" y="584"/>
      <point x="1203" y="588"/>
      <point x="1182" y="588" type="curve" smooth="yes"/>
      <point x="892" y="588" type="line" smooth="yes"/>
      <point x="871" y="588"/>
      <point x="858" y="584"/>
      <point x="857" y="569" type="curve" smooth="yes"/>
      <point x="857" y="554"/>
      <point x="865" y="543"/>
      <point x="887" y="541" type="curve" smooth="yes"/>
      <point x="958" y="534" type="line" smooth="yes"/>
      <point x="1002" y="530"/>
      <point x="1014" y="506"/>
      <point x="997" y="453" type="curve" smooth="yes"/>
      <point x="935" y="255" type="line" smooth="yes"/>
      <point x="888" y="104"/>
      <point x="768" y="24"/>
      <point x="544" y="24" type="curve" smooth="yes"/>
      <point x="291" y="24"/>
      <point x="124" y="255"/>
      <point x="212" y="663" type="curve" smooth="yes"/>
      <point x="303" y="1087"/>
      <point x="587" y="1383"/>
      <point x="925" y="1383" type="curve" smooth="yes"/>
      <point x="1062" y="1383"/>
      <point x="1207" y="1348"/>
      <point x="1225" y="1186" type="curve" smooth="yes"/>
      <point x="1235" y="1098" type="line" smooth="yes"/>
      <point x="1236" y="1090"/>
      <point x="1248" y="1072"/>
      <point x="1260" y="1072" type="curve" smooth="yes"/>
      <point x="1273" y="1072"/>
      <point x="1285" y="1081"/>
      <point x="1285" y="1103" type="curve" smooth="yes"/>
      <point x="1289" y="1380" type="line" smooth="yes"/>
      <point x="1289" y="1409"/>
      <point x="1277" y="1421"/>
      <point x="1261" y="1421" type="curve" smooth="yes"/>
      <point x="1228" y="1421"/>
      <point x="1233" y="1342"/>
      <point x="1214" y="1342" type="curve" smooth="yes"/>
      <point x="1196" y="1342"/>
      <point x="1132" y="1427"/>
    </contour>
  </outline>
</glyph>
<glyph name="J" format="2">
  <advance width="541"/>
  <unicode hex="004A"/>
  <anchor x="592" y="1468" name="center"/>
  <outline>
    <contour>
      <point x="563" y="1277" type="curve" smooth="yes"/>
      <point x="576" y="1321"/>
      <point x="595" y="1342"/>
      <point x="629" y="1346" type="curve" smooth="yes"/>
      <point x="722" y="1358" type="line" smooth="yes"/>
      <point x="742.7" y="1360.671"/>
      <point x="755" y="1369.004"/>
      <point x="756" y="1382" type="curve" smooth="yes"/>
      <point x="756" y="1395"/>
      <point x="748.552" y="1400"/>
      <point x="729" y="1400" type="curve" smooth="yes"/>
      <point x="394" y="1400" type="line" smooth="yes"/>
      <point x="365" y="1400"/>
      <point x="356" y="1394.99"/>
      <point x="355" y="1381" type="curve" smooth="yes"/>
      <point x="354.001" y="1369.015"/>
      <point x="362.032" y="1361.995"/>
      <point x="383" y="1359" type="curve" smooth="yes"/>
      <point x="467" y="1347" type="line" smooth="yes"/>
      <point x="504" y="1342"/>
      <point x="518" y="1323"/>
      <point x="503" y="1268" type="curve" smooth="yes"/>
      <point x="486" y="1204"/>
      <point x="177" y="108"/>
      <point x="152" y="17" type="curve" smooth="yes"/>
      <point x="144.267" y="-11.119"/>
      <point x="134" y="-43"/>
      <point x="126" y="-90" type="curve" smooth="yes"/>
      <point x="106.576" y="-199.387"/>
      <point x="59.231" y="-232"/>
      <point x="2" y="-232" type="curve" smooth="yes"/>
      <point x="-26" y="-232"/>
      <point x="-46" y="-219"/>
      <point x="-77" y="-219" type="curve" smooth="yes"/>
      <point x="-110" y="-219"/>
      <point x="-128" y="-236"/>
      <point x="-128" y="-258" type="curve" smooth="yes"/>
      <point x="-128" y="-284"/>
      <point x="-106" y="-307"/>
      <point x="-47" y="-307" type="curve" smooth="yes"/>
      <point x="60.279" y="-307"/>
      <point x="140.554" y="-246.677"/>
      <point x="182" y="-91" type="curve" smooth="yes"/>
      <point x="198.954" y="-27.174"/>
      <point x="541.059" y="1203.198"/>
    </contour>
  </outline>
</glyph>
<glyph name="K" format="2">
  <advance width="1138"/>
  <unicode hex="004B"/>
  <anchor x="571" y="1487" name="center"/>
  <outline>
    <contour>
      <point x="240" y="118" type="curve" smooth="yes"/>
      <point x="253" y="175"/>
      <point x="552.7356324301126" y="1241.0218399914163"/>
      <point x="563" y="1279" type="curve" smooth="yes"/>
      <point x="574.0122296885052" y="1317.042248014836"/>
      <point x="593.4845511001206" y="1341.5650007573333"/>
      <point x="634" y="1347" type="curve" smooth="yes"/>
      <point x="716" y="1358" type="line" smooth="yes"/>
      <point x="746.5689410477314" y="1362.1007116039639"/>
      <point x="756.0" y="1371.0"/>
      <point x="756" y="1385" type="curve" smooth="yes"/>
      <point x="756.0" y="1397.0"/>
      <point x="751" y="1400"/>
      <point x="734" y="1400" type="curve" smooth="yes"/>
      <point x="407" y="1400" type="line" smooth="yes"/>
      <point x="384.33333333333337" y="1400"/>
      <point x="373.0" y="1394.375"/>
      <point x="373" y="1382" type="curve" smooth="yes"/>
      <point x="373.0" y="1367.75"/>
      <point x="379" y="1361"/>
      <point x="399" y="1358" type="curve" smooth="yes"/>
      <point x="474" y="1346" type="line" smooth="yes"/>
      <point x="509.9727698157473" y="1340.2443568294805"/>
      <point x="517" y="1327"/>
      <point x="507" y="1283" type="curve" smooth="yes"/>
      <point x="497.8458600497627" y="1244.3491868767758"/>
      <point x="207" y="191"/>
      <point x="187" y="120" type="curve" smooth="yes"/>
      <point x="177" y="84"/>
      <point x="149" y="57"/>
      <point x="103" y="51" type="curve" smooth="yes"/>
      <point x="45" y="44" type="line" smooth="yes"/>
      <point x="15.0709992891401" y="40.38787922455139"/>
      <point x="6" y="30"/>
      <point x="6" y="19" type="curve" smooth="yes"/>
      <point x="6.0" y="8.0"/>
      <point x="15" y="0"/>
      <point x="36" y="0" type="curve" smooth="yes"/>
      <point x="348" y="0" type="line" smooth="yes"/>
      <point x="366.9473684210526" y="0"/>
      <point x="388.0" y="5.75"/>
      <point x="388" y="23" type="curve" smooth="yes"/>
      <point x="388.7433107896165" y="34.892972633863295"/>
      <point x="378.94079291102406" y="43.356952021930155"/>
      <point x="351" y="46" type="curve" smooth="yes"/>
      <point x="277" y="53" type="line" smooth="yes"/>
      <point x="242" y="56"/>
      <point x="231" y="78"/>
    </contour>
    <contour>
      <point x="602" y="768" type="line"/>
      <point x="829" y="95" type="line" smooth="yes"/>
      <point x="856" y="15"/>
      <point x="894" y="-18"/>
      <point x="943" y="-18" type="curve" smooth="yes"/>
      <point x="992" y="-18"/>
      <point x="1022" y="6"/>
      <point x="1041" y="41" type="curve" smooth="yes"/>
      <point x="1049" y="57"/>
      <point x="1047" y="78"/>
      <point x="1037" y="84" type="curve" smooth="yes"/>
      <point x="1025" y="91"/>
      <point x="1011" y="85"/>
      <point x="1003" y="69" type="curve" smooth="yes"/>
      <point x="991" y="49"/>
      <point x="977" y="40"/>
      <point x="957" y="40" type="curve" smooth="yes"/>
      <point x="924.6190476190476" y="40.0"/>
      <point x="903.1982528215744" y="54.67500398273463"/>
      <point x="889" y="96" type="curve" smooth="yes"/>
      <point x="643" y="812" type="line"/>
    </contour>
    <contour>
      <point x="299" y="412" type="line"/>
      <point x="1099" y="1254" type="line" smooth="yes"/>
      <point x="1162.91251192927" y="1321.2679188055567"/>
      <point x="1219.128787878788" y="1341.0"/>
      <point x="1256" y="1341" type="curve" smooth="yes"/>
      <point x="1289" y="1341"/>
      <point x="1315" y="1323"/>
      <point x="1349" y="1323" type="curve" smooth="yes"/>
      <point x="1382" y="1323"/>
      <point x="1400" y="1340"/>
      <point x="1401" y="1366" type="curve" smooth="yes"/>
      <point x="1402" y="1394"/>
      <point x="1371" y="1420.0"/>
      <point x="1328" y="1420" type="curve" smooth="yes"/>
      <point x="1239.44" y="1420.0"/>
      <point x="1153.4883061118567" y="1376.053187527647"/>
      <point x="1058" y="1275" type="curve" smooth="yes"/>
      <point x="303" y="476" type="line"/>
    </contour>
  </outline>
</glyph>
<glyph name="N" format="2">
  <advance width="1221"/>
  <unicode hex="004E"/>
  <anchor x="925.0" y="1497" name="center"/>
  <outline>
    <contour>
      <point x="225" y="134" type="line" smooth="yes"/>
      <point x="210" y="82"/>
      <point x="223" y="56"/>
      <point x="267" y="52" type="curve" smooth="yes"/>
      <point x="344" y="45" type="line" smooth="yes"/>
      <point x="364" y="43"/>
      <point x="373" y="33"/>
      <point x="372" y="21" type="curve" smooth="yes"/>
      <point x="372" y="5"/>
      <point x="360" y="0"/>
      <point x="342" y="0" type="curve" smooth="yes"/>
      <point x="18" y="0" type="line" smooth="yes"/>
      <point x="1" y="0"/>
      <point x="-11" y="7"/>
      <point x="-10" y="19" type="curve" smooth="yes"/>
      <point x="-9" y="31"/>
      <point x="2" y="42"/>
      <point x="24" y="44" type="curve" smooth="yes"/>
      <point x="88" y="51" type="line" smooth="yes"/>
      <point x="137" y="56"/>
      <point x="163" y="87"/>
      <point x="176" y="133" type="curve" smooth="yes"/>
      <point x="458" y="1108" type="line" smooth="yes"/>
      <point x="474" y="1162"/>
      <point x="467" y="1188"/>
      <point x="455" y="1215" type="curve" smooth="yes"/>
      <point x="391" y="1363" type="line" smooth="yes"/>
      <point x="382" y="1383"/>
      <point x="395" y="1400"/>
      <point x="415" y="1400" type="curve" smooth="yes"/>
      <point x="432" y="1400" type="line" smooth="yes"/>
      <point x="453" y="1400"/>
      <point x="458" y="1380"/>
      <point x="474" y="1336" type="curve" smooth="yes"/>
      <point x="523" y="1204"/>
      <point x="867" y="314"/>
      <point x="930" y="151" type="curve"/>
      <point x="904" y="160" type="line"/>
      <point x="1181" y="1164" type="line" smooth="yes"/>
      <point x="1224" y="1319"/>
      <point x="1307" y="1418"/>
      <point x="1390" y="1418" type="curve" smooth="yes"/>
      <point x="1417" y="1418"/>
      <point x="1434" y="1403"/>
      <point x="1434" y="1380" type="curve" smooth="yes"/>
      <point x="1434" y="1354"/>
      <point x="1414" y="1337"/>
      <point x="1372" y="1324" type="curve" smooth="yes"/>
      <point x="1298" y="1300"/>
      <point x="1250" y="1242"/>
      <point x="1225" y="1151" type="curve" smooth="yes"/>
      <point x="953" y="172" type="line" smooth="yes"/>
      <point x="946" y="148"/>
      <point x="947" y="126"/>
      <point x="957" y="95" type="curve" smooth="yes"/>
      <point x="972" y="49" type="line" smooth="yes"/>
      <point x="982" y="17"/>
      <point x="971" y="0"/>
      <point x="945" y="0" type="curve" smooth="yes"/>
      <point x="930" y="0" type="line" smooth="yes"/>
      <point x="908" y="0"/>
      <point x="895" y="18"/>
      <point x="897" y="47" type="curve" smooth="yes"/>
      <point x="899" y="80"/>
      <point x="893" y="87"/>
      <point x="886" y="105" type="curve" smooth="yes"/>
      <point x="807" y="314"/>
      <point x="590" y="896"/>
      <point x="497" y="1132" type="curve"/>
      <point x="518" y="1148" type="line"/>
    </contour>
  </outline>
</glyph>
<glyph name="P" format="2">
  <advance width="1064"/>
  <unicode hex="0050"/>
  <outline>
    <contour>
      <point x="1152" y="896" type="curve" smooth="yes"/>
      <point x="1205" y="1156"/>
      <point x="1045" y="1400"/>
      <point x="724" y="1400" type="curve" smooth="yes"/>
      <point x="411" y="1400" type="line" smooth="yes"/>
      <point x="386" y="1400"/>
      <point x="372" y="1396"/>
      <point x="372" y="1380" type="curve" smooth="yes"/>
      <point x="372" y="1366"/>
      <point x="383" y="1360"/>
      <point x="403" y="1357" type="curve" smooth="yes"/>
      <point x="469" y="1348" type="line" smooth="yes"/>
      <point x="506.462" y="1342.891"/>
      <point x="518.857" y="1318.523"/>
      <point x="507" y="1279" type="curve" smooth="yes"/>
      <point x="487" y="1213"/>
      <point x="210.644" y="201.286"/>
      <point x="190" y="128" type="curve" smooth="yes"/>
      <point x="175.4" y="76.515"/>
      <point x="149.305" y="58.899"/>
      <point x="102" y="52" type="curve" smooth="yes"/>
      <point x="54" y="45" type="line" smooth="yes"/>
      <point x="22" y="40"/>
      <point x="7" y="34"/>
      <point x="8" y="20" type="curve" smooth="yes"/>
      <point x="7" y="5"/>
      <point x="18" y="0"/>
      <point x="33" y="0" type="curve" smooth="yes"/>
      <point x="358" y="0" type="line" smooth="yes"/>
      <point x="375" y="0"/>
      <point x="388" y="11"/>
      <point x="388" y="22" type="curve" smooth="yes"/>
      <point x="388" y="32"/>
      <point x="378" y="43"/>
      <point x="352" y="46" type="curve" smooth="yes"/>
      <point x="276" y="54" type="line" smooth="yes"/>
      <point x="242" y="58"/>
      <point x="230.551" y="74.725"/>
      <point x="241" y="121" type="curve" smooth="yes"/>
      <point x="254.699" y="183.174"/>
      <point x="547" y="1230"/>
      <point x="564" y="1283" type="curve" smooth="yes"/>
      <point x="581" y="1336"/>
      <point x="616" y="1357"/>
      <point x="709" y="1357" type="curve" smooth="yes"/>
      <point x="996" y="1357"/>
      <point x="1144" y="1151"/>
      <point x="1096" y="907" type="curve" smooth="yes"/>
      <point x="1047" y="655"/>
      <point x="885.61" y="538"/>
      <point x="642" y="538" type="curve" smooth="yes"/>
      <point x="540" y="538"/>
      <point x="430" y="575"/>
      <point x="364" y="625" type="curve"/>
      <point x="335" y="579" type="line"/>
      <point x="411" y="532"/>
      <point x="495" y="489"/>
      <point x="654" y="489" type="curve" smooth="yes"/>
      <point x="911.928" y="489"/>
      <point x="1101" y="646"/>
    </contour>
  </outline>
</glyph>
<glyph name="Q" format="2">
  <advance width="1321"/>
  <unicode hex="0051"/>
  <outline>
    <contour>
      <point x="596" y="318" type="curve" smooth="yes"/>
      <point x="492.03034793367704" y="-54.70476969537799"/>
      <point x="591.0324572074062" y="-278.89249524526736"/>
      <point x="790" y="-301" type="curve" smooth="yes"/>
      <point x="884" y="-312"/>
      <point x="917" y="-299"/>
      <point x="940" y="-268" type="curve" smooth="yes"/>
      <point x="970" y="-228" type="line" smooth="yes"/>
      <point x="983" y="-210"/>
      <point x="980" y="-196.0"/>
      <point x="967" y="-196" type="curve" smooth="yes"/>
      <point x="935" y="-196"/>
      <point x="923.0" y="-257.0"/>
      <point x="806" y="-242" type="curve" smooth="yes"/>
      <point x="626" y="-219"/>
      <point x="548.0456640210622" y="-51.379608774209714"/>
      <point x="643" y="310" type="curve" smooth="yes"/>
      <point x="649" y="338"/>
      <point x="650" y="359"/>
      <point x="632" y="362" type="curve" smooth="yes"/>
      <point x="610" y="366"/>
      <point x="602" y="338"/>
    </contour>
    <contour>
      <point x="1383" y="1100"/>
      <point x="1181" y="1422"/>
      <point x="893" y="1422" type="curve" smooth="yes"/>
      <point x="590" y="1422"/>
      <point x="292" y="1140"/>
      <point x="200" y="765" type="curve" smooth="yes"/>
      <point x="79" y="268"/>
      <point x="260" y="-31"/>
      <point x="545" y="-31" type="curve" smooth="yes"/>
      <point x="875" y="-35"/>
      <point x="1154" y="226"/>
      <point x="1268" y="665" type="curve" smooth="yes"/>
    </contour>
    <contour>
      <point x="560" y="17" type="curve" smooth="yes"/>
      <point x="367" y="17"/>
      <point x="216" y="189"/>
      <point x="215" y="479" type="curve" smooth="yes"/>
      <point x="214" y="560"/>
      <point x="226" y="651"/>
      <point x="252" y="750" type="curve" smooth="yes"/>
      <point x="346" y="1112"/>
      <point x="617" y="1374"/>
      <point x="880" y="1374" type="curve" smooth="yes"/>
      <point x="1089" y="1374"/>
      <point x="1249" y="1183"/>
      <point x="1249" y="904" type="curve" smooth="yes"/>
      <point x="1249" y="834"/>
      <point x="1238" y="758"/>
      <point x="1216" y="679" type="curve" smooth="yes"/>
      <point x="1094" y="238"/>
      <point x="827" y="16"/>
    </contour>
  </outline>
</glyph>
<glyph name="S" format="2">
  <advance width="980"/>
  <unicode hex="0053"/>
  <anchor x="813" y="1528" name="center"/>
  <outline>
    <contour>
      <point x="413" y="-20" type="curve" smooth="yes"/>
      <point x="629" y="-20"/>
      <point x="782" y="101"/>
      <point x="810" y="290" type="curve" smooth="yes"/>
      <point x="834" y="456"/>
      <point x="784" y="559"/>
      <point x="588" y="715" type="curve" smooth="yes"/>
      <point x="422" y="847"/>
      <point x="382" y="955"/>
      <point x="402" y="1089" type="curve" smooth="yes"/>
      <point x="426" y="1256"/>
      <point x="561" y="1379"/>
      <point x="774" y="1379" type="curve" smooth="yes"/>
      <point x="913" y="1379"/>
      <point x="1001.947" y="1311.424"/>
      <point x="1019" y="1175" type="curve" smooth="yes"/>
      <point x="1025" y="1127" type="line" smooth="yes"/>
      <point x="1027" y="1107"/>
      <point x="1041" y="1087"/>
      <point x="1064" y="1087" type="curve" smooth="yes"/>
      <point x="1085" y="1087"/>
      <point x="1102" y="1105"/>
      <point x="1103" y="1138" type="curve" smooth="yes"/>
      <point x="1108.036" y="1289.08"/>
      <point x="992" y="1419"/>
      <point x="781" y="1419" type="curve" smooth="yes"/>
      <point x="539" y="1419"/>
      <point x="378" y="1276"/>
      <point x="348" y="1084" type="curve" smooth="yes"/>
      <point x="324" y="928"/>
      <point x="383" y="804"/>
      <point x="555" y="670" type="curve" smooth="yes"/>
      <point x="725.218" y="537.495"/>
      <point x="780.019" y="437.119"/>
      <point x="756" y="290" type="curve" smooth="yes"/>
      <point x="727.987" y="115.921"/>
      <point x="593.134" y="26"/>
      <point x="415" y="26" type="curve" smooth="yes"/>
      <point x="230" y="26"/>
      <point x="142" y="123"/>
      <point x="139" y="252" type="curve" smooth="yes"/>
      <point x="137" y="345" type="line" smooth="yes"/>
      <point x="136.649" y="361.333"/>
      <point x="129.263" y="373"/>
      <point x="116" y="373" type="curve" smooth="yes"/>
      <point x="104.889" y="373"/>
      <point x="93.417" y="364.711"/>
      <point x="91" y="348" type="curve" smooth="yes"/>
      <point x="44" y="23" type="line" smooth="yes"/>
      <point x="40" y="-2"/>
      <point x="48" y="-15"/>
      <point x="64" y="-15" type="curve" smooth="yes"/>
      <point x="99" y="-15"/>
      <point x="109" y="104"/>
      <point x="125" y="104" type="curve" smooth="yes"/>
      <point x="147" y="104"/>
      <point x="187" y="-20"/>
    </contour>
  </outline>
</glyph>
<glyph name="T" format="2">
  <advance width="942"/>
  <unicode hex="0054"/>
  <anchor x="377.0" y="1516" name="center"/>
  <outline>
    <contour>
      <point x="484" y="1415" type="curve" smooth="yes"/>
      <point x="321" y="1415"/>
      <point x="242" y="1330"/>
      <point x="238" y="1202" type="curve" smooth="yes"/>
      <point x="238" y="1161"/>
      <point x="257" y="1138"/>
      <point x="287" y="1138" type="curve" smooth="yes"/>
      <point x="314" y="1138"/>
      <point x="331" y="1159"/>
      <point x="332" y="1178" type="curve" smooth="yes"/>
      <point x="334" y="1214"/>
      <point x="309" y="1242"/>
      <point x="310" y="1266" type="curve" smooth="yes"/>
      <point x="311" y="1329"/>
      <point x="350" y="1371"/>
      <point x="484" y="1371" type="curve" smooth="yes"/>
      <point x="639" y="1371"/>
      <point x="915" y="1288"/>
      <point x="1038" y="1288" type="curve" smooth="yes"/>
      <point x="1142" y="1288"/>
      <point x="1209" y="1346"/>
      <point x="1210" y="1421" type="curve" smooth="yes"/>
      <point x="1212" y="1463"/>
      <point x="1196" y="1482"/>
      <point x="1172" y="1482" type="curve" smooth="yes"/>
      <point x="1149" y="1482"/>
      <point x="1136" y="1465"/>
      <point x="1129" y="1441" type="curve" smooth="yes"/>
      <point x="1125" y="1429"/>
      <point x="1128" y="1409"/>
      <point x="1115" y="1380" type="curve" smooth="yes"/>
      <point x="1102" y="1352"/>
      <point x="1074" y="1336"/>
      <point x="1015" y="1336" type="curve" smooth="yes"/>
      <point x="924" y="1336"/>
      <point x="626" y="1415"/>
    </contour>
    <contour>
      <point x="418" y="104" type="curve" smooth="yes"/>
      <point x="451" y="236"/>
      <point x="716" y="1185"/>
      <point x="770" y="1362" type="curve"/>
      <point x="720" y="1374" type="line"/>
      <point x="666" y="1192"/>
      <point x="409" y="264"/>
      <point x="365" y="123" type="curve" smooth="yes"/>
      <point x="352" y="72"/>
      <point x="329" y="56"/>
      <point x="278" y="51" type="curve" smooth="yes"/>
      <point x="212" y="44" type="line" smooth="yes"/>
      <point x="190" y="42"/>
      <point x="177" y="35"/>
      <point x="175" y="20" type="curve" smooth="yes"/>
      <point x="173" y="9"/>
      <point x="181" y="0"/>
      <point x="196" y="0" type="curve" smooth="yes"/>
      <point x="536" y="0" type="line" smooth="yes"/>
      <point x="554" y="0"/>
      <point x="567" y="6"/>
      <point x="567" y="22" type="curve" smooth="yes"/>
      <point x="567" y="37"/>
      <point x="558" y="43"/>
      <point x="532" y="46" type="curve" smooth="yes"/>
      <point x="449" y="54" type="line" smooth="yes"/>
      <point x="424" y="56"/>
      <point x="413" y="74"/>
    </contour>
  </outline>
</glyph>
<glyph name="U" format="2">
  <advance width="1176"/>
  <unicode hex="0055"/>
  <anchor x="938" y="1479" name="center"/>
  <outline>
    <contour>
      <point x="925" y="391" type="line" smooth="yes"/>
      <point x="844.667716525" y="139.0618349798"/>
      <point x="701.3938679245" y="19"/>
      <point x="496" y="19" type="curve" smooth="yes"/>
      <point x="323.4375" y="19"/>
      <point x="240.8915494567" y="101.1771183494"/>
      <point x="245" y="246" type="curve" smooth="yes"/>
      <point x="247" y="330"/>
      <point x="273" y="436"/>
      <point x="305" y="545" type="curve" smooth="yes"/>
      <point x="523" y="1284" type="line" smooth="yes"/>
      <point x="533" y="1317"/>
      <point x="553" y="1340"/>
      <point x="594" y="1346" type="curve" smooth="yes"/>
      <point x="676" y="1358" type="line" smooth="yes"/>
      <point x="708.248589819" y="1362.7193058272"/>
      <point x="718" y="1372"/>
      <point x="718" y="1386" type="curve" smooth="yes"/>
      <point x="718" y="1394.2352941176"/>
      <point x="710.8571428571" y="1400"/>
      <point x="693" y="1400" type="curve" smooth="yes"/>
      <point x="367" y="1400" type="line" smooth="yes"/>
      <point x="346" y="1400"/>
      <point x="335.9964517421" y="1391.9645174206"/>
      <point x="335" y="1382" type="curve" smooth="yes"/>
      <point x="335" y="1368.2903225806"/>
      <point x="342" y="1361"/>
      <point x="369" y="1357" type="curve" smooth="yes"/>
      <point x="431" y="1347" type="line" smooth="yes"/>
      <point x="472" y="1340"/>
      <point x="481" y="1317"/>
      <point x="469" y="1276" type="curve" smooth="yes"/>
      <point x="251" y="545" type="line" smooth="yes"/>
      <point x="218" y="433"/>
      <point x="188" y="324"/>
      <point x="187" y="240" type="curve" smooth="yes"/>
      <point x="182" y="84"/>
      <point x="272" y="-30"/>
      <point x="474" y="-30" type="curve" smooth="yes"/>
      <point x="733" y="-30"/>
      <point x="886" y="116"/>
      <point x="970" y="377" type="curve" smooth="yes"/>
      <point x="1256" y="1269" type="line" smooth="yes"/>
      <point x="1274" y="1324"/>
      <point x="1293" y="1340"/>
      <point x="1337" y="1347" type="curve" smooth="yes"/>
      <point x="1390" y="1356" type="line" smooth="yes"/>
      <point x="1426" y="1362"/>
      <point x="1435" y="1372"/>
      <point x="1435" y="1385" type="curve" smooth="yes"/>
      <point x="1435" y="1395"/>
      <point x="1428" y="1400"/>
      <point x="1413" y="1400" type="curve" smooth="yes"/>
      <point x="1104" y="1400" type="line" smooth="yes"/>
      <point x="1082" y="1400"/>
      <point x="1070" y="1392.2631578947"/>
      <point x="1070" y="1379" type="curve" smooth="yes"/>
      <point x="1070" y="1367.04"/>
      <point x="1081.0397802482" y="1359.02427572"/>
      <point x="1101" y="1356" type="curve" smooth="yes"/>
      <point x="1167" y="1346" type="line" smooth="yes"/>
      <point x="1210" y="1339"/>
      <point x="1218.1383954969" y="1310.3408460923"/>
      <point x="1204" y="1266" type="curve" smooth="yes"/>
    </contour>
  </outline>
</glyph>
<glyph name="W" format="2">
  <advance width="1590"/>
  <unicode hex="0057"/>
  <anchor x="1119" y="1478.0" name="center"/>
  <outline>
    <contour>
      <point x="1033" y="1234" type="line"/>
      <point x="353" y="108" type="line"/>
      <point x="375" y="114" type="line"/>
      <point x="382.1713867932479" y="304.55399193487347"/>
      <point x="421.89079772211136" y="1106.2699430527841"/>
      <point x="429" y="1284" type="curve" smooth="yes"/>
      <point x="431.55015740861325" y="1330.752885824577"/>
      <point x="450" y="1340"/>
      <point x="492" y="1346" type="curve" smooth="yes"/>
      <point x="571" y="1357" type="line" smooth="yes"/>
      <point x="600" y="1361"/>
      <point x="612" y="1369"/>
      <point x="613" y="1382" type="curve" smooth="yes"/>
      <point x="614" y="1394"/>
      <point x="605" y="1400"/>
      <point x="590" y="1400" type="curve" smooth="yes"/>
      <point x="277" y="1400" type="line" smooth="yes"/>
      <point x="264.0" y="1400.0"/>
      <point x="254.0" y="1395"/>
      <point x="254" y="1381" type="curve" smooth="yes"/>
      <point x="254.0" y="1370.0"/>
      <point x="263" y="1363"/>
      <point x="289" y="1359" type="curve" smooth="yes"/>
      <point x="338" y="1352" type="line" smooth="yes"/>
      <point x="366" y="1348"/>
      <point x="379.5650290322064" y="1329.3432112890566"/>
      <point x="378" y="1291" type="curve" smooth="yes"/>
      <point x="371.90708090852456" y="1138.6770227131144"/>
      <point x="332.1487058954573" y="287.6519218023218"/>
      <point x="326" y="178" type="curve" smooth="yes"/>
      <point x="324" y="137"/>
      <point x="326" y="117"/>
      <point x="312" y="87" type="curve" smooth="yes"/>
      <point x="298" y="57" type="line" smooth="yes"/>
      <point x="282" y="23"/>
      <point x="293" y="0"/>
      <point x="320" y="0" type="curve" smooth="yes"/>
      <point x="341" y="0" type="line" smooth="yes"/>
      <point x="363" y="0"/>
      <point x="375" y="17"/>
      <point x="384" y="48" type="curve" smooth="yes"/>
      <point x="393" y="77" type="line" smooth="yes"/>
      <point x="401" y="105"/>
      <point x="418" y="123"/>
      <point x="445" y="168" type="curve" smooth="yes"/>
      <point x="1024" y="1144" type="line"/>
    </contour>
    <contour>
      <point x="1551" y="1379" type="curve" smooth="yes"/>
      <point x="1551.0" y="1367"/>
      <point x="1560" y="1358"/>
      <point x="1588" y="1354" type="curve" smooth="yes"/>
      <point x="1651" y="1344" type="line" smooth="yes"/>
      <point x="1687" y="1338"/>
      <point x="1702" y="1309"/>
      <point x="1676" y="1263" type="curve" smooth="yes"/>
      <point x="1023" y="103" type="line"/>
      <point x="1044" y="119" type="line"/>
      <point x="1046.9999872198657" y="321.9991352109172"/>
      <point x="1058.0027234556285" y="1115.0308658304577"/>
      <point x="1073" y="1285" type="curve" smooth="yes"/>
      <point x="1076" y="1319"/>
      <point x="1091" y="1334"/>
      <point x="1128" y="1341" type="curve" smooth="yes"/>
      <point x="1228" y="1361" type="line" smooth="yes"/>
      <point x="1245" y="1364"/>
      <point x="1256" y="1370"/>
      <point x="1256" y="1384" type="curve" smooth="yes"/>
      <point x="1256.0" y="1394"/>
      <point x="1248" y="1400"/>
      <point x="1232" y="1400" type="curve" smooth="yes"/>
      <point x="913" y="1400" type="line" smooth="yes"/>
      <point x="895" y="1400"/>
      <point x="884" y="1391"/>
      <point x="884" y="1380" type="curve" smooth="yes"/>
      <point x="884.0" y="1368"/>
      <point x="892" y="1364"/>
      <point x="907" y="1361" type="curve" smooth="yes"/>
      <point x="977" y="1346" type="line" smooth="yes"/>
      <point x="1006" y="1340"/>
      <point x="1020" y="1327"/>
      <point x="1019" y="1290" type="curve" smooth="yes"/>
      <point x="1014.0004142991961" y="1129.0133404341138"/>
      <point x="995.996029184796" y="333.94123193498064"/>
      <point x="986" y="186" type="curve" smooth="yes"/>
      <point x="984" y="154"/>
      <point x="988" y="135"/>
      <point x="974" y="100" type="curve" smooth="yes"/>
      <point x="957" y="56" type="line" smooth="yes"/>
      <point x="943" y="19"/>
      <point x="954" y="0"/>
      <point x="978" y="0" type="curve" smooth="yes"/>
      <point x="1003" y="0" type="line" smooth="yes"/>
      <point x="1021" y="0"/>
      <point x="1034" y="14"/>
      <point x="1044" y="42" type="curve" smooth="yes"/>
      <point x="1053" y="66" type="line" smooth="yes"/>
      <point x="1064" y="94"/>
      <point x="1078" y="112"/>
      <point x="1097" y="146" type="curve" smooth="yes"/>
      <point x="1718" y="1245" type="line" smooth="yes"/>
      <point x="1752" y="1305"/>
      <point x="1784" y="1337"/>
      <point x="1820" y="1346" type="curve" smooth="yes"/>
      <point x="1859" y="1356" type="line" smooth="yes"/>
      <point x="1882.8771100788842" y="1362.1223359176627"/>
      <point x="1894" y="1371"/>
      <point x="1895" y="1383" type="curve" smooth="yes"/>
      <point x="1896" y="1395"/>
      <point x="1888" y="1400"/>
      <point x="1868" y="1400" type="curve" smooth="yes"/>
      <point x="1580" y="1400" type="line" smooth="yes"/>
      <point x="1564.0" y="1400.0"/>
      <point x="1551" y="1391"/>
    </contour>
  </outline>
</glyph>
<glyph name="X" format="2">
  <advance width="1084"/>
  <unicode hex="0058"/>
  <outline>
    <contour>
      <point x="637" y="734" type="line"/>
      <point x="194" y="150" type="line" smooth="yes"/>
      <point x="135" y="73"/>
      <point x="87" y="47"/>
      <point x="2" y="37" type="curve" smooth="yes"/>
      <point x="-15" y="35"/>
      <point x="-25" y="27"/>
      <point x="-25" y="18" type="curve" smooth="yes"/>
      <point x="-25" y="8"/>
      <point x="-16" y="0"/>
      <point x="-2" y="0" type="curve" smooth="yes"/>
      <point x="290" y="0" type="line" smooth="yes"/>
      <point x="310.0" y="0"/>
      <point x="321" y="9"/>
      <point x="321" y="22" type="curve" smooth="yes"/>
      <point x="321.0" y="34"/>
      <point x="312" y="42"/>
      <point x="292" y="44" type="curve" smooth="yes"/>
      <point x="241" y="50" type="line" smooth="yes"/>
      <point x="210" y="54"/>
      <point x="199" y="83"/>
      <point x="242" y="141" type="curve" smooth="yes"/>
      <point x="648" y="680" type="line"/>
    </contour>
    <contour>
      <point x="518" y="1265" type="curve" smooth="yes"/>
      <point x="505.9474425289518" y="1311.2014703056848"/>
      <point x="514.8307844645446" y="1335.8469392131278"/>
      <point x="550" y="1343" type="curve" smooth="yes"/>
      <point x="609" y="1355" type="line" smooth="yes"/>
      <point x="632" y="1360"/>
      <point x="647" y="1367"/>
      <point x="647" y="1380" type="curve" smooth="yes"/>
      <point x="648" y="1393"/>
      <point x="638" y="1400"/>
      <point x="614" y="1400" type="curve" smooth="yes"/>
      <point x="345" y="1400" type="line" smooth="yes"/>
      <point x="329" y="1400"/>
      <point x="314" y="1393"/>
      <point x="314" y="1380" type="curve" smooth="yes"/>
      <point x="314.0" y="1367"/>
      <point x="325" y="1358"/>
      <point x="347" y="1356" type="curve" smooth="yes"/>
      <point x="408" y="1351"/>
      <point x="435" y="1339"/>
      <point x="450" y="1294" type="curve" smooth="yes"/>
      <point x="473" y="1227"/>
      <point x="768.8838108995465" y="285.38413539333635"/>
      <point x="818" y="123" type="curve" smooth="yes"/>
      <point x="831" y="80"/>
      <point x="812" y="55"/>
      <point x="782" y="51" type="curve" smooth="yes"/>
      <point x="727" y="44" type="line" smooth="yes"/>
      <point x="702" y="41"/>
      <point x="690" y="30"/>
      <point x="689" y="17" type="curve" smooth="yes"/>
      <point x="689" y="7"/>
      <point x="697" y="0"/>
      <point x="721" y="0" type="curve" smooth="yes"/>
      <point x="969" y="0" type="line" smooth="yes"/>
      <point x="993.0" y="0.0"/>
      <point x="1006" y="8"/>
      <point x="1006" y="21" type="curve" smooth="yes"/>
      <point x="1006" y="33"/>
      <point x="997" y="42"/>
      <point x="975" y="44" type="curve" smooth="yes"/>
      <point x="921" y="48"/>
      <point x="891" y="66"/>
      <point x="874" y="121" type="curve" smooth="yes"/>
      <point x="813" y="314"/>
      <point x="543.0195353532482" y="1172.9281099000466"/>
    </contour>
    <contour>
      <point x="676" y="694" type="line"/>
      <point x="1026" y="1187" type="line" smooth="yes"/>
      <point x="1094.1806100692015" y="1283.0372593260468"/>
      <point x="1140.0419551443356" y="1317.0111880384895"/>
      <point x="1170" y="1325" type="curve" smooth="yes"/>
      <point x="1190" y="1330"/>
      <point x="1213.0" y="1332.0"/>
      <point x="1232" y="1332" type="curve" smooth="yes"/>
      <point x="1270.0" y="1332.0"/>
      <point x="1294.0453992777" y="1346.3165790532994"/>
      <point x="1295" y="1374" type="curve" smooth="yes"/>
      <point x="1295.0" y="1396.0"/>
      <point x="1274.0" y="1418.0"/>
      <point x="1230" y="1418.0" type="curve" smooth="yes"/>
      <point x="1146.2627737226276" y="1418.0"/>
      <point x="1087.445968824132" y="1350.7799554630458"/>
      <point x="991" y="1213" type="curve" smooth="yes"/>
      <point x="662" y="743" type="line"/>
    </contour>
  </outline>
</glyph>
<glyph name="Y" format="2">
  <advance width="944"/>
  <unicode hex="0059"/>
  <anchor x="790" y="1498" name="center"/>
  <outline>
    <contour>
      <point x="513" y="487" type="line"/>
      <point x="531" y="479" type="line"/>
      <point x="506.9596102143" y="669.3197524704"/>
      <point x="448.0733059161" y="1121.5630967399"/>
      <point x="423" y="1271" type="curve" smooth="yes"/>
      <point x="407" y="1366"/>
      <point x="371" y="1400"/>
      <point x="292" y="1400" type="curve" smooth="yes"/>
      <point x="248" y="1400" type="line" smooth="yes"/>
      <point x="230" y="1400"/>
      <point x="214" y="1389"/>
      <point x="215" y="1378" type="curve" smooth="yes"/>
      <point x="215" y="1363"/>
      <point x="231" y="1349"/>
      <point x="264" y="1347" type="curve" smooth="yes"/>
      <point x="326" y="1341"/>
      <point x="364" y="1309"/>
      <point x="373" y="1248" type="curve" smooth="yes"/>
      <point x="392.1021579459" y="1102.6113534118"/>
      <point x="451.9334750164" y="651.4324123934"/>
      <point x="478" y="482" type="curve" smooth="yes"/>
      <point x="481" y="452"/>
      <point x="475" y="425"/>
      <point x="460" y="370" type="curve" smooth="yes"/>
      <point x="395" y="132" type="line" smooth="yes"/>
      <point x="381.5533085905" y="82.7644222235"/>
      <point x="357" y="59"/>
      <point x="308" y="52" type="curve" smooth="yes"/>
      <point x="248" y="44" type="line" smooth="yes"/>
      <point x="223.0554116273" y="40.6740548836"/>
      <point x="209.9995452317" y="31.9945427802"/>
      <point x="209" y="20" type="curve" smooth="yes"/>
      <point x="209" y="7"/>
      <point x="218.0434782609" y="0"/>
      <point x="235" y="0" type="curve" smooth="yes"/>
      <point x="552" y="0" type="line" smooth="yes"/>
      <point x="579" y="0"/>
      <point x="590" y="10"/>
      <point x="591" y="22" type="curve" smooth="yes"/>
      <point x="592" y="35"/>
      <point x="580" y="43"/>
      <point x="564" y="45" type="curve" smooth="yes"/>
      <point x="482" y="53" type="line" smooth="yes"/>
      <point x="443" y="57"/>
      <point x="433" y="76"/>
      <point x="446" y="125" type="curve" smooth="yes"/>
      <point x="524" y="410" type="line" smooth="yes"/>
      <point x="533" y="442"/>
      <point x="547" y="462"/>
      <point x="574" y="504" type="curve" smooth="yes"/>
      <point x="986" y="1157" type="line" smooth="yes"/>
      <point x="1063" y="1279"/>
      <point x="1108" y="1324"/>
      <point x="1177" y="1335" type="curve" smooth="yes"/>
      <point x="1217" y="1341"/>
      <point x="1234" y="1355"/>
      <point x="1234" y="1381" type="curve" smooth="yes"/>
      <point x="1234" y="1405"/>
      <point x="1221" y="1423"/>
      <point x="1183" y="1423" type="curve" smooth="yes"/>
      <point x="1118" y="1423"/>
      <point x="1068" y="1372"/>
      <point x="949" y="1182" type="curve" smooth="yes"/>
    </contour>
  </outline>
</glyph>
<glyph name="Z" format="2">
  <advance width="1009"/>
  <unicode hex="005A"/>
  <anchor x="875" y="1504" name="center"/>
  <outline>
    <contour>
      <point x="635" y="0" type="line" smooth="yes"/>
      <point x="658" y="0"/>
      <point x="684" y="-26"/>
      <point x="706" y="-26" type="curve" smooth="yes"/>
      <point x="782" y="-26"/>
      <point x="913" y="132"/>
      <point x="917" y="271" type="curve" smooth="yes"/>
      <point x="917" y="283"/>
      <point x="912" y="292"/>
      <point x="902" y="292" type="curve" smooth="yes"/>
      <point x="891" y="292"/>
      <point x="883" y="283"/>
      <point x="877" y="264" type="curve" smooth="yes"/>
      <point x="826" y="100"/>
      <point x="744" y="45"/>
      <point x="624" y="45" type="curve" smooth="yes"/>
      <point x="57" y="45" type="line"/>
      <point x="64" y="30" type="line"/>
      <point x="161" y="147"/>
      <point x="1065" y="1193"/>
      <point x="1190" y="1339" type="curve" smooth="yes"/>
      <point x="1207" y="1358"/>
      <point x="1214" y="1370"/>
      <point x="1214" y="1378" type="curve" smooth="yes"/>
      <point x="1215" y="1390"/>
      <point x="1209" y="1399"/>
      <point x="1185" y="1399" type="curve" smooth="yes"/>
      <point x="631" y="1399" type="line" smooth="yes"/>
      <point x="574" y="1399"/>
      <point x="553" y="1429"/>
      <point x="525" y="1429" type="curve" smooth="yes"/>
      <point x="512" y="1429"/>
      <point x="495" y="1414"/>
      <point x="477" y="1390" type="curve" smooth="yes"/>
      <point x="355" y="1225" type="line" smooth="yes"/>
      <point x="339" y="1203"/>
      <point x="334" y="1183"/>
      <point x="348" y="1175" type="curve" smooth="yes"/>
      <point x="361" y="1168"/>
      <point x="382" y="1178"/>
      <point x="395" y="1196" type="curve" smooth="yes"/>
      <point x="484" y="1313"/>
      <point x="541" y="1354"/>
      <point x="605" y="1354" type="curve" smooth="yes"/>
      <point x="1156" y="1354" type="line"/>
      <point x="1145" y="1368" type="line"/>
      <point x="1028" y="1225"/>
      <point x="98" y="155"/>
      <point x="19" y="64" type="curve" smooth="yes"/>
      <point x="4" y="46"/>
      <point x="-3" y="38"/>
      <point x="-3" y="20" type="curve" smooth="yes"/>
      <point x="-3" y="7"/>
      <point x="6" y="0"/>
      <point x="29" y="0" type="curve" smooth="yes"/>
    </contour>
  </outline>
</glyph>
<glyph name="asciicircum" format="2">
  <advance width="718"/>
  <unicode hex="005E"/>
  <outline>
    <contour>
      <point x="633" y="1366" type="line"/>
      <point x="196" y="807" type="line" smooth="yes"/>
      <point x="183" y="790"/>
      <point x="174" y="786"/>
      <point x="166" y="786" type="curve" smooth="yes"/>
      <point x="143" y="786"/>
      <point x="149" y="820"/>
      <point x="178" y="856" type="curve" smooth="yes"/>
      <point x="574" y="1376" type="line" smooth="yes"/>
      <point x="600" y="1411"/>
      <point x="611" y="1419"/>
      <point x="626" y="1419" type="curve" smooth="yes"/>
      <point x="642" y="1419"/>
      <point x="648" y="1411"/>
      <point x="657" y="1376" type="curve" smooth="yes"/>
      <point x="777" y="844" type="line" smooth="yes"/>
      <point x="784" y="813"/>
      <point x="777.0" y="786.0"/>
      <point x="761" y="786" type="curve" smooth="yes"/>
      <point x="751" y="786"/>
      <point x="742" y="790"/>
      <point x="738" y="807" type="curve" smooth="yes"/>
      <point x="602" y="1366" type="line"/>
    </contour>
  </outline>
</glyph>
<glyph name="underscore" format="2">
  <advance width="721"/>
  <unicode hex="005F"/>
  <outline>
    <contour>
      <point x="-35" y="-117" type="curve" smooth="yes"/>
      <point x="-38.0" y="-129"/>
      <point x="-33" y="-137"/>
      <point x="-23" y="-137" type="curve" smooth="yes"/>
      <point x="652" y="-137" type="line" smooth="yes"/>
      <point x="664" y="-137"/>
      <point x="670" y="-129"/>
      <point x="671" y="-117" type="curve" smooth="yes"/>
      <point x="674.0" y="-103"/>
      <point x="670" y="-95"/>
      <point x="659" y="-95" type="curve" smooth="yes"/>
      <point x="-16" y="-95" type="line" smooth="yes"/>
      <point x="-27" y="-95"/>
      <point x="-33" y="-103"/>
    </contour>
  </outline>
</glyph>
<glyph name="a" format="2">
  <advance width="801"/>
  <unicode hex="0061"/>
  <anchor x="584" y="1010.0" name="center"/>
  <outline>
    <contour>
      <point x="573" y="173" type="curve" smooth="yes"/>
      <point x="716" y="720" type="line" smooth="yes"/>
      <point x="723" y="748"/>
      <point x="750" y="772"/>
      <point x="750" y="800" type="curve" smooth="yes"/>
      <point x="749" y="841"/>
      <point x="691" y="865"/>
      <point x="609" y="865" type="curve" smooth="yes"/>
      <point x="351" y="865"/>
      <point x="114" y="603"/>
      <point x="51" y="303" type="curve" smooth="yes"/>
      <point x="8" y="99"/>
      <point x="64" y="-15"/>
      <point x="182" y="-15" type="curve" smooth="yes"/>
      <point x="323" y="-15"/>
      <point x="477" y="146"/>
      <point x="631" y="488" type="curve"/>
      <point x="613" y="486" type="line"/>
      <point x="517" y="189"/>
      <point x="502" y="108"/>
      <point x="502" y="62" type="curve" smooth="yes"/>
      <point x="502" y="13"/>
      <point x="531" y="-15"/>
      <point x="578" y="-15" type="curve" smooth="yes"/>
      <point x="637" y="-15"/>
      <point x="685" y="16"/>
      <point x="729" y="82" type="curve" smooth="yes"/>
      <point x="739" y="97"/>
      <point x="742" y="114"/>
      <point x="733" y="121" type="curve" smooth="yes"/>
      <point x="723" y="126"/>
      <point x="710" y="124"/>
      <point x="694" y="103" type="curve" smooth="yes"/>
      <point x="650" y="46"/>
      <point x="620" y="28"/>
      <point x="589" y="28" type="curve" smooth="yes"/>
      <point x="558" y="28"/>
      <point x="543" y="59"/>
    </contour>
    <contour>
      <point x="113" y="28"/>
      <point x="65" y="130"/>
      <point x="101" y="295" type="curve" smooth="yes"/>
      <point x="168" y="599"/>
      <point x="390" y="822"/>
      <point x="579" y="822" type="curve" smooth="yes"/>
      <point x="655" y="822"/>
      <point x="674" y="808"/>
      <point x="670" y="772" type="curve" smooth="yes"/>
      <point x="648" y="548"/>
      <point x="396" y="28"/>
      <point x="196" y="28" type="curve" smooth="yes"/>
    </contour>
  </outline>
</glyph>
<glyph name="g" format="2">
  <advance width="734"/>
  <unicode hex="0067"/>
  <anchor x="554" y="1010.0" name="center"/>
  <outline>
    <contour>
      <point x="510" y="-42" type="curve" smooth="yes"/>
      <point x="710" y="720" type="line" smooth="yes"/>
      <point x="717" y="748"/>
      <point x="744" y="772"/>
      <point x="744" y="800" type="curve" smooth="yes"/>
      <point x="743" y="841"/>
      <point x="685" y="865"/>
      <point x="603" y="865" type="curve" smooth="yes"/>
      <point x="345" y="865"/>
      <point x="98" y="603"/>
      <point x="35" y="303" type="curve" smooth="yes"/>
      <point x="-8" y="99"/>
      <point x="48" y="-15"/>
      <point x="166" y="-15" type="curve" smooth="yes"/>
      <point x="312" y="-15"/>
      <point x="468" y="147"/>
      <point x="641" y="492" type="curve"/>
      <point x="606" y="486" type="line"/>
      <point x="455" y="-55" type="line" smooth="yes"/>
      <point x="387" y="-297"/>
      <point x="223" y="-437"/>
      <point x="41" y="-437" type="curve" smooth="yes"/>
      <point x="-33" y="-437"/>
      <point x="-71" y="-396"/>
      <point x="-117" y="-396" type="curve" smooth="yes"/>
      <point x="-147" y="-396"/>
      <point x="-166" y="-409"/>
      <point x="-166" y="-432" type="curve" smooth="yes"/>
      <point x="-166" y="-463"/>
      <point x="-125" y="-490"/>
      <point x="-21" y="-490" type="curve" smooth="yes"/>
      <point x="237" y="-490"/>
      <point x="435" y="-329"/>
    </contour>
    <contour>
      <point x="92" y="28"/>
      <point x="51" y="136"/>
      <point x="85" y="295" type="curve" smooth="yes"/>
      <point x="150" y="599"/>
      <point x="384" y="822"/>
      <point x="573" y="822" type="curve" smooth="yes"/>
      <point x="632" y="822"/>
      <point x="669" y="803"/>
      <point x="666" y="756" type="curve" smooth="yes"/>
      <point x="653" y="531"/>
      <point x="381" y="28"/>
      <point x="180" y="28" type="curve" smooth="yes"/>
    </contour>
  </outline>
</glyph>
<glyph name="h" format="2">
  <advance width="828"/>
  <unicode hex="0068"/>
  <anchor x="318" y="980" name="center"/>
  <outline>
    <contour>
      <point x="162" y="270" type="curve" smooth="yes"/>
      <point x="131" y="157"/>
      <point x="125" y="127"/>
      <point x="125" y="106" type="curve" smooth="yes"/>
      <point x="125" y="74"/>
      <point x="133" y="55"/>
      <point x="133" y="29" type="curve" smooth="yes"/>
      <point x="133" y="1"/>
      <point x="105" y="-15"/>
      <point x="73" y="-15" type="curve" smooth="yes"/>
      <point x="36" y="-15"/>
      <point x="35" y="13"/>
      <point x="65" y="121" type="curve" smooth="yes"/>
      <point x="315" y="1014" type="line" smooth="yes"/>
      <point x="403" y="1327"/>
      <point x="590" y="1438"/>
      <point x="825" y="1438" type="curve" smooth="yes"/>
      <point x="906" y="1438"/>
      <point x="929" y="1413"/>
      <point x="929" y="1391" type="curve" smooth="yes"/>
      <point x="929" y="1364"/>
      <point x="910" y="1351"/>
      <point x="872" y="1351" type="curve" smooth="yes"/>
      <point x="833" y="1351"/>
      <point x="786" y="1376"/>
      <point x="719" y="1376" type="curve" smooth="yes"/>
      <point x="568" y="1376"/>
      <point x="436" y="1269"/>
      <point x="365" y="1018" type="curve" smooth="yes"/>
      <point x="184" y="377" type="line"/>
      <point x="159" y="377" type="line"/>
      <point x="303" y="733"/>
      <point x="507.0" y="865.0"/>
      <point x="642" y="865" type="curve" smooth="yes"/>
      <point x="756" y="865"/>
      <point x="776" y="780"/>
      <point x="722" y="617" type="curve" smooth="yes"/>
      <point x="575" y="170" type="line" smooth="yes"/>
      <point x="543" y="73"/>
      <point x="544" y="28"/>
      <point x="588" y="28" type="curve" smooth="yes"/>
      <point x="617" y="28"/>
      <point x="655" y="45"/>
      <point x="701" y="104" type="curve" smooth="yes"/>
      <point x="716" y="122"/>
      <point x="728" y="129"/>
      <point x="738" y="121" type="curve" smooth="yes"/>
      <point x="748" y="113"/>
      <point x="746" y="99"/>
      <point x="734" y="82" type="curve" smooth="yes"/>
      <point x="690" y="17"/>
      <point x="635" y="-15"/>
      <point x="575" y="-15" type="curve" smooth="yes"/>
      <point x="507" y="-15"/>
      <point x="484" y="40"/>
      <point x="519" y="148" type="curve" smooth="yes"/>
      <point x="675" y="630" type="line" smooth="yes"/>
      <point x="723" y="777"/>
      <point x="696" y="822"/>
      <point x="627" y="822" type="curve" smooth="yes"/>
      <point x="497" y="822"/>
      <point x="257" y="621"/>
    </contour>
  </outline>
</glyph>
<glyph name="i" format="2">
  <advance width="412"/>
  <unicode hex="0069"/>
  <outline>
    <contour>
      <point x="148" y="159" type="curve" smooth="yes"/>
      <point x="333" y="695" type="line" smooth="yes"/>
      <point x="371" y="804"/>
      <point x="343" y="865"/>
      <point x="275" y="865" type="curve" smooth="yes"/>
      <point x="218" y="865"/>
      <point x="157" y="828"/>
      <point x="119" y="768" type="curve" smooth="yes"/>
      <point x="109" y="754"/>
      <point x="106" y="738"/>
      <point x="116" y="731" type="curve" smooth="yes"/>
      <point x="128" y="724"/>
      <point x="138" y="729"/>
      <point x="150" y="744" type="curve" smooth="yes"/>
      <point x="196" y="803"/>
      <point x="227" y="822"/>
      <point x="262" y="822" type="curve" smooth="yes"/>
      <point x="306" y="822"/>
      <point x="311" y="774"/>
      <point x="282" y="691" type="curve" smooth="yes"/>
      <point x="98" y="159" type="line" smooth="yes"/>
      <point x="58" y="43"/>
      <point x="87" y="-15"/>
      <point x="155" y="-15" type="curve" smooth="yes"/>
      <point x="209" y="-15"/>
      <point x="267" y="14"/>
      <point x="309" y="80" type="curve" smooth="yes"/>
      <point x="319" y="95"/>
      <point x="322" y="113"/>
      <point x="313" y="119" type="curve" smooth="yes"/>
      <point x="304" y="124"/>
      <point x="292" y="121"/>
      <point x="278" y="102" type="curve" smooth="yes"/>
      <point x="235" y="45"/>
      <point x="197" y="28"/>
      <point x="168" y="28" type="curve" smooth="yes"/>
      <point x="124" y="28"/>
      <point x="119" y="75"/>
    </contour>
    <contour>
      <point x="367" y="1082" type="curve" smooth="yes"/>
      <point x="409" y="1082"/>
      <point x="435" y="1126"/>
      <point x="435" y="1162" type="curve" smooth="yes"/>
      <point x="435" y="1197"/>
      <point x="413" y="1216"/>
      <point x="387" y="1216" type="curve" smooth="yes"/>
      <point x="345" y="1216"/>
      <point x="319" y="1172"/>
      <point x="319" y="1136" type="curve" smooth="yes"/>
      <point x="319" y="1101"/>
      <point x="341" y="1082"/>
    </contour>
  </outline>
</glyph>
<glyph name="j" format="2">
  <advance width="345"/>
  <unicode hex="006A"/>
  <outline>
    <contour>
      <point x="302" y="695" type="line" smooth="yes"/>
      <point x="334" y="807"/>
      <point x="312" y="865"/>
      <point x="244" y="865" type="curve" smooth="yes"/>
      <point x="180" y="865"/>
      <point x="118" y="815"/>
      <point x="88" y="768" type="curve" smooth="yes"/>
      <point x="78" y="753"/>
      <point x="75" y="735"/>
      <point x="84" y="729" type="curve" smooth="yes"/>
      <point x="94" y="724"/>
      <point x="109" y="725"/>
      <point x="124" y="746" type="curve" smooth="yes"/>
      <point x="161" y="801"/>
      <point x="197" y="822"/>
      <point x="231" y="822" type="curve" smooth="yes"/>
      <point x="275" y="822"/>
      <point x="275" y="775"/>
      <point x="251" y="691" type="curve" smooth="yes"/>
      <point x="45" y="-27" type="line" smooth="yes"/>
      <point x="6" y="-162"/>
      <point x="-13" y="-271"/>
      <point x="-37" y="-329" type="curve" smooth="yes"/>
      <point x="-65" y="-397"/>
      <point x="-103" y="-419"/>
      <point x="-155" y="-419" type="curve" smooth="yes"/>
      <point x="-198" y="-419"/>
      <point x="-211" y="-402"/>
      <point x="-244" y="-402" type="curve" smooth="yes"/>
      <point x="-277" y="-402"/>
      <point x="-290" y="-422"/>
      <point x="-290" y="-442" type="curve" smooth="yes"/>
      <point x="-290" y="-467"/>
      <point x="-268" y="-490"/>
      <point x="-220" y="-490" type="curve" smooth="yes"/>
      <point x="-100" y="-490"/>
      <point x="-19" y="-421"/>
      <point x="30" y="-251" type="curve" smooth="yes"/>
    </contour>
    <contour>
      <point x="336" y="1082" type="curve" smooth="yes"/>
      <point x="378" y="1082"/>
      <point x="404" y="1126"/>
      <point x="404" y="1162" type="curve" smooth="yes"/>
      <point x="404" y="1197"/>
      <point x="382" y="1216"/>
      <point x="356" y="1216" type="curve" smooth="yes"/>
      <point x="314" y="1216"/>
      <point x="288" y="1172"/>
      <point x="288" y="1136" type="curve" smooth="yes"/>
      <point x="288" y="1101"/>
      <point x="310" y="1082"/>
    </contour>
  </outline>
</glyph>
<glyph name="l" format="2">
  <advance width="403"/>
  <unicode hex="006C"/>
  <anchor x="90" y="1593" name="center"/>
  <anchor x="425" y="1098" name="right"/>
  <outline>
    <contour>
      <point x="637" y="1438" type="curve" smooth="yes"/>
      <point x="517" y="1438"/>
      <point x="426" y="1367"/>
      <point x="373" y="1187" type="curve" smooth="yes"/>
      <point x="72" y="159" type="line" smooth="yes"/>
      <point x="34" y="29"/>
      <point x="58" y="-15"/>
      <point x="126" y="-15" type="curve" smooth="yes"/>
      <point x="192" y="-15"/>
      <point x="244" y="12"/>
      <point x="297" y="90" type="curve" smooth="yes"/>
      <point x="305" y="102"/>
      <point x="307" y="117"/>
      <point x="297" y="123" type="curve" smooth="yes"/>
      <point x="287" y="129"/>
      <point x="275" y="125"/>
      <point x="262" y="106" type="curve" smooth="yes"/>
      <point x="214" y="44"/>
      <point x="178" y="28"/>
      <point x="145" y="28" type="curve" smooth="yes"/>
      <point x="108" y="28"/>
      <point x="93" y="59"/>
      <point x="122" y="160" type="curve" smooth="yes"/>
      <point x="394" y="1089" type="line" smooth="yes"/>
      <point x="421" y="1186"/>
      <point x="435" y="1245"/>
      <point x="474" y="1306" type="curve" smooth="yes"/>
      <point x="503" y="1350"/>
      <point x="532" y="1375"/>
      <point x="571" y="1375" type="curve" smooth="yes"/>
      <point x="621" y="1375"/>
      <point x="638" y="1350"/>
      <point x="680" y="1350" type="curve" smooth="yes"/>
      <point x="711" y="1350"/>
      <point x="724" y="1371"/>
      <point x="724" y="1391" type="curve" smooth="yes"/>
      <point x="724" y="1416"/>
      <point x="696" y="1438"/>
    </contour>
  </outline>
</glyph>
<glyph name="m" format="2">
  <advance width="1240"/>
  <unicode hex="006D"/>
  <anchor x="473" y="980" name="center"/>
  <outline>
    <contour>
      <point x="491" y="121" type="line" smooth="yes"/>
      <point x="454" y="15"/>
      <point x="461" y="-15"/>
      <point x="498" y="-15" type="curve" smooth="yes"/>
      <point x="530" y="-15"/>
      <point x="558" y="1"/>
      <point x="558" y="29" type="curve" smooth="yes"/>
      <point x="558" y="55"/>
      <point x="550" y="74"/>
      <point x="550" y="106" type="curve" smooth="yes"/>
      <point x="550" y="127"/>
      <point x="556" y="156"/>
      <point x="593" y="270" type="curve" smooth="yes"/>
      <point x="705" y="615"/>
      <point x="920" y="822"/>
      <point x="1047" y="822" type="curve" smooth="yes"/>
      <point x="1109" y="822"/>
      <point x="1137" y="776"/>
      <point x="1090" y="630" type="curve" smooth="yes"/>
      <point x="934" y="148" type="line" smooth="yes"/>
      <point x="899" y="40"/>
      <point x="922" y="-15"/>
      <point x="990" y="-15" type="curve" smooth="yes"/>
      <point x="1051" y="-15"/>
      <point x="1109" y="28"/>
      <point x="1149" y="87" type="curve" smooth="yes"/>
      <point x="1157" y="99"/>
      <point x="1159" y="113"/>
      <point x="1151" y="119" type="curve" smooth="yes"/>
      <point x="1144" y="124"/>
      <point x="1135" y="121"/>
      <point x="1121" y="106" type="curve" smooth="yes"/>
      <point x="1067" y="47"/>
      <point x="1036" y="28"/>
      <point x="1003" y="28" type="curve" smooth="yes"/>
      <point x="959" y="28"/>
      <point x="958" y="73"/>
      <point x="990" y="170" type="curve" smooth="yes"/>
      <point x="1137" y="617" type="line" smooth="yes"/>
      <point x="1190" y="779"/>
      <point x="1169" y="865"/>
      <point x="1062" y="865" type="curve" smooth="yes"/>
      <point x="933" y="865"/>
      <point x="712" y="713"/>
      <point x="571" y="309" type="curve"/>
      <point x="571" y="300" type="line"/>
      <point x="736" y="640"/>
      <point x="749" y="698"/>
      <point x="749" y="756" type="curve"/>
      <point x="749" y="826"/>
      <point x="714" y="865"/>
      <point x="643" y="865" type="curve" smooth="yes"/>
      <point x="514" y="865"/>
      <point x="292" y="713"/>
      <point x="151" y="309" type="curve"/>
      <point x="172" y="307" type="line"/>
      <point x="321" y="684"/>
      <point x="342" y="736"/>
      <point x="342" y="788" type="curve" smooth="yes"/>
      <point x="342" y="840"/>
      <point x="316" y="865"/>
      <point x="267" y="865" type="curve" smooth="yes"/>
      <point x="205" y="865"/>
      <point x="140" y="819"/>
      <point x="99" y="759" type="curve" smooth="yes"/>
      <point x="92" y="749"/>
      <point x="93" y="736"/>
      <point x="101" y="731" type="curve" smooth="yes"/>
      <point x="109" y="726"/>
      <point x="120" y="727"/>
      <point x="132" y="741" type="curve" smooth="yes"/>
      <point x="176" y="795"/>
      <point x="215" y="822"/>
      <point x="254" y="822" type="curve" smooth="yes"/>
      <point x="298" y="822"/>
      <point x="301" y="777"/>
      <point x="267" y="680" type="curve" smooth="yes"/>
      <point x="71" y="121" type="line" smooth="yes"/>
      <point x="34" y="15"/>
      <point x="41" y="-15"/>
      <point x="78" y="-15" type="curve" smooth="yes"/>
      <point x="110" y="-15"/>
      <point x="138" y="1"/>
      <point x="138" y="29" type="curve" smooth="yes"/>
      <point x="138" y="55"/>
      <point x="130" y="74"/>
      <point x="130" y="106" type="curve" smooth="yes"/>
      <point x="130" y="127"/>
      <point x="136" y="156"/>
      <point x="173" y="270" type="curve" smooth="yes"/>
      <point x="285" y="615"/>
      <point x="501" y="822"/>
      <point x="628" y="822" type="curve" smooth="yes"/>
      <point x="690" y="822"/>
      <point x="722" y="775"/>
      <point x="671" y="630" type="curve" smooth="yes"/>
    </contour>
  </outline>
</glyph>
<glyph name="o" format="2">
  <advance width="759"/>
  <unicode hex="006F"/>
  <anchor x="526" y="1000" name="center"/>
  <outline>
    <contour>
      <point x="470" y="865" type="curve" smooth="yes"/>
      <point x="288" y="865"/>
      <point x="126" y="712"/>
      <point x="61" y="437" type="curve" smooth="yes"/>
      <point x="-4" y="159"/>
      <point x="103" y="-15"/>
      <point x="287" y="-15" type="curve" smooth="yes"/>
      <point x="455" y="-15"/>
      <point x="626" y="115"/>
      <point x="699" y="413" type="curve" smooth="yes"/>
      <point x="762" y="670"/>
      <point x="665" y="865"/>
    </contour>
    <contour>
      <point x="301" y="28" type="curve" smooth="yes"/>
      <point x="152" y="28"/>
      <point x="49" y="154"/>
      <point x="113" y="434" type="curve" smooth="yes"/>
      <point x="174" y="699"/>
      <point x="329" y="822"/>
      <point x="459" y="822" type="curve" smooth="yes"/>
      <point x="597" y="822"/>
      <point x="713" y="692"/>
      <point x="647" y="416" type="curve" smooth="yes"/>
      <point x="582" y="146"/>
      <point x="434" y="28"/>
    </contour>
  </outline>
</glyph>
<glyph name="p" format="2">
  <advance width="764"/>
  <unicode hex="0070"/>
  <outline>
    <contour>
      <point x="380" y="992" type="line" smooth="yes"/>
      <point x="386" y="1013"/>
      <point x="383" y="1026"/>
      <point x="368" y="1026" type="curve" smooth="yes"/>
      <point x="349" y="1026"/>
      <point x="335" y="1008"/>
      <point x="325" y="974" type="curve" smooth="yes"/>
      <point x="-71" y="-371" type="line" smooth="yes"/>
      <point x="-85" y="-419"/>
      <point x="-107" y="-436"/>
      <point x="-177" y="-447" type="curve" smooth="yes"/>
      <point x="-216" y="-453"/>
      <point x="-223" y="-459"/>
      <point x="-223" y="-471" type="curve" smooth="yes"/>
      <point x="-223" y="-483"/>
      <point x="-212" y="-491"/>
      <point x="-172" y="-490" type="curve" smooth="yes"/>
      <point x="74" y="-486" type="line" smooth="yes"/>
      <point x="94" y="-486"/>
      <point x="105" y="-479"/>
      <point x="105" y="-467" type="curve" smooth="yes"/>
      <point x="105" y="-455"/>
      <point x="95" y="-447"/>
      <point x="74" y="-445" type="curve" smooth="yes"/>
      <point x="9" y="-438" type="line" smooth="yes"/>
      <point x="-22" y="-435"/>
      <point x="-33" y="-414"/>
      <point x="-21" y="-373" type="curve" smooth="yes"/>
    </contour>
    <contour>
      <point x="132" y="666" type="curve" smooth="yes"/>
      <point x="204.0810874760055" y="775.151361035094"/>
      <point x="302.69" y="829.0"/>
      <point x="435" y="829" type="curve" smooth="yes"/>
      <point x="583.9220183486239" y="829.0"/>
      <point x="689.577904515574" y="712.0749677380217"/>
      <point x="650" y="433" type="curve" smooth="yes"/>
      <point x="615" y="190"/>
      <point x="475" y="29"/>
      <point x="329" y="29" type="curve" smooth="yes"/>
      <point x="219" y="29"/>
      <point x="163" y="78"/>
      <point x="126" y="160" type="curve"/>
      <point x="90" y="144" type="line"/>
      <point x="131" y="28"/>
      <point x="213" y="-14"/>
      <point x="325" y="-14" type="curve" smooth="yes"/>
      <point x="500" y="-15"/>
      <point x="665" y="155"/>
      <point x="703" y="425" type="curve" smooth="yes"/>
      <point x="746.5643267387112" y="734.0027826815566"/>
      <point x="626.8783269961978" y="872.0"/>
      <point x="443" y="872" type="curve" smooth="yes"/>
      <point x="289.70454545454544" y="872.0"/>
      <point x="174.12722812638026" y="813.292138767017"/>
      <point x="88" y="680" type="curve" smooth="yes"/>
      <point x="77" y="663"/>
      <point x="81" y="645"/>
      <point x="93" y="641" type="curve" smooth="yes"/>
      <point x="106" y="636"/>
      <point x="118" y="644"/>
    </contour>
  </outline>
</glyph>
<glyph name="q" format="2">
  <advance width="748"/>
  <unicode hex="0071"/>
  <outline>
    <contour>
      <point x="620" y="486" type="line"/>
      <point x="374" y="-367" type="line" smooth="yes"/>
      <point x="359" y="-417"/>
      <point x="332" y="-438"/>
      <point x="225" y="-449" type="curve" smooth="yes"/>
      <point x="188" y="-453"/>
      <point x="179" y="-460"/>
      <point x="179" y="-472" type="curve" smooth="yes"/>
      <point x="179" y="-484"/>
      <point x="191" y="-492"/>
      <point x="231" y="-490" type="curve" smooth="yes"/>
      <point x="520" y="-479" type="line" smooth="yes"/>
      <point x="540" y="-478"/>
      <point x="551" y="-471"/>
      <point x="551" y="-459" type="curve" smooth="yes"/>
      <point x="551" y="-447"/>
      <point x="540" y="-440"/>
      <point x="519" y="-438" type="curve" smooth="yes"/>
      <point x="454" y="-433" type="line" smooth="yes"/>
      <point x="423" y="-431"/>
      <point x="412" y="-410"/>
      <point x="424" y="-368" type="curve" smooth="yes"/>
      <point x="726" y="720" type="line" smooth="yes"/>
      <point x="735" y="748"/>
      <point x="761" y="772"/>
      <point x="761" y="800" type="curve" smooth="yes"/>
      <point x="760" y="841"/>
      <point x="703" y="865"/>
      <point x="621" y="865" type="curve" smooth="yes"/>
      <point x="353" y="865"/>
      <point x="103" y="603"/>
      <point x="38" y="303" type="curve" smooth="yes"/>
      <point x="-7" y="99"/>
      <point x="48" y="-15"/>
      <point x="166" y="-15" type="curve" smooth="yes"/>
      <point x="318" y="-15"/>
      <point x="478" y="144"/>
      <point x="655" y="492" type="curve"/>
    </contour>
    <contour>
      <point x="92" y="28"/>
      <point x="52" y="136"/>
      <point x="88" y="295" type="curve" smooth="yes"/>
      <point x="155" y="600"/>
      <point x="393" y="822"/>
      <point x="590" y="822" type="curve" smooth="yes"/>
      <point x="643" y="822"/>
      <point x="673" y="803"/>
      <point x="673" y="756" type="curve" smooth="yes"/>
      <point x="671" y="531"/>
      <point x="386" y="28"/>
      <point x="180" y="28" type="curve" smooth="yes"/>
    </contour>
  </outline>
</glyph>
<glyph name="r" format="2">
  <advance width="636"/>
  <unicode hex="0072"/>
  <anchor x="464" y="945" name="center"/>
  <outline>
    <contour>
      <point x="110" y="729" type="curve" smooth="yes"/>
      <point x="119" y="723"/>
      <point x="129" y="727"/>
      <point x="142" y="741" type="curve" smooth="yes"/>
      <point x="194" y="801"/>
      <point x="224" y="822"/>
      <point x="252" y="822" type="curve" smooth="yes"/>
      <point x="296" y="822"/>
      <point x="298" y="777"/>
      <point x="265" y="680" type="curve" smooth="yes"/>
      <point x="74" y="121" type="line" smooth="yes"/>
      <point x="38" y="15"/>
      <point x="44" y="-15"/>
      <point x="84" y="-15" type="curve" smooth="yes"/>
      <point x="120" y="-15"/>
      <point x="155" y="1"/>
      <point x="155" y="29" type="curve" smooth="yes"/>
      <point x="155" y="55"/>
      <point x="133" y="56"/>
      <point x="133" y="106" type="curve" smooth="yes"/>
      <point x="133" y="127"/>
      <point x="137" y="156"/>
      <point x="174" y="270" type="curve" smooth="yes"/>
      <point x="284.736" y="610.191"/>
      <point x="456.732" y="822"/>
      <point x="563" y="822" type="curve" smooth="yes"/>
      <point x="593" y="822"/>
      <point x="610" y="812"/>
      <point x="610" y="790" type="curve" smooth="yes"/>
      <point x="610" y="760"/>
      <point x="601" y="747"/>
      <point x="601" y="726" type="curve" smooth="yes"/>
      <point x="601" y="703"/>
      <point x="612" y="688"/>
      <point x="633" y="688" type="curve" smooth="yes"/>
      <point x="660" y="688"/>
      <point x="679" y="712"/>
      <point x="679" y="760" type="curve" smooth="yes"/>
      <point x="679" y="827"/>
      <point x="644" y="865"/>
      <point x="578" y="865" type="curve" smooth="yes"/>
      <point x="471.517" y="865"/>
      <point x="289.711" y="718.101"/>
      <point x="155" y="299" type="curve"/>
      <point x="175" y="307" type="line"/>
      <point x="324" y="683"/>
      <point x="340" y="736"/>
      <point x="340" y="788" type="curve" smooth="yes"/>
      <point x="340" y="840"/>
      <point x="314" y="865"/>
      <point x="265" y="865" type="curve" smooth="yes"/>
      <point x="207" y="865"/>
      <point x="148" y="819"/>
      <point x="109" y="759" type="curve" smooth="yes"/>
      <point x="101" y="746"/>
      <point x="101" y="735"/>
    </contour>
  </outline>
</glyph>
<glyph name="s" format="2">
  <advance width="588"/>
  <unicode hex="0073"/>
  <anchor x="435" y="1004" name="center"/>
  <outline>
    <contour>
      <point x="241" y="24" type="curve" smooth="yes"/>
      <point x="160" y="24"/>
      <point x="94" y="57"/>
      <point x="70" y="134" type="curve" smooth="yes"/>
      <point x="61" y="164"/>
      <point x="47" y="173"/>
      <point x="32" y="173" type="curve"/>
      <point x="14" y="173"/>
      <point x="0" y="158"/>
      <point x="0" y="134" type="curve" smooth="yes"/>
      <point x="0" y="66"/>
      <point x="96" y="-15"/>
      <point x="229" y="-15" type="curve" smooth="yes"/>
      <point x="379" y="-15"/>
      <point x="463" y="75"/>
      <point x="463" y="186" type="curve" smooth="yes"/>
      <point x="463" y="253"/>
      <point x="441" y="306"/>
      <point x="316" y="425" type="curve" smooth="yes"/>
      <point x="209" y="528"/>
      <point x="188" y="592"/>
      <point x="188" y="653" type="curve" smooth="yes"/>
      <point x="188" y="750"/>
      <point x="267" y="827"/>
      <point x="387" y="827" type="curve" smooth="yes"/>
      <point x="455" y="827"/>
      <point x="494" y="809"/>
      <point x="518" y="762" type="curve" smooth="yes"/>
      <point x="536" y="727"/>
      <point x="550" y="717"/>
      <point x="569" y="717" type="curve" smooth="yes"/>
      <point x="589" y="717"/>
      <point x="601" y="728"/>
      <point x="601" y="752" type="curve" smooth="yes"/>
      <point x="601" y="806"/>
      <point x="527" y="865"/>
      <point x="394" y="865" type="curve" smooth="yes"/>
      <point x="238" y="865"/>
      <point x="136" y="768"/>
      <point x="135" y="643" type="curve" smooth="yes"/>
      <point x="135" y="557"/>
      <point x="161" y="502"/>
      <point x="281" y="384" type="curve" smooth="yes"/>
      <point x="385" y="282"/>
      <point x="410" y="231"/>
      <point x="410" y="174" type="curve" smooth="yes"/>
      <point x="410" y="97"/>
      <point x="349" y="24"/>
    </contour>
  </outline>
</glyph>
<glyph name="u" format="2">
  <advance width="830"/>
  <unicode hex="0075"/>
  <anchor x="560" y="1016.0" name="center"/>
  <outline>
    <contour>
      <point x="734" y="120" type="curve" smooth="yes"/>
      <point x="726" y="127"/>
      <point x="714" y="123"/>
      <point x="699" y="105" type="curve" smooth="yes"/>
      <point x="649" y="44"/>
      <point x="615" y="28"/>
      <point x="582" y="28" type="curve" smooth="yes"/>
      <point x="538" y="28"/>
      <point x="535" y="73"/>
      <point x="569" y="170" type="curve" smooth="yes"/>
      <point x="765" y="729" type="line" smooth="yes"/>
      <point x="802" y="835"/>
      <point x="795" y="865"/>
      <point x="758" y="865" type="curve" smooth="yes"/>
      <point x="726" y="865"/>
      <point x="698" y="849"/>
      <point x="698" y="821" type="curve" smooth="yes"/>
      <point x="698" y="795"/>
      <point x="706" y="776"/>
      <point x="706" y="744" type="curve" smooth="yes"/>
      <point x="706" y="723"/>
      <point x="700" y="694"/>
      <point x="663" y="580" type="curve" smooth="yes"/>
      <point x="551" y="235"/>
      <point x="336" y="28"/>
      <point x="209" y="28" type="curve" smooth="yes"/>
      <point x="140" y="28"/>
      <point x="113" y="73"/>
      <point x="161" y="220" type="curve" smooth="yes"/>
      <point x="317" y="702" type="line" smooth="yes"/>
      <point x="352" y="810"/>
      <point x="329" y="865"/>
      <point x="261" y="865" type="curve" smooth="yes"/>
      <point x="199" y="865"/>
      <point x="133" y="820"/>
      <point x="101" y="768" type="curve" smooth="yes"/>
      <point x="92" y="753"/>
      <point x="88" y="736"/>
      <point x="98" y="730" type="curve" smooth="yes"/>
      <point x="108" y="723"/>
      <point x="118" y="729"/>
      <point x="139" y="753" type="curve" smooth="yes"/>
      <point x="183" y="803"/>
      <point x="213" y="822"/>
      <point x="248" y="822" type="curve" smooth="yes"/>
      <point x="292" y="822"/>
      <point x="293" y="777"/>
      <point x="261" y="680" type="curve" smooth="yes"/>
      <point x="114" y="233" type="line" smooth="yes"/>
      <point x="60" y="70"/>
      <point x="80" y="-15"/>
      <point x="194" y="-15" type="curve" smooth="yes"/>
      <point x="323" y="-15"/>
      <point x="544" y="137"/>
      <point x="685" y="541" type="curve"/>
      <point x="664" y="543" type="line"/>
      <point x="515" y="166"/>
      <point x="494" y="114"/>
      <point x="494" y="62" type="curve" smooth="yes"/>
      <point x="494" y="10"/>
      <point x="520" y="-15"/>
      <point x="569" y="-15" type="curve" smooth="yes"/>
      <point x="635" y="-15"/>
      <point x="697" y="28"/>
      <point x="732" y="84" type="curve" smooth="yes"/>
      <point x="740" y="97"/>
      <point x="742" y="113"/>
    </contour>
  </outline>
</glyph>
<glyph name="v" format="2">
  <advance width="810"/>
  <unicode hex="0076"/>
  <outline>
    <contour>
      <point x="759" y="715" type="curve" smooth="yes"/>
      <point x="759" y="828"/>
      <point x="724" y="865"/>
      <point x="685" y="865" type="curve" smooth="yes"/>
      <point x="661" y="865"/>
      <point x="643" y="847"/>
      <point x="643" y="824" type="curve" smooth="yes"/>
      <point x="643" y="804"/>
      <point x="652" y="788"/>
      <point x="682" y="764" type="curve" smooth="yes"/>
      <point x="705" y="745"/>
      <point x="709" y="713"/>
      <point x="709" y="649" type="curve" smooth="yes"/>
      <point x="709" y="386"/>
      <point x="504" y="28"/>
      <point x="317" y="28" type="curve" smooth="yes"/>
      <point x="240" y="28"/>
      <point x="202" y="79"/>
      <point x="202" y="177" type="curve" smooth="yes"/>
      <point x="202" y="369"/>
      <point x="361" y="533"/>
      <point x="441" y="798" type="curve" smooth="yes"/>
      <point x="456" y="848"/>
      <point x="451" y="865"/>
      <point x="435" y="865" type="curve" smooth="yes"/>
      <point x="416" y="865"/>
      <point x="407" y="837"/>
      <point x="379" y="837" type="curve" smooth="yes"/>
      <point x="334" y="837"/>
      <point x="257" y="865"/>
      <point x="194" y="865" type="curve" smooth="yes"/>
      <point x="105" y="865"/>
      <point x="50" y="794"/>
      <point x="50" y="707" type="curve" smooth="yes"/>
      <point x="50" y="653"/>
      <point x="70" y="635"/>
      <point x="93" y="635" type="curve" smooth="yes"/>
      <point x="114" y="635"/>
      <point x="133" y="651"/>
      <point x="133" y="673" type="curve" smooth="yes"/>
      <point x="133" y="684"/>
      <point x="127" y="695"/>
      <point x="121" y="704" type="curve" smooth="yes"/>
      <point x="109" y="721"/>
      <point x="107" y="728"/>
      <point x="107" y="739" type="curve" smooth="yes"/>
      <point x="107" y="786"/>
      <point x="138" y="822"/>
      <point x="187" y="822" type="curve" smooth="yes"/>
      <point x="255" y="822"/>
      <point x="339" y="790"/>
      <point x="401" y="790" type="curve"/>
      <point x="395" y="820" type="line"/>
      <point x="340" y="592"/>
      <point x="158" y="394"/>
      <point x="150" y="181" type="curve" smooth="yes"/>
      <point x="146" y="56"/>
      <point x="200" y="-15"/>
      <point x="310" y="-15" type="curve" smooth="yes"/>
      <point x="518" y="-15"/>
      <point x="759" y="321"/>
    </contour>
  </outline>
</glyph>
<glyph name="x" format="2">
  <advance width="801"/>
  <unicode hex="0078"/>
  <outline>
    <contour>
      <point x="398" y="484" type="line"/>
      <point x="265" y="123"/>
      <point x="175" y="30"/>
      <point x="107" y="30" type="curve" smooth="yes"/>
      <point x="69" y="30"/>
      <point x="54" y="51"/>
      <point x="54" y="83" type="curve" smooth="yes"/>
      <point x="54" y="110"/>
      <point x="60" y="134"/>
      <point x="61" y="154" type="curve" smooth="yes"/>
      <point x="61" y="181"/>
      <point x="47" y="198"/>
      <point x="29" y="198" type="curve" smooth="yes"/>
      <point x="1" y="198"/>
      <point x="-18" y="167"/>
      <point x="-19" y="110" type="curve" smooth="yes"/>
      <point x="-18" y="38"/>
      <point x="18" y="-14"/>
      <point x="95" y="-14" type="curve" smooth="yes"/>
      <point x="196" y="-14"/>
      <point x="287" y="88"/>
      <point x="408" y="398" type="curve"/>
    </contour>
    <contour>
      <point x="423" y="690" type="line" smooth="yes"/>
      <point x="418" y="807"/>
      <point x="378" y="865"/>
      <point x="295" y="865" type="curve" smooth="yes"/>
      <point x="223" y="865"/>
      <point x="169" y="818"/>
      <point x="140" y="751" type="curve" smooth="yes"/>
      <point x="130" y="728"/>
      <point x="129" y="713"/>
      <point x="140" y="708" type="curve" smooth="yes"/>
      <point x="152" y="703"/>
      <point x="165" y="714"/>
      <point x="175" y="733" type="curve" smooth="yes"/>
      <point x="206" y="791"/>
      <point x="238" y="822"/>
      <point x="288" y="822" type="curve" smooth="yes"/>
      <point x="348" y="822"/>
      <point x="371" y="775"/>
      <point x="375" y="690" type="curve" smooth="yes"/>
      <point x="400" y="160" type="line" smooth="yes"/>
      <point x="405" y="43"/>
      <point x="445" y="-15"/>
      <point x="528" y="-15" type="curve" smooth="yes"/>
      <point x="600" y="-15"/>
      <point x="654" y="32"/>
      <point x="683" y="99" type="curve" smooth="yes"/>
      <point x="693" y="122"/>
      <point x="694" y="137"/>
      <point x="683" y="142" type="curve" smooth="yes"/>
      <point x="671" y="147"/>
      <point x="658" y="136"/>
      <point x="648" y="117" type="curve" smooth="yes"/>
      <point x="617" y="59"/>
      <point x="585" y="28"/>
      <point x="535" y="28" type="curve" smooth="yes"/>
      <point x="475" y="28"/>
      <point x="452" y="75"/>
      <point x="448" y="160" type="curve" smooth="yes"/>
    </contour>
    <contour>
      <point x="431" y="410" type="line"/>
      <point x="551" y="738"/>
      <point x="641" y="821"/>
      <point x="705" y="821" type="curve" smooth="yes"/>
      <point x="743" y="821"/>
      <point x="758" y="800"/>
      <point x="758" y="768" type="curve" smooth="yes"/>
      <point x="758" y="741"/>
      <point x="752" y="717"/>
      <point x="751" y="697" type="curve" smooth="yes"/>
      <point x="751" y="670"/>
      <point x="765" y="653"/>
      <point x="783" y="653" type="curve" smooth="yes"/>
      <point x="811" y="653"/>
      <point x="830" y="684"/>
      <point x="831" y="741" type="curve" smooth="yes"/>
      <point x="830" y="813"/>
      <point x="794" y="865"/>
      <point x="717" y="865" type="curve" smooth="yes"/>
      <point x="621" y="865"/>
      <point x="529" y="776"/>
      <point x="421" y="496" type="curve"/>
    </contour>
  </outline>
</glyph>
<glyph name="y" format="2">
  <advance width="705"/>
  <unicode hex="0079"/>
  <anchor x="495" y="1003" name="center"/>
  <outline>
    <contour>
      <point x="541" y="610" type="curve" smooth="yes"/>
      <point x="279" y="-36" type="line"/>
      <point x="294" y="-36" type="line"/>
      <point x="282" y="230"/>
      <point x="262" y="548"/>
      <point x="249" y="766" type="curve" smooth="yes"/>
      <point x="245" y="832"/>
      <point x="222" y="865"/>
      <point x="173" y="865" type="curve" smooth="yes"/>
      <point x="122" y="865"/>
      <point x="76" y="815"/>
      <point x="59" y="763" type="curve" smooth="yes"/>
      <point x="51" y="741"/>
      <point x="54" y="733"/>
      <point x="64" y="728" type="curve" smooth="yes"/>
      <point x="74" y="723"/>
      <point x="85" y="732"/>
      <point x="96" y="753" type="curve" smooth="yes"/>
      <point x="122" y="799"/>
      <point x="139" y="822"/>
      <point x="163" y="822" type="curve" smooth="yes"/>
      <point x="187" y="822"/>
      <point x="199" y="806"/>
      <point x="203" y="739" type="curve" smooth="yes"/>
      <point x="223" y="412"/>
      <point x="243" y="128"/>
      <point x="243" y="-15" type="curve" smooth="yes"/>
      <point x="243" y="-219"/>
      <point x="69" y="-428"/>
      <point x="-80" y="-428" type="curve" smooth="yes"/>
      <point x="-153" y="-428"/>
      <point x="-189" y="-393"/>
      <point x="-224" y="-393" type="curve" smooth="yes"/>
      <point x="-253" y="-393"/>
      <point x="-269" y="-408"/>
      <point x="-269" y="-432" type="curve" smooth="yes"/>
      <point x="-269" y="-465"/>
      <point x="-228" y="-490"/>
      <point x="-149" y="-490" type="curve" smooth="yes"/>
      <point x="54" y="-490"/>
      <point x="183" y="-381"/>
      <point x="299" y="-97" type="curve" smooth="yes"/>
      <point x="585" y="605" type="line" smooth="yes"/>
      <point x="636" y="730"/>
      <point x="676" y="775"/>
      <point x="752" y="791" type="curve" smooth="yes"/>
      <point x="789" y="799"/>
      <point x="802" y="812"/>
      <point x="802" y="833" type="curve" smooth="yes"/>
      <point x="802" y="852"/>
      <point x="788" y="865"/>
      <point x="761" y="865" type="curve" smooth="yes"/>
      <point x="679" y="865"/>
      <point x="614" y="791"/>
    </contour>
  </outline>
</glyph>
<glyph name="z" format="2">
  <advance width="706"/>
  <unicode hex="007A"/>
  <anchor x="493" y="998" name="center"/>
  <outline>
    <contour>
      <point x="93" y="81" type="curve"/>
      <point x="105" y="106" type="line"/>
      <point x="202" y="106"/>
      <point x="297" y="28"/>
      <point x="421" y="28" type="curve" smooth="yes"/>
      <point x="484" y="28"/>
      <point x="535" y="63"/>
      <point x="554" y="166" type="curve" smooth="yes"/>
      <point x="556" y="179"/>
      <point x="564" y="188"/>
      <point x="575" y="187" type="curve" smooth="yes"/>
      <point x="586" y="186"/>
      <point x="590" y="176"/>
      <point x="588" y="161" type="curve" smooth="yes"/>
      <point x="574" y="66"/>
      <point x="523" y="-15"/>
      <point x="414" y="-15" type="curve" smooth="yes"/>
      <point x="285" y="-15"/>
      <point x="170" y="60"/>
      <point x="116" y="60" type="curve" smooth="yes"/>
      <point x="58" y="60"/>
      <point x="73" y="-15"/>
      <point x="24" y="-15" type="curve" smooth="yes"/>
      <point x="-2.0" y="-15"/>
      <point x="-17" y="2"/>
      <point x="-17" y="28" type="curve" smooth="yes"/>
      <point x="-17" y="56"/>
      <point x="0" y="76"/>
      <point x="40" y="96" type="curve" smooth="yes"/>
      <point x="62" y="107"/>
      <point x="97" y="160"/>
      <point x="344" y="438" type="curve" smooth="yes"/>
      <point x="532" y="649"/>
      <point x="621" y="748"/>
      <point x="644" y="789" type="curve"/>
      <point x="651" y="763" type="line"/>
      <point x="544" y="763"/>
      <point x="416" y="822"/>
      <point x="319" y="822" type="curve" smooth="yes"/>
      <point x="242" y="822"/>
      <point x="217" y="792"/>
      <point x="217" y="754" type="curve" smooth="yes"/>
      <point x="217" y="737"/>
      <point x="221" y="723"/>
      <point x="238" y="707" type="curve" smooth="yes"/>
      <point x="252" y="693"/>
      <point x="256" y="683"/>
      <point x="256" y="668" type="curve" smooth="yes"/>
      <point x="256" y="648"/>
      <point x="242" y="633"/>
      <point x="220" y="633" type="curve" smooth="yes"/>
      <point x="187" y="633"/>
      <point x="160" y="663"/>
      <point x="160" y="713" type="curve" smooth="yes"/>
      <point x="160" y="809"/>
      <point x="214" y="865"/>
      <point x="323" y="865" type="curve" smooth="yes"/>
      <point x="431" y="865"/>
      <point x="541" y="812"/>
      <point x="626" y="812" type="curve" smooth="yes"/>
      <point x="686" y="812"/>
      <point x="674" y="865"/>
      <point x="716" y="865" type="curve" smooth="yes"/>
      <point x="736" y="865"/>
      <point x="746" y="851"/>
      <point x="746" y="824" type="curve" smooth="yes"/>
      <point x="746" y="800"/>
      <point x="735" y="778"/>
      <point x="702" y="768" type="curve" smooth="yes"/>
      <point x="687" y="763"/>
      <point x="644" y="717"/>
      <point x="371" y="410" type="curve" smooth="yes"/>
      <point x="204" y="223"/>
      <point x="159" y="164"/>
    </contour>
  </outline>
</glyph>
<glyph name="bar" format="2">
  <advance width="444"/>
  <unicode hex="007C"/>
  <outline>
    <contour>
      <point x="241" y="583" type="curve" smooth="yes"/>
      <point x="190.482307835" y="414.6076927833"/>
      <point x="59.0421104825" y="-6.8627779106"/>
      <point x="1" y="-196" type="curve" smooth="yes"/>
      <point x="-6" y="-221"/>
      <point x="3" y="-236"/>
      <point x="21" y="-236" type="curve" smooth="yes"/>
      <point x="40" y="-236"/>
      <point x="58" y="-221"/>
      <point x="65" y="-196" type="curve" smooth="yes"/>
      <point x="112.0334100888" y="-36.8869743805"/>
      <point x="239.7615910358" y="401.5818734645"/>
      <point x="294" y="583" type="curve" smooth="yes"/>
      <point x="352.0772370354" y="775.2556812206"/>
      <point x="499.9336582471" y="1243.777560005"/>
      <point x="551" y="1415" type="curve" smooth="yes"/>
      <point x="558" y="1439"/>
      <point x="550" y="1455"/>
      <point x="531" y="1455" type="curve" smooth="yes"/>
      <point x="512" y="1455"/>
      <point x="494" y="1439"/>
      <point x="487" y="1415" type="curve" smooth="yes"/>
      <point x="424.9111042681" y="1212.7103719702"/>
      <point x="296.0790149148" y="762.257157632"/>
    </contour>
  </outline>
</glyph>
<glyph name="asciitilde" format="2">
  <advance width="983"/>
  <unicode hex="007E"/>
  <outline>
    <contour>
      <point x="772" y="566" type="curve" smooth="yes"/>
      <point x="921" y="566"/>
      <point x="993" y="671"/>
      <point x="1023" y="786" type="curve" smooth="yes"/>
      <point x="1030" y="814"/>
      <point x="1019" y="831"/>
      <point x="1004" y="831" type="curve" smooth="yes"/>
      <point x="986" y="831"/>
      <point x="973" y="819"/>
      <point x="964" y="792" type="curve" smooth="yes"/>
      <point x="924" y="675"/>
      <point x="857" y="616"/>
      <point x="786" y="616" type="curve" smooth="yes"/>
      <point x="645" y="616"/>
      <point x="559" y="850"/>
      <point x="396" y="850" type="curve" smooth="yes"/>
      <point x="276" y="850"/>
      <point x="182" y="745"/>
      <point x="130" y="590" type="curve" smooth="yes"/>
      <point x="123" y="569"/>
      <point x="130" y="554"/>
      <point x="145" y="554" type="curve" smooth="yes"/>
      <point x="162" y="554"/>
      <point x="176" y="564"/>
      <point x="186" y="589" type="curve" smooth="yes"/>
      <point x="228" y="706"/>
      <point x="298" y="800"/>
      <point x="383" y="800" type="curve" smooth="yes"/>
      <point x="510" y="800"/>
      <point x="613" y="566"/>
    </contour>
  </outline>
</glyph>
<glyph name="cent" format="2">
  <advance width="770"/>
  <unicode hex="00A2"/>
  <outline>
    <contour>
      <point x="800" y="619" type="curve" smooth="yes"/>
      <point x="834" y="742"/>
      <point x="742" y="853"/>
      <point x="560" y="853" type="curve" smooth="yes"/>
      <point x="333" y="853"/>
      <point x="130" y="677"/>
      <point x="67" y="445" type="curve" smooth="yes"/>
      <point x="-3" y="184"/>
      <point x="98" y="-5"/>
      <point x="327" y="-5" type="curve" smooth="yes"/>
      <point x="506" y="-5"/>
      <point x="668" y="113"/>
      <point x="708" y="235" type="curve" smooth="yes"/>
      <point x="712" y="245"/>
      <point x="711" y="256"/>
      <point x="698" y="256" type="curve" smooth="yes"/>
      <point x="686" y="256"/>
      <point x="680" y="248"/>
      <point x="671" y="234" type="curve" smooth="yes"/>
      <point x="619" y="135"/>
      <point x="502" y="38"/>
      <point x="345" y="38" type="curve" smooth="yes"/>
      <point x="156" y="38"/>
      <point x="60" y="186"/>
      <point x="127" y="433" type="curve" smooth="yes"/>
      <point x="189" y="658"/>
      <point x="360" y="821"/>
      <point x="549" y="821" type="curve" smooth="yes"/>
      <point x="680" y="821"/>
      <point x="740" y="732"/>
      <point x="722" y="664" type="curve" smooth="yes"/>
      <point x="710" y="619" type="line" smooth="yes"/>
      <point x="699" y="582"/>
      <point x="713" y="566"/>
      <point x="741" y="566" type="curve" smooth="yes"/>
      <point x="766" y="566"/>
      <point x="791" y="589"/>
    </contour>
    <contour>
      <point x="455" y="436" type="curve" smooth="yes"/>
      <point x="526" y="705"/>
      <point x="578" y="851"/>
      <point x="602" y="943" type="curve" smooth="yes"/>
      <point x="611" y="976"/>
      <point x="599" y="991"/>
      <point x="580" y="991" type="curve" smooth="yes"/>
      <point x="558" y="991"/>
      <point x="539" y="975"/>
      <point x="532" y="947" type="curve" smooth="yes"/>
      <point x="506" y="851"/>
      <point x="480" y="704"/>
      <point x="408" y="436" type="curve" smooth="yes"/>
      <point x="334" y="156"/>
      <point x="277" y="5"/>
      <point x="251" y="-91" type="curve" smooth="yes"/>
      <point x="242" y="-124"/>
      <point x="251" y="-140"/>
      <point x="274" y="-140" type="curve" smooth="yes"/>
      <point x="297" y="-140"/>
      <point x="314" y="-123"/>
      <point x="322" y="-95" type="curve" smooth="yes"/>
      <point x="348" y="4"/>
      <point x="381" y="155"/>
    </contour>
  </outline>
</glyph>
<glyph name="sterling" format="2">
  <advance width="971"/>
  <unicode hex="00A3"/>
  <outline>
    <contour>
      <point x="217" y="190" type="line"/>
      <point x="344" y="262"/>
      <point x="418" y="344"/>
      <point x="448" y="452" type="curve" smooth="yes"/>
      <point x="504" y="654"/>
      <point x="370" y="870"/>
      <point x="422" y="1068" type="curve" smooth="yes"/>
      <point x="473" y="1260"/>
      <point x="638" y="1376"/>
      <point x="820" y="1376" type="curve" smooth="yes"/>
      <point x="937" y="1376"/>
      <point x="1017" y="1323"/>
      <point x="1030" y="1195" type="curve" smooth="yes"/>
      <point x="1035" y="1145" type="line" smooth="yes"/>
      <point x="1039" y="1104"/>
      <point x="1058" y="1094"/>
      <point x="1082" y="1094" type="curve" smooth="yes"/>
      <point x="1112" y="1094"/>
      <point x="1125" y="1140"/>
      <point x="1120" y="1201" type="curve" smooth="yes"/>
      <point x="1110" y="1317"/>
      <point x="1007" y="1416"/>
      <point x="839" y="1416" type="curve" smooth="yes"/>
      <point x="613" y="1416"/>
      <point x="432" y="1294"/>
      <point x="373" y="1080" type="curve" smooth="yes"/>
      <point x="310" y="852"/>
      <point x="449" y="657"/>
      <point x="398" y="463" type="curve" smooth="yes"/>
      <point x="374" y="374"/>
      <point x="313" y="296"/>
      <point x="197" y="225" type="curve"/>
    </contour>
    <contour>
      <point x="-50" y="55" type="curve" smooth="yes"/>
      <point x="-66" y="4"/>
      <point x="-48" y="-19"/>
      <point x="-24" y="-19" type="curve" smooth="yes"/>
      <point x="1" y="-19"/>
      <point x="17" y="5"/>
      <point x="33" y="50" type="curve" smooth="yes"/>
      <point x="64" y="140"/>
      <point x="111" y="184"/>
      <point x="178" y="184" type="curve" smooth="yes"/>
      <point x="246" y="184"/>
      <point x="293" y="168"/>
      <point x="381" y="97" type="curve" smooth="yes"/>
      <point x="483" y="14"/>
      <point x="540" y="-18"/>
      <point x="626" y="-18" type="curve" smooth="yes"/>
      <point x="727" y="-18"/>
      <point x="816" y="42"/>
      <point x="888" y="206" type="curve" smooth="yes"/>
      <point x="899" y="232"/>
      <point x="897" y="242"/>
      <point x="886" y="245" type="curve" smooth="yes"/>
      <point x="874" y="247"/>
      <point x="861" y="239"/>
      <point x="851" y="218" type="curve" smooth="yes"/>
      <point x="790" y="98"/>
      <point x="730" y="32"/>
      <point x="618" y="32" type="curve" smooth="yes"/>
      <point x="475" y="32"/>
      <point x="364" y="230"/>
      <point x="202" y="230" type="curve" smooth="yes"/>
      <point x="77" y="230"/>
      <point x="-18" y="158"/>
    </contour>
    <contour>
      <point x="154" y="653" type="curve" smooth="yes"/>
      <point x="151" y="639"/>
      <point x="160" y="631"/>
      <point x="175" y="631" type="curve" smooth="yes"/>
      <point x="424" y="631" type="line"/>
      <point x="420" y="675" type="line"/>
      <point x="189" y="675" type="line" smooth="yes"/>
      <point x="174" y="675"/>
      <point x="158" y="666"/>
    </contour>
    <contour>
      <point x="443" y="631" type="line"/>
      <point x="845" y="631" type="line" smooth="yes"/>
      <point x="860" y="631"/>
      <point x="873" y="639"/>
      <point x="877" y="653" type="curve" smooth="yes"/>
      <point x="881" y="665"/>
      <point x="873" y="675"/>
      <point x="857" y="675" type="curve" smooth="yes"/>
      <point x="436" y="675" type="line"/>
    </contour>
  </outline>
</glyph>
<glyph name="currency" format="2">
  <advance width="1042"/>
  <unicode hex="00A4"/>
  <outline>
    <contour>
      <point x="520" y="414" type="curve" smooth="yes"/>
      <point x="357" y="414"/>
      <point x="276.8139137461" y="537.3215605325"/>
      <point x="325" y="713" type="curve" smooth="yes"/>
      <point x="371.0872522133" y="887.3300409808"/>
      <point x="522" y="1007"/>
      <point x="684" y="1007" type="curve" smooth="yes"/>
      <point x="848" y="1007"/>
      <point x="930.1732563218" y="887.6414170211"/>
      <point x="883" y="713" type="curve" smooth="yes"/>
      <point x="834.9056232583" y="535.6519857651"/>
      <point x="685" y="414"/>
    </contour>
    <contour>
      <point x="538" y="465" type="curve" smooth="yes"/>
      <point x="671.5422535211" y="465"/>
      <point x="792.9046199342" y="568.6478274493"/>
      <point x="832" y="713" type="curve" smooth="yes"/>
      <point x="871.1842933038" y="856.6757421139"/>
      <point x="807.4768211921" y="959"/>
      <point x="671" y="959" type="curve" smooth="yes"/>
      <point x="537.4895104895" y="959"/>
      <point x="414.0947024351" y="857.3496705296"/>
      <point x="375" y="713" type="curve" smooth="yes"/>
      <point x="336.8333856458" y="568.3686192892"/>
      <point x="401.6339869281" y="465"/>
    </contour>
    <contour>
      <point x="880" y="304" type="curve" smooth="yes"/>
      <point x="867" y="293"/>
      <point x="852" y="299"/>
      <point x="844" y="310" type="curve" smooth="yes"/>
      <point x="705" y="501" type="line"/>
      <point x="749" y="539" type="line"/>
      <point x="888" y="349" type="line" smooth="yes"/>
      <point x="896" y="338"/>
      <point x="894" y="318"/>
    </contour>
    <contour>
      <point x="303" y="1126" type="curve" smooth="yes"/>
      <point x="317" y="1137"/>
      <point x="332" y="1131"/>
      <point x="339" y="1121" type="curve" smooth="yes"/>
      <point x="483" y="912" type="line"/>
      <point x="439" y="873" type="line"/>
      <point x="296" y="1082" type="line" smooth="yes"/>
      <point x="288" y="1094"/>
      <point x="289" y="1113"/>
    </contour>
    <contour>
      <point x="136" y="317" type="curve" smooth="yes"/>
      <point x="126" y="331"/>
      <point x="138" y="354"/>
      <point x="155" y="368" type="curve" smooth="yes"/>
      <point x="351" y="529" type="line"/>
      <point x="382" y="484" type="line"/>
      <point x="187" y="324" type="line" smooth="yes"/>
      <point x="169" y="308"/>
      <point x="146" y="303"/>
    </contour>
    <contour>
      <point x="1094" y="1103" type="curve" smooth="yes"/>
      <point x="1103" y="1089"/>
      <point x="1092" y="1066"/>
      <point x="1073" y="1052" type="curve" smooth="yes"/>
      <point x="877" y="890" type="line"/>
      <point x="848" y="936" type="line"/>
      <point x="1042" y="1096" type="line" smooth="yes"/>
      <point x="1062" y="1112"/>
      <point x="1083" y="1117"/>
    </contour>
  </outline>
</glyph>
<glyph name="brokenbar" format="2">
  <advance width="464"/>
  <unicode hex="00A6"/>
  <outline>
    <contour>
      <point x="353" y="690" type="curve" smooth="yes"/>
      <point x="420" y="910"/>
      <point x="527" y="1239"/>
      <point x="574" y="1396" type="curve" smooth="yes"/>
      <point x="582.0" y="1423"/>
      <point x="580" y="1447.0"/>
      <point x="560" y="1447.0" type="curve" smooth="yes"/>
      <point x="538" y="1447.0"/>
      <point x="520" y="1423"/>
      <point x="512" y="1395" type="curve" smooth="yes"/>
      <point x="464" y="1239"/>
      <point x="368" y="911"/>
      <point x="301" y="690" type="curve" smooth="yes"/>
      <point x="294" y="665"/>
      <point x="303" y="653"/>
      <point x="317" y="653" type="curve" smooth="yes"/>
      <point x="335" y="653"/>
      <point x="345" y="663"/>
    </contour>
    <contour>
      <point x="259" y="538" type="curve" smooth="yes"/>
      <point x="193" y="317"/>
      <point x="82" y="-20"/>
      <point x="34.0" y="-175" type="curve" smooth="yes"/>
      <point x="25.0" y="-203"/>
      <point x="29" y="-228.0"/>
      <point x="48" y="-228.0" type="curve" smooth="yes"/>
      <point x="70.0" y="-228.0"/>
      <point x="87" y="-212"/>
      <point x="98" y="-175" type="curve" smooth="yes"/>
      <point x="140" y="-26"/>
      <point x="244" y="316"/>
      <point x="311" y="538" type="curve" smooth="yes"/>
      <point x="318" y="562"/>
      <point x="313" y="574"/>
      <point x="297" y="574" type="curve" smooth="yes"/>
      <point x="278" y="574"/>
      <point x="268" y="564"/>
    </contour>
  </outline>
</glyph>
<glyph name="section" format="2">
  <advance width="911"/>
  <unicode hex="00A7"/>
  <outline>
    <contour>
      <point x="302" y="-362" type="curve" smooth="yes"/>
      <point x="463" y="-362"/>
      <point x="611" y="-273"/>
      <point x="651" y="-130" type="curve" smooth="yes"/>
      <point x="696" y="27"/>
      <point x="655" y="158"/>
      <point x="428" y="272" type="curve" smooth="yes"/>
      <point x="243" y="364"/>
      <point x="205" y="463"/>
      <point x="242" y="605" type="curve" smooth="yes"/>
      <point x="269" y="713"/>
      <point x="366" y="808"/>
      <point x="486" y="825" type="curve"/>
      <point x="454" y="862" type="line"/>
      <point x="323" y="826"/>
      <point x="219" y="728"/>
      <point x="189" y="618" type="curve" smooth="yes"/>
      <point x="144" y="452"/>
      <point x="197" y="319"/>
      <point x="395" y="227" type="curve" smooth="yes"/>
      <point x="587" y="140"/>
      <point x="639" y="15"/>
      <point x="603" y="-112" type="curve" smooth="yes"/>
      <point x="568" y="-237"/>
      <point x="453" y="-320"/>
      <point x="316" y="-320" type="curve" smooth="yes"/>
      <point x="176" y="-320"/>
      <point x="67" y="-236"/>
      <point x="54" y="-90" type="curve" smooth="yes"/>
      <point x="52" y="-65"/>
      <point x="42" y="-60"/>
      <point x="28" y="-62" type="curve" smooth="yes"/>
      <point x="16" y="-65"/>
      <point x="10" y="-82"/>
      <point x="10" y="-105" type="curve" smooth="yes"/>
      <point x="10" y="-334" type="line" smooth="yes"/>
      <point x="11" y="-351"/>
      <point x="18" y="-358"/>
      <point x="30" y="-358" type="curve" smooth="yes"/>
      <point x="57" y="-358"/>
      <point x="67" y="-273"/>
      <point x="81" y="-273" type="curve" smooth="yes"/>
      <point x="97" y="-273"/>
      <point x="154" y="-362"/>
    </contour>
    <contour>
      <point x="724" y="1385" type="curve" smooth="yes"/>
      <point x="877" y="1385"/>
      <point x="964" y="1318"/>
      <point x="993" y="1166" type="curve" smooth="yes"/>
      <point x="1000" y="1129" type="line" smooth="yes"/>
      <point x="1003" y="1113"/>
      <point x="1011" y="1089"/>
      <point x="1037" y="1087" type="curve" smooth="yes"/>
      <point x="1056" y="1089"/>
      <point x="1075" y="1108"/>
      <point x="1078" y="1133" type="curve" smooth="yes"/>
      <point x="1089" y="1283"/>
      <point x="966" y="1427"/>
      <point x="732" y="1427" type="curve" smooth="yes"/>
      <point x="562" y="1427"/>
      <point x="393" y="1313"/>
      <point x="350" y="1151" type="curve" smooth="yes"/>
      <point x="304" y="981"/>
      <point x="378" y="860"/>
      <point x="553" y="773" type="curve" smooth="yes"/>
      <point x="757" y="675"/>
      <point x="801" y="556"/>
      <point x="768" y="443" type="curve" smooth="yes"/>
      <point x="736" y="332"/>
      <point x="632" y="230"/>
      <point x="489" y="230" type="curve"/>
      <point x="485" y="189" type="line"/>
      <point x="643" y="189"/>
      <point x="784" y="291"/>
      <point x="820" y="425" type="curve" smooth="yes"/>
      <point x="861" y="583"/>
      <point x="797" y="715"/>
      <point x="584" y="822" type="curve" smooth="yes"/>
      <point x="427" y="901"/>
      <point x="368" y="1016"/>
      <point x="402" y="1142" type="curve" smooth="yes"/>
      <point x="444" y="1291"/>
      <point x="569" y="1385"/>
    </contour>
  </outline>
</glyph>
<glyph name="copyright" format="2">
  <advance width="1464"/>
  <unicode hex="00A9"/>
  <anchor x="898.496" y="1377" name="center"/>
  <outline>
    <contour>
      <point x="653" y="-48" type="curve" smooth="yes"/>
      <point x="270.486" y="-48"/>
      <point x="47.075" y="298.36"/>
      <point x="142" y="755" type="curve" smooth="yes"/>
      <point x="226.959" y="1169.8"/>
      <point x="558.91" y="1450"/>
      <point x="961" y="1450" type="curve" smooth="yes"/>
      <point x="1330.579" y="1450"/>
      <point x="1551.93" y="1114.651"/>
      <point x="1459" y="650" type="curve" smooth="yes"/>
      <point x="1369.045" y="216.218"/>
      <point x="1042.172" y="-48"/>
    </contour>
    <contour>
      <point x="660" y="-4" type="curve" smooth="yes"/>
      <point x="1011.877" y="-4"/>
      <point x="1330.823" y="271.356"/>
      <point x="1410" y="651" type="curve" smooth="yes"/>
      <point x="1497.081" y="1084.378"/>
      <point x="1293.026" y="1406"/>
      <point x="954" y="1406" type="curve" smooth="yes"/>
      <point x="584.058" y="1406"/>
      <point x="269.001" y="1127.005"/>
      <point x="192" y="756" type="curve" smooth="yes"/>
      <point x="106.997" y="318.986"/>
      <point x="302.059" y="-4"/>
    </contour>
    <contour>
      <point x="1107" y="447" type="curve" smooth="yes"/>
      <point x="1112" y="460"/>
      <point x="1108" y="466"/>
      <point x="1097" y="466" type="curve" smooth="yes"/>
      <point x="1070" y="466"/>
      <point x="1063" y="410"/>
      <point x="977" y="341" type="curve" smooth="yes"/>
      <point x="918.759" y="293.159"/>
      <point x="841.609" y="248"/>
      <point x="742" y="248" type="curve" smooth="yes"/>
      <point x="549.722" y="248"/>
      <point x="432.964" y="426.825"/>
      <point x="497" y="738" type="curve" smooth="yes"/>
      <point x="550.974" y="1001.873"/>
      <point x="741.353" y="1167"/>
      <point x="908" y="1167" type="curve" smooth="yes"/>
      <point x="1046.251" y="1167"/>
      <point x="1153" y="1102"/>
      <point x="1170" y="917" type="curve" smooth="yes"/>
      <point x="1171" y="903"/>
      <point x="1182" y="891"/>
      <point x="1194" y="891" type="curve" smooth="yes"/>
      <point x="1208" y="890"/>
      <point x="1218" y="908"/>
      <point x="1216" y="927" type="curve" smooth="yes"/>
      <point x="1193" y="1161" type="line" smooth="yes"/>
      <point x="1189" y="1177"/>
      <point x="1183" y="1181"/>
      <point x="1174" y="1181" type="curve" smooth="yes"/>
      <point x="1154.875" y="1181"/>
      <point x="1145.667" y="1117"/>
      <point x="1140" y="1117" type="curve" smooth="yes"/>
      <point x="1121.861" y="1117"/>
      <point x="1062" y="1208"/>
      <point x="917" y="1208" type="curve" smooth="yes"/>
      <point x="698" y="1208"/>
      <point x="495.977" y="1014.889"/>
      <point x="441" y="745" type="curve" smooth="yes"/>
      <point x="374.968" y="427.848"/>
      <point x="495.514" y="202"/>
      <point x="729" y="202" type="curve" smooth="yes"/>
      <point x="918.979" y="202"/>
      <point x="1061.116" y="324.31"/>
    </contour>
  </outline>
</glyph>
<glyph name="ordfeminine" format="2">
  <advance width="789"/>
  <unicode hex="00AA"/>
  <outline>
    <contour>
      <point x="649" y="773" type="curve" smooth="yes"/>
      <point x="788" y="1286" type="line" smooth="yes"/>
      <point x="794.8722328531" y="1311.362988875"/>
      <point x="825" y="1333"/>
      <point x="825" y="1359" type="curve" smooth="yes"/>
      <point x="825" y="1398"/>
      <point x="770" y="1420"/>
      <point x="696" y="1420" type="curve" smooth="yes"/>
      <point x="463.3641207815" y="1420"/>
      <point x="201.9999946466" y="1126.9995877897"/>
      <point x="198" y="819" type="curve" smooth="yes"/>
      <point x="197.0000023052" y="697.0002812296"/>
      <point x="249.2061068702" y="654"/>
      <point x="327" y="654" type="curve" smooth="yes"/>
      <point x="445.6051282051" y="654"/>
      <point x="595.9147720747" y="788.7630247931"/>
      <point x="719" y="1131" type="curve"/>
      <point x="710" y="1133" type="line"/>
      <point x="606" y="821"/>
      <point x="596" y="768"/>
      <point x="596" y="716" type="curve" smooth="yes"/>
      <point x="596" y="677"/>
      <point x="616" y="654"/>
      <point x="657" y="654" type="curve" smooth="yes"/>
      <point x="714" y="654"/>
      <point x="767.0077436514" y="707.9065560995"/>
      <point x="790" y="743" type="curve" smooth="yes"/>
      <point x="799" y="757"/>
      <point x="798" y="770"/>
      <point x="789" y="776" type="curve" smooth="yes"/>
      <point x="780.1549409587" y="780.4225295207"/>
      <point x="768" y="778"/>
      <point x="754" y="755" type="curve" smooth="yes"/>
      <point x="727" y="711"/>
      <point x="701" y="700"/>
      <point x="677" y="700" type="curve" smooth="yes"/>
      <point x="645" y="700"/>
      <point x="635" y="720"/>
    </contour>
    <contour>
      <point x="247" y="842" type="curve" smooth="yes"/>
      <point x="250.8982263069" y="1108.0539454448"/>
      <point x="490" y="1378"/>
      <point x="684" y="1378" type="curve" smooth="yes"/>
      <point x="740" y="1378"/>
      <point x="764" y="1355"/>
      <point x="747" y="1302" type="curve" smooth="yes"/>
      <point x="593.9147932594" y="828.7365830831"/>
      <point x="430.4289276808" y="699"/>
      <point x="344" y="699" type="curve" smooth="yes"/>
      <point x="278.3535353535" y="699"/>
      <point x="245.9785758521" y="731.6861920248"/>
    </contour>
  </outline>
</glyph>
<glyph name="logicalnot" format="2">
  <advance width="908"/>
  <unicode hex="00AC"/>
  <outline>
    <contour>
      <point x="203" y="818" type="curve" smooth="yes"/>
      <point x="199" y="800"/>
      <point x="209" y="790"/>
      <point x="226" y="790" type="curve" smooth="yes"/>
      <point x="886" y="790" type="line"/>
      <point x="879" y="814" type="line"/>
      <point x="799" y="541" type="line" smooth="yes"/>
      <point x="793" y="521"/>
      <point x="799" y="503"/>
      <point x="816" y="503" type="curve" smooth="yes"/>
      <point x="836" y="503"/>
      <point x="853" y="519"/>
      <point x="858" y="540" type="curve" smooth="yes"/>
      <point x="926" y="811" type="line" smooth="yes"/>
      <point x="931" y="831"/>
      <point x="921" y="844"/>
      <point x="903" y="844" type="curve" smooth="yes"/>
      <point x="243" y="844" type="line" smooth="yes"/>
      <point x="226" y="844"/>
      <point x="208" y="834"/>
    </contour>
  </outline>
</glyph>
<glyph name="degree" format="2">
  <advance width="613"/>
  <unicode hex="00B0"/>
  <outline>
    <contour>
      <point x="555" y="1419" type="curve" smooth="yes"/>
      <point x="413" y="1419"/>
      <point x="288.9713298255" y="1317.8808395873"/>
      <point x="257" y="1185" type="curve" smooth="yes"/>
      <point x="216.0643056773" y="1020.2587911405"/>
      <point x="299.7978142077" y="900"/>
      <point x="435" y="900" type="curve" smooth="yes"/>
      <point x="577.2292993631" y="900"/>
      <point x="706.0324084875" y="995.1471520515"/>
      <point x="743" y="1163" type="curve" smooth="yes"/>
      <point x="773.9513224725" y="1295.7911577045"/>
      <point x="705" y="1419"/>
    </contour>
    <contour>
      <point x="545" y="1374" type="curve" smooth="yes"/>
      <point x="662" y="1374"/>
      <point x="719" y="1286"/>
      <point x="690" y="1162" type="curve" smooth="yes"/>
      <point x="660" y="1026"/>
      <point x="563" y="947"/>
      <point x="448" y="947" type="curve" smooth="yes"/>
      <point x="339" y="947"/>
      <point x="276" y="1039"/>
      <point x="310" y="1185" type="curve" smooth="yes"/>
      <point x="334" y="1292"/>
      <point x="434" y="1374"/>
    </contour>
  </outline>
</glyph>
<glyph name="twosuperior" format="2">
  <advance width="546"/>
  <unicode hex="00B2"/>
  <outline>
    <contour>
      <point x="263" y="844" type="line"/>
      <point x="452" y="953" type="line" smooth="yes"/>
      <point x="593" y="1034"/>
      <point x="660" y="1106"/>
      <point x="686" y="1208" type="curve" smooth="yes"/>
      <point x="718" y="1331"/>
      <point x="675.815" y="1421"/>
      <point x="561" y="1421" type="curve" smooth="yes"/>
      <point x="429" y="1421"/>
      <point x="334.299" y="1329.886"/>
      <point x="308" y="1231" type="curve" smooth="yes"/>
      <point x="299" y="1199"/>
      <point x="307" y="1182"/>
      <point x="325" y="1182" type="curve" smooth="yes"/>
      <point x="344" y="1182"/>
      <point x="360" y="1195"/>
      <point x="368" y="1224" type="curve" smooth="yes"/>
      <point x="376" y="1255" type="line" smooth="yes"/>
      <point x="393.536" y="1322.952"/>
      <point x="453" y="1383"/>
      <point x="547" y="1383" type="curve" smooth="yes"/>
      <point x="624.224" y="1383"/>
      <point x="662" y="1323"/>
      <point x="635" y="1219" type="curve" smooth="yes"/>
      <point x="608" y="1117"/>
      <point x="550" y="1051"/>
      <point x="422" y="977" type="curve" smooth="yes"/>
      <point x="245" y="875" type="line"/>
    </contour>
    <contour>
      <point x="170" y="776" type="curve" smooth="yes"/>
      <point x="163" y="748"/>
      <point x="173" y="733"/>
      <point x="189" y="733" type="curve" smooth="yes"/>
      <point x="210" y="733"/>
      <point x="226" y="746"/>
      <point x="237" y="773" type="curve" smooth="yes"/>
      <point x="253" y="819"/>
      <point x="266" y="852"/>
      <point x="296" y="852" type="curve" smooth="yes"/>
      <point x="330" y="852"/>
      <point x="346" y="839"/>
      <point x="386" y="790" type="curve" smooth="yes"/>
      <point x="417" y="752"/>
      <point x="441.93" y="733"/>
      <point x="482" y="733" type="curve" smooth="yes"/>
      <point x="546.322" y="733"/>
      <point x="592" y="770"/>
      <point x="624" y="849" type="curve" smooth="yes"/>
      <point x="631" y="866"/>
      <point x="630" y="875"/>
      <point x="619" y="878" type="curve" smooth="yes"/>
      <point x="610" y="880"/>
      <point x="598" y="876"/>
      <point x="590" y="863" type="curve" smooth="yes"/>
      <point x="551" y="794"/>
      <point x="530" y="776"/>
      <point x="494" y="776" type="curve" smooth="yes"/>
      <point x="424" y="776"/>
      <point x="402" y="889"/>
      <point x="303" y="889" type="curve" smooth="yes"/>
      <point x="234" y="889"/>
      <point x="185.699" y="834.311"/>
    </contour>
  </outline>
</glyph>
<glyph name="paragraph" format="2">
  <advance width="932"/>
  <unicode hex="00B6"/>
  <outline>
    <contour>
      <point x="257" y="1050" type="curve" smooth="yes"/>
      <point x="201" y="866"/>
      <point x="284" y="737"/>
      <point x="468" y="737" type="curve" smooth="yes"/>
      <point x="503" y="737"/>
      <point x="526" y="747"/>
      <point x="542" y="751" type="curve"/>
      <point x="353" y="121" type="line" smooth="yes"/>
      <point x="340" y="79"/>
      <point x="318" y="56"/>
      <point x="285" y="53" type="curve" smooth="yes"/>
      <point x="210" y="46" type="line" smooth="yes"/>
      <point x="177.018" y="42.922"/>
      <point x="164.922" y="33.533"/>
      <point x="163" y="22" type="curve" smooth="yes"/>
      <point x="157" y="8"/>
      <point x="166" y="0"/>
      <point x="187" y="0" type="curve" smooth="yes"/>
      <point x="721" y="0" type="line" smooth="yes"/>
      <point x="737" y="0"/>
      <point x="753" y="5"/>
      <point x="758" y="22" type="curve" smooth="yes"/>
      <point x="762.497" y="36.389"/>
      <point x="752.843" y="42.504"/>
      <point x="724" y="46" type="curve" smooth="yes"/>
      <point x="658" y="54" type="line" smooth="yes"/>
      <point x="634" y="57"/>
      <point x="619" y="81"/>
      <point x="630" y="119" type="curve" smooth="yes"/>
      <point x="982" y="1282" type="line" smooth="yes"/>
      <point x="995" y="1324"/>
      <point x="1011.352" y="1337.897"/>
      <point x="1048" y="1343" type="curve" smooth="yes"/>
      <point x="1127" y="1354" type="line" smooth="yes"/>
      <point x="1154" y="1358"/>
      <point x="1166" y="1365"/>
      <point x="1169" y="1380" type="curve" smooth="yes"/>
      <point x="1172" y="1394"/>
      <point x="1165" y="1400"/>
      <point x="1146" y="1400" type="curve" smooth="yes"/>
      <point x="791" y="1400" type="line" smooth="yes"/>
      <point x="517.767" y="1400"/>
      <point x="322" y="1265"/>
    </contour>
    <contour>
      <point x="569" y="103" type="line" smooth="yes"/>
      <point x="555" y="56"/>
      <point x="530" y="37"/>
      <point x="467" y="37" type="curve" smooth="yes"/>
      <point x="408" y="37"/>
      <point x="391" y="62"/>
      <point x="405" y="105" type="curve" smooth="yes"/>
      <point x="763" y="1290" type="line" smooth="yes"/>
      <point x="776.206" y="1333.712"/>
      <point x="802.794" y="1354"/>
      <point x="862" y="1354" type="curve" smooth="yes"/>
      <point x="925.952" y="1354"/>
      <point x="939.933" y="1337.025"/>
      <point x="927" y="1294" type="curve" smooth="yes"/>
    </contour>
  </outline>
</glyph>
<glyph name="ordmasculine" format="2">
  <advance width="736"/>
  <unicode hex="00BA"/>
  <outline>
    <contour>
      <point x="635" y="1421" type="curve" smooth="yes"/>
      <point x="439.734" y="1438.751"/>
      <point x="255.975" y="1239.876"/>
      <point x="210" y="1013" type="curve" smooth="yes"/>
      <point x="167.05" y="796.252"/>
      <point x="261.311" y="654.628"/>
      <point x="396" y="643" type="curve" smooth="yes"/>
      <point x="581" y="627"/>
      <point x="755" y="763"/>
      <point x="808" y="1050" type="curve" smooth="yes"/>
      <point x="847" y="1258"/>
      <point x="770" y="1409"/>
    </contour>
    <contour>
      <point x="414" y="687" type="curve" smooth="yes"/>
      <point x="290.746" y="695.666"/>
      <point x="221.053" y="811.266"/>
      <point x="259" y="1002" type="curve" smooth="yes"/>
      <point x="303.974" y="1234.863"/>
      <point x="453.729" y="1390.788"/>
      <point x="618" y="1378" type="curve" smooth="yes"/>
      <point x="721" y="1372"/>
      <point x="793" y="1240"/>
      <point x="760" y="1059" type="curve" smooth="yes"/>
      <point x="710" y="791"/>
      <point x="554" y="678"/>
    </contour>
  </outline>
</glyph>
<glyph name="AE" format="2">
  <advance width="1660"/>
  <unicode hex="00C6"/>
  <anchor x="1394.0" y="1582" name="center"/>
  <outline>
    <contour>
      <point x="1189" y="1400" type="line"/>
      <point x="1026" y="1400" type="line" smooth="yes"/>
      <point x="1012" y="1400"/>
      <point x="1002" y="1393"/>
      <point x="1000" y="1383" type="curve" smooth="yes"/>
      <point x="997" y="1371"/>
      <point x="1007" y="1364"/>
      <point x="1061" y="1356" type="curve" smooth="yes"/>
      <point x="1091" y="1352"/>
      <point x="1099" y="1338"/>
      <point x="1078" y="1313" type="curve" smooth="yes"/>
      <point x="64" y="117" type="line" smooth="yes"/>
      <point x="26" y="73"/>
      <point x="9" y="57"/>
      <point x="-16" y="52" type="curve" smooth="yes"/>
      <point x="-53" y="45" type="line" smooth="yes"/>
      <point x="-69" y="42"/>
      <point x="-80" y="37"/>
      <point x="-82" y="25" type="curve" smooth="yes"/>
      <point x="-84" y="10"/>
      <point x="-74" y="0"/>
      <point x="-50" y="0" type="curve" smooth="yes"/>
      <point x="218" y="0" type="line" smooth="yes"/>
      <point x="234" y="0"/>
      <point x="245" y="5"/>
      <point x="248" y="16" type="curve" smooth="yes"/>
      <point x="251" y="29"/>
      <point x="243" y="39"/>
      <point x="222" y="41" type="curve" smooth="yes"/>
      <point x="148" y="49" type="line" smooth="yes"/>
      <point x="79" y="56"/>
      <point x="77" y="65"/>
      <point x="133" y="131" type="curve" smooth="yes"/>
      <point x="1172" y="1360" type="line"/>
      <point x="1187" y="1360" type="line"/>
    </contour>
    <contour>
      <point x="472" y="582" type="line"/>
      <point x="432" y="537" type="line"/>
      <point x="956" y="537" type="line"/>
      <point x="958" y="582" type="line"/>
    </contour>
    <contour>
      <point x="992" y="705" type="line"/>
      <point x="979" y="665" type="line"/>
      <point x="1403" y="665" type="line" smooth="yes"/>
      <point x="1445" y="665"/>
      <point x="1461" y="648"/>
      <point x="1483" y="558" type="curve" smooth="yes"/>
      <point x="1488" y="536"/>
      <point x="1498" y="527"/>
      <point x="1512" y="527" type="curve" smooth="yes"/>
      <point x="1527" y="527"/>
      <point x="1533" y="539"/>
      <point x="1529" y="562" type="curve" smooth="yes"/>
      <point x="1482" y="844" type="line" smooth="yes"/>
      <point x="1480" y="853"/>
      <point x="1475" y="863"/>
      <point x="1459" y="863" type="curve" smooth="yes"/>
      <point x="1447" y="863"/>
      <point x="1438" y="853"/>
      <point x="1441" y="834" type="curve" smooth="yes"/>
      <point x="1456" y="733"/>
      <point x="1438" y="705"/>
      <point x="1396" y="705" type="curve" smooth="yes"/>
    </contour>
    <contour>
      <point x="1280" y="0" type="line" smooth="yes"/>
      <point x="1310" y="0"/>
      <point x="1332" y="-21"/>
      <point x="1359" y="-21" type="curve" smooth="yes"/>
      <point x="1444" y="-21"/>
      <point x="1546" y="129"/>
      <point x="1568" y="253" type="curve" smooth="yes"/>
      <point x="1574" y="285"/>
      <point x="1567" y="294"/>
      <point x="1558" y="294" type="curve" smooth="yes"/>
      <point x="1552" y="294"/>
      <point x="1543" y="287"/>
      <point x="1539" y="278" type="curve" smooth="yes"/>
      <point x="1470" y="113"/>
      <point x="1412" y="40"/>
      <point x="1298" y="40" type="curve" smooth="yes"/>
      <point x="915" y="40" type="line" smooth="yes"/>
      <point x="870" y="40"/>
      <point x="848" y="66"/>
      <point x="861" y="116" type="curve" smooth="yes"/>
      <point x="885" y="208"/>
      <point x="1123" y="1072"/>
      <point x="1205" y="1360" type="curve"/>
      <point x="1629" y="1360" type="line" smooth="yes"/>
      <point x="1688" y="1360"/>
      <point x="1724" y="1326"/>
      <point x="1741" y="1179" type="curve" smooth="yes"/>
      <point x="1744" y="1154"/>
      <point x="1759" y="1140"/>
      <point x="1776" y="1140" type="curve" smooth="yes"/>
      <point x="1789" y="1140"/>
      <point x="1797" y="1155"/>
      <point x="1793" y="1185" type="curve" smooth="yes"/>
      <point x="1763" y="1394" type="line" smooth="yes"/>
      <point x="1759" y="1420"/>
      <point x="1753" y="1429"/>
      <point x="1737" y="1429" type="curve" smooth="yes"/>
      <point x="1717" y="1429"/>
      <point x="1696" y="1400"/>
      <point x="1666" y="1400" type="curve" smooth="yes"/>
      <point x="1162" y="1400" type="line"/>
      <point x="1084" y="1099"/>
      <point x="835" y="213"/>
      <point x="804" y="119" type="curve" smooth="yes"/>
      <point x="790" y="76"/>
      <point x="767" y="58"/>
      <point x="730" y="53" type="curve" smooth="yes"/>
      <point x="659" y="43" type="line" smooth="yes"/>
      <point x="638" y="40"/>
      <point x="628" y="33"/>
      <point x="627" y="19" type="curve" smooth="yes"/>
      <point x="627" y="9"/>
      <point x="635" y="0"/>
      <point x="651" y="0" type="curve" smooth="yes"/>
    </contour>
  </outline>
</glyph>
<glyph name="Eth" format="2">
  <advance width="1265"/>
  <unicode hex="00D0"/>
  <anchor x="905" y="1485" name="center"/>
  <outline>
    <contour>
      <point x="103" y="701" type="curve" smooth="yes"/>
      <point x="98.851" y="686.478"/>
      <point x="103" y="679"/>
      <point x="120" y="679" type="curve" smooth="yes"/>
      <point x="726" y="679" type="line" smooth="yes"/>
      <point x="741.6" y="679"/>
      <point x="751.934" y="686.769"/>
      <point x="756" y="701" type="curve" smooth="yes"/>
      <point x="759.06" y="715.279"/>
      <point x="756" y="723"/>
      <point x="738" y="723" type="curve" smooth="yes"/>
      <point x="132" y="723" type="line" smooth="yes"/>
      <point x="116" y="723"/>
      <point x="106.03" y="715.141"/>
    </contour>
    <component base="D"/>
  </outline>
</glyph>
<glyph name="multiply" format="2">
  <advance width="842"/>
  <unicode hex="00D7"/>
  <outline>
    <contour>
      <point x="102" y="324" type="curve" smooth="yes"/>
      <point x="114" y="311"/>
      <point x="132" y="315"/>
      <point x="155" y="335" type="curve" smooth="yes"/>
      <point x="878" y="985" type="line" smooth="yes"/>
      <point x="897" y="1002"/>
      <point x="903" y="1024"/>
      <point x="891" y="1037" type="curve" smooth="yes"/>
      <point x="881" y="1047"/>
      <point x="864" y="1042"/>
      <point x="845" y="1025" type="curve" smooth="yes"/>
      <point x="121" y="375" type="line" smooth="yes"/>
      <point x="102" y="357"/>
      <point x="93" y="336"/>
    </contour>
    <contour>
      <point x="699" y="318" type="curve" smooth="yes"/>
      <point x="714" y="326"/>
      <point x="713" y="347"/>
      <point x="704" y="363" type="curve" smooth="yes"/>
      <point x="331" y="1027" type="line" smooth="yes"/>
      <point x="319" y="1049"/>
      <point x="307" y="1053"/>
      <point x="297" y="1047" type="curve" smooth="yes"/>
      <point x="284" y="1039"/>
      <point x="277" y="1020"/>
      <point x="284" y="1006" type="curve" smooth="yes"/>
      <point x="657" y="339" type="line" smooth="yes"/>
      <point x="669" y="317"/>
      <point x="686" y="307"/>
    </contour>
  </outline>
</glyph>
<glyph name="Oslash" format="2">
  <advance width="1316"/>
  <unicode hex="00D8"/>
  <anchor x="987.0" y="1546.0" name="center"/>
  <outline>
    <contour>
      <point x="57" y="-16" type="curve" smooth="yes"/>
      <point x="68" y="-25"/>
      <point x="77" y="-23"/>
      <point x="90" y="-10" type="curve" smooth="yes"/>
      <point x="1395" y="1387" type="line" smooth="yes"/>
      <point x="1410" y="1403"/>
      <point x="1408" y="1414"/>
      <point x="1396" y="1423" type="curve" smooth="yes"/>
      <point x="1385" y="1433"/>
      <point x="1373" y="1430"/>
      <point x="1360" y="1416" type="curve" smooth="yes"/>
      <point x="57" y="18" type="line" smooth="yes"/>
      <point x="42" y="3"/>
      <point x="46" y="-9"/>
    </contour>
    <component base="O"/>
  </outline>
</glyph>
<glyph name="Thorn" format="2">
  <advance width="1065"/>
  <unicode hex="00DE"/>
  <outline>
    <contour>
      <point x="241" y="123" type="curve" smooth="yes"/>
      <point x="263" y="203"/>
      <point x="519" y="1114"/>
      <point x="564" y="1285" type="curve" smooth="yes"/>
      <point x="574" y="1319"/>
      <point x="593" y="1342"/>
      <point x="634" y="1347" type="curve" smooth="yes"/>
      <point x="710" y="1357" type="line" smooth="yes"/>
      <point x="745" y="1362"/>
      <point x="756" y="1371"/>
      <point x="756" y="1385" type="curve" smooth="yes"/>
      <point x="756" y="1398"/>
      <point x="749" y="1400"/>
      <point x="728" y="1400" type="curve" smooth="yes"/>
      <point x="415" y="1400" type="line" smooth="yes"/>
      <point x="387" y="1400"/>
      <point x="374" y="1398"/>
      <point x="373" y="1381" type="curve" smooth="yes"/>
      <point x="373" y="1366"/>
      <point x="382" y="1360"/>
      <point x="411" y="1356" type="curve" smooth="yes"/>
      <point x="471" y="1347" type="line" smooth="yes"/>
      <point x="511" y="1341"/>
      <point x="515" y="1316"/>
      <point x="508" y="1286" type="curve" smooth="yes"/>
      <point x="467" y="1117"/>
      <point x="214" y="208"/>
      <point x="188" y="122" type="curve" smooth="yes"/>
      <point x="176" y="79"/>
      <point x="147" y="57"/>
      <point x="100" y="51" type="curve" smooth="yes"/>
      <point x="44" y="44" type="line" smooth="yes"/>
      <point x="17" y="41"/>
      <point x="6" y="31"/>
      <point x="6" y="19" type="curve" smooth="yes"/>
      <point x="6" y="7"/>
      <point x="17" y="0"/>
      <point x="36" y="0" type="curve" smooth="yes"/>
      <point x="350" y="0" type="line" smooth="yes"/>
      <point x="368" y="0"/>
      <point x="388" y="6"/>
      <point x="388" y="22" type="curve" smooth="yes"/>
      <point x="389" y="35"/>
      <point x="381" y="43"/>
      <point x="353" y="46" type="curve" smooth="yes"/>
      <point x="270" y="54" type="line" smooth="yes"/>
      <point x="244" y="57"/>
      <point x="229" y="76"/>
    </contour>
    <contour>
      <point x="1062" y="682" type="curve" smooth="yes"/>
      <point x="1127" y="929"/>
      <point x="983" y="1130"/>
      <point x="641" y="1130" type="curve" smooth="yes"/>
      <point x="480" y="1130" type="line"/>
      <point x="468" y="1086" type="line"/>
      <point x="637" y="1086" type="line" smooth="yes"/>
      <point x="923" y="1086"/>
      <point x="1067" y="915"/>
      <point x="1009" y="687" type="curve" smooth="yes"/>
      <point x="959" y="491"/>
      <point x="776" y="358"/>
      <point x="546" y="363" type="curve" smooth="yes"/>
      <point x="490" y="364"/>
      <point x="368" y="375"/>
      <point x="300" y="432" type="curve"/>
      <point x="276" y="395" type="line"/>
      <point x="339" y="347"/>
      <point x="445" y="320"/>
      <point x="533" y="319" type="curve" smooth="yes"/>
      <point x="794" y="315"/>
      <point x="999" y="445"/>
    </contour>
  </outline>
</glyph>
<glyph name="germandbls" format="2">
  <advance width="885"/>
  <unicode hex="00DF"/>
  <outline>
    <contour>
      <point x="-26" y="-244" type="line" smooth="yes"/>
      <point x="-49" y="-322"/>
      <point x="-33" y="-349"/>
      <point x="-8" y="-349" type="curve" smooth="yes"/>
      <point x="20" y="-349"/>
      <point x="39" y="-335"/>
      <point x="38" y="-309" type="curve" smooth="yes"/>
      <point x="37" y="-285"/>
      <point x="31" y="-273"/>
      <point x="31" y="-244" type="curve" smooth="yes"/>
      <point x="32" y="-214"/>
      <point x="37" y="-192"/>
      <point x="45" y="-165" type="curve" smooth="yes"/>
      <point x="370" y="960" type="line" smooth="yes"/>
      <point x="453" y="1247"/>
      <point x="586" y="1382"/>
      <point x="727" y="1382" type="curve" smooth="yes"/>
      <point x="853" y="1382"/>
      <point x="919" y="1272"/>
      <point x="863" y="1064" type="curve" smooth="yes"/>
      <point x="813.296" y="882.084"/>
      <point x="670.992" y="769"/>
      <point x="434" y="752" type="curve" smooth="yes"/>
      <point x="420.002" y="751"/>
      <point x="410.652" y="745.026"/>
      <point x="408" y="730" type="curve" smooth="yes"/>
      <point x="405.733" y="715.266"/>
      <point x="416.986" y="706"/>
      <point x="439" y="705" type="curve" smooth="yes"/>
      <point x="692.995" y="692"/>
      <point x="812.6" y="513.51"/>
      <point x="754" y="295" type="curve" smooth="yes"/>
      <point x="709" y="131"/>
      <point x="596" y="25"/>
      <point x="447" y="25" type="curve" smooth="yes"/>
      <point x="313" y="25"/>
      <point x="261" y="80"/>
      <point x="276" y="187" type="curve" smooth="yes"/>
      <point x="283" y="237" type="line" smooth="yes"/>
      <point x="285" y="254"/>
      <point x="281" y="264"/>
      <point x="267" y="264" type="curve" smooth="yes"/>
      <point x="257" y="264"/>
      <point x="249" y="255"/>
      <point x="236" y="202" type="curve" smooth="yes"/>
      <point x="204" y="66"/>
      <point x="269" y="-19"/>
      <point x="441" y="-19" type="curve" smooth="yes"/>
      <point x="621" y="-19"/>
      <point x="761" y="113"/>
      <point x="805" y="280" type="curve" smooth="yes"/>
      <point x="869" y="521"/>
      <point x="724" y="737"/>
      <point x="456" y="735" type="curve"/>
      <point x="453" y="722" type="line"/>
      <point x="666" y="726"/>
      <point x="864" y="861"/>
      <point x="914" y="1051" type="curve" smooth="yes"/>
      <point x="973" y="1279"/>
      <point x="894" y="1424"/>
      <point x="734" y="1424" type="curve" smooth="yes"/>
      <point x="558" y="1424"/>
      <point x="408" y="1262"/>
      <point x="326" y="975" type="curve" smooth="yes"/>
      <point x="280" y="815" type="line"/>
      <point x="311" y="850" type="line"/>
      <point x="158" y="850" type="line" smooth="yes"/>
      <point x="145" y="850"/>
      <point x="136" y="844"/>
      <point x="135" y="835" type="curve" smooth="yes"/>
      <point x="134" y="823"/>
      <point x="141" y="814"/>
      <point x="159" y="813" type="curve" smooth="yes"/>
      <point x="232" y="807" type="line" smooth="yes"/>
      <point x="264" y="804"/>
      <point x="273" y="782"/>
      <point x="261" y="742" type="curve" smooth="yes"/>
    </contour>
  </outline>
</glyph>
<glyph name="ae" format="2">
  <advance width="1147"/>
  <unicode hex="00E6"/>
  <anchor x="761" y="1023" name="center"/>
  <outline>
    <contour>
      <point x="739" y="854"/>
      <point x="543" y="633"/>
      <point x="505" y="334" type="curve" smooth="yes"/>
      <point x="476" y="107"/>
      <point x="556" y="-26"/>
      <point x="731" y="-26" type="curve" smooth="yes"/>
      <point x="897" y="-26"/>
      <point x="1001" y="92"/>
      <point x="1049" y="215" type="curve" smooth="yes"/>
      <point x="1063" y="251"/>
      <point x="1053" y="263"/>
      <point x="1040" y="263" type="curve" smooth="yes"/>
      <point x="1029" y="263"/>
      <point x="1022" y="256"/>
      <point x="1014" y="238" type="curve" smooth="yes"/>
      <point x="947" y="76"/>
      <point x="829" y="14"/>
      <point x="739" y="14" type="curve" smooth="yes"/>
      <point x="607" y="14"/>
      <point x="531" y="117"/>
      <point x="559" y="327" type="curve" smooth="yes"/>
      <point x="598" y="620"/>
      <point x="773" y="814"/>
      <point x="927" y="814" type="curve" smooth="yes"/>
      <point x="1012" y="814"/>
      <point x="1055" y="751"/>
      <point x="1055" y="652" type="curve" smooth="yes"/>
      <point x="1055" y="622"/>
      <point x="1053" y="605"/>
      <point x="1047" y="582" type="curve"/>
      <point x="1059" y="610" type="line"/>
      <point x="875" y="548"/>
      <point x="541" y="448"/>
      <point x="541" y="448" type="curve"/>
      <point x="550" y="412" type="line"/>
      <point x="550" y="412"/>
      <point x="948" y="530"/>
      <point x="1135" y="593" type="curve" smooth="yes"/>
      <point x="1158" y="601"/>
      <point x="1164" y="614"/>
      <point x="1158" y="627" type="curve" smooth="yes"/>
      <point x="1153" y="637"/>
      <point x="1140" y="640"/>
      <point x="1124" y="634" type="curve" smooth="yes"/>
      <point x="1113" y="630"/>
      <point x="1108" y="635"/>
      <point x="1108" y="646" type="curve" smooth="yes"/>
      <point x="1108" y="768"/>
      <point x="1053" y="854"/>
      <point x="934" y="854" type="curve" smooth="yes"/>
    </contour>
    <contour>
      <point x="295" y="855"/>
      <point x="173" y="760"/>
      <point x="139" y="635" type="curve" smooth="yes"/>
      <point x="129" y="600"/>
      <point x="134" y="573"/>
      <point x="164" y="573" type="curve" smooth="yes"/>
      <point x="191" y="573"/>
      <point x="209" y="593"/>
      <point x="219" y="632" type="curve" smooth="yes"/>
      <point x="230" y="673" type="line" smooth="yes"/>
      <point x="252" y="754"/>
      <point x="324" y="813"/>
      <point x="440" y="813" type="curve" smooth="yes"/>
      <point x="545" y="813"/>
      <point x="610" y="743"/>
      <point x="556" y="541" type="curve" smooth="yes"/>
      <point x="541" y="485" type="line"/>
      <point x="597" y="520" type="line"/>
      <point x="654" y="747"/>
      <point x="592" y="855"/>
      <point x="461" y="855" type="curve" smooth="yes"/>
    </contour>
    <contour>
      <point x="152" y="357"/>
      <point x="46" y="273"/>
      <point x="22" y="162" type="curve" smooth="yes"/>
      <point x="-4" y="44"/>
      <point x="53" y="-25"/>
      <point x="167" y="-25" type="curve" smooth="yes"/>
      <point x="303" y="-25"/>
      <point x="440" y="57"/>
      <point x="537" y="210" type="curve"/>
      <point x="525" y="245" type="line"/>
      <point x="421" y="97"/>
      <point x="300" y="20"/>
      <point x="183" y="20" type="curve" smooth="yes"/>
      <point x="107" y="20"/>
      <point x="60" y="64"/>
      <point x="78" y="153" type="curve" smooth="yes"/>
      <point x="98" y="252"/>
      <point x="177" y="329"/>
      <point x="538" y="428" type="curve"/>
      <point x="556" y="473" type="line"/>
    </contour>
  </outline>
</glyph>
<glyph name="thorn" format="2">
  <advance width="764"/>
  <unicode hex="00FE"/>
  <outline>
    <contour>
      <point x="390" y="1440" type="curve" smooth="yes"/>
      <point x="322" y="1440"/>
      <point x="261" y="1394"/>
      <point x="242" y="1365" type="curve" smooth="yes"/>
      <point x="230" y="1345"/>
      <point x="237" y="1332"/>
      <point x="245" y="1329" type="curve" smooth="yes"/>
      <point x="259" y="1323"/>
      <point x="275" y="1341"/>
      <point x="288" y="1351" type="curve" smooth="yes"/>
      <point x="319" y="1375"/>
      <point x="342" y="1387"/>
      <point x="364" y="1387" type="curve" smooth="yes"/>
      <point x="410" y="1387"/>
      <point x="422" y="1361"/>
      <point x="377" y="1206" type="curve" smooth="yes"/>
      <point x="-82" y="-373" type="line" smooth="yes"/>
      <point x="-97.19612496877977" y="-425.2759941736455"/>
      <point x="-120.99699177484004" y="-442.9998980262658"/>
      <point x="-180" y="-445" type="curve" smooth="yes"/>
      <point x="-195.9934655436849" y="-445.9995915964803"/>
      <point x="-207.1718799993948" y="-454.0938399891065"/>
      <point x="-208" y="-469" type="curve" smooth="yes"/>
      <point x="-209.09934149568636" y="-482.1920979482364"/>
      <point x="-197" y="-491"/>
      <point x="-184" y="-491" type="curve" smooth="yes"/>
      <point x="69" y="-482" type="line" smooth="yes"/>
      <point x="86" y="-481"/>
      <point x="96" y="-473"/>
      <point x="96" y="-462" type="curve" smooth="yes"/>
      <point x="96.0" y="-450.45"/>
      <point x="87" y="-442"/>
      <point x="65" y="-441" type="curve" smooth="yes"/>
      <point x="8" y="-439" type="line" smooth="yes"/>
      <point x="-38" y="-437"/>
      <point x="-41" y="-416"/>
      <point x="-27" y="-368" type="curve" smooth="yes"/>
      <point x="434" y="1223" type="line" smooth="yes"/>
      <point x="483" y="1391"/>
      <point x="462" y="1440"/>
    </contour>
    <contour>
      <point x="122" y="661" type="curve" smooth="yes"/>
      <point x="206.50045661844106" y="788.2597238229534"/>
      <point x="318.9542850732811" y="840.0042449574811"/>
      <point x="459" y="827" type="curve" smooth="yes"/>
      <point x="590.0168549785209" y="814.998456032502"/>
      <point x="679.5836669039895" y="677.6516596044472"/>
      <point x="640" y="430" type="curve" smooth="yes"/>
      <point x="595.5695897066494" y="151.30015361443714"/>
      <point x="444.5771483445267" y="15.040921127949034"/>
      <point x="290" y="30" type="curve" smooth="yes"/>
      <point x="202.41564888862254" y="38.05373343552896"/>
      <point x="154" y="82"/>
      <point x="117" y="160" type="curve"/>
      <point x="82" y="144" type="line"/>
      <point x="120.7855567975203" y="46.538857278025944"/>
      <point x="177" y="-3"/>
      <point x="284" y="-13" type="curve" smooth="yes"/>
      <point x="476" y="-30"/>
      <point x="654" y="135"/>
      <point x="696" y="422" type="curve" smooth="yes"/>
      <point x="736.5306886294792" y="701.6617515434064"/>
      <point x="638.0134761854079" y="857.9989694681747"/>
      <point x="468" y="871" type="curve" smooth="yes"/>
      <point x="285.96412764641855" y="885.0027594118139"/>
      <point x="174.01769465643383" y="816.9698651684588"/>
      <point x="83" y="683" type="curve" smooth="yes"/>
      <point x="74" y="669"/>
      <point x="69" y="648"/>
      <point x="85" y="642" type="curve" smooth="yes"/>
      <point x="99.30955322885615" y="637.2301489237146"/>
      <point x="111" y="644"/>
    </contour>
  </outline>
</glyph>
<glyph name="Aogonek" format="2">
  <advance width="1039"/>
  <unicode hex="0104"/>
  <outline>
    <contour>
      <point x="906" y="42" type="line"/>
      <point x="742" y="-37"/>
      <point x="615" y="-164"/>
      <point x="613" y="-288" type="curve" smooth="yes"/>
      <point x="611" y="-366"/>
      <point x="659" y="-417"/>
      <point x="740" y="-417" type="curve" smooth="yes"/>
      <point x="818" y="-417"/>
      <point x="885" y="-358"/>
      <point x="898" y="-308" type="curve" smooth="yes"/>
      <point x="902" y="-294"/>
      <point x="895" y="-289"/>
      <point x="888" y="-290" type="curve" smooth="yes"/>
      <point x="880" y="-290"/>
      <point x="875" y="-294"/>
      <point x="866" y="-306" type="curve" smooth="yes"/>
      <point x="836" y="-351"/>
      <point x="787" y="-369"/>
      <point x="745" y="-369" type="curve" smooth="yes"/>
      <point x="701" y="-369"/>
      <point x="668" y="-340"/>
      <point x="669" y="-282" type="curve" smooth="yes"/>
      <point x="671" y="-173"/>
      <point x="779" y="-68"/>
      <point x="915" y="4" type="curve"/>
    </contour>
    <component base="A" xOffset="-42"/>
  </outline>
</glyph>
<glyph name="aogonek" format="2">
  <advance width="801"/>
  <unicode hex="0105"/>
  <outline>
    <contour>
      <point x="692" y="34" type="line"/>
      <point x="520" y="-39"/>
      <point x="412" y="-161"/>
      <point x="411" y="-268" type="curve" smooth="yes"/>
      <point x="410" y="-340"/>
      <point x="456" y="-386"/>
      <point x="533" y="-386" type="curve" smooth="yes"/>
      <point x="610" y="-386"/>
      <point x="675" y="-331"/>
      <point x="688" y="-286" type="curve" smooth="yes"/>
      <point x="691" y="-273"/>
      <point x="684" y="-269"/>
      <point x="678" y="-269" type="curve" smooth="yes"/>
      <point x="669" y="-270"/>
      <point x="665" y="-273"/>
      <point x="655" y="-285" type="curve" smooth="yes"/>
      <point x="626" y="-327"/>
      <point x="581" y="-343"/>
      <point x="541" y="-343" type="curve" smooth="yes"/>
      <point x="498" y="-343"/>
      <point x="468" y="-316"/>
      <point x="469" y="-261" type="curve" smooth="yes"/>
      <point x="470" y="-171"/>
      <point x="557" y="-71"/>
      <point x="701" y="4" type="curve"/>
    </contour>
    <component base="a"/>
  </outline>
</glyph>
<glyph name="dcroat" format="2">
  <advance width="794"/>
  <unicode hex="0111"/>
  <outline>
    <contour>
      <point x="942" y="1408" type="line" smooth="yes"/>
      <point x="948" y="1427"/>
      <point x="943" y="1435"/>
      <point x="932" y="1435" type="curve" smooth="yes"/>
      <point x="912" y="1435"/>
      <point x="893" y="1416"/>
      <point x="885" y="1390" type="curve" smooth="yes"/>
      <point x="657" y="621" type="line" smooth="yes"/>
      <point x="591" y="398"/>
      <point x="361.0" y="29.0"/>
      <point x="188" y="28" type="curve" smooth="yes"/>
      <point x="121" y="28"/>
      <point x="74.9871523704505" y="84.35761852252502"/>
      <point x="77" y="185" type="curve" smooth="yes"/>
      <point x="83" y="503"/>
      <point x="345" y="821"/>
      <point x="581" y="821" type="curve" smooth="yes"/>
      <point x="650" y="821"/>
      <point x="692" y="805"/>
      <point x="730" y="761" type="curve"/>
      <point x="759" y="801" type="line"/>
      <point x="728" y="839"/>
      <point x="680" y="864"/>
      <point x="604" y="864" type="curve" smooth="yes"/>
      <point x="326" y="864"/>
      <point x="27" y="551"/>
      <point x="27" y="165" type="curve" smooth="yes"/>
      <point x="27" y="48"/>
      <point x="83" y="-13"/>
      <point x="175" y="-13" type="curve" smooth="yes"/>
      <point x="328.0" y="-13.0"/>
      <point x="498.0" y="144"/>
      <point x="663" y="526" type="curve"/>
      <point x="625" y="486" type="line"/>
      <point x="526" y="202"/>
      <point x="505" y="131"/>
      <point x="505" y="77" type="curve" smooth="yes"/>
      <point x="505.0" y="16.0"/>
      <point x="530.0" y="-15"/>
      <point x="585" y="-15" type="curve" smooth="yes"/>
      <point x="641" y="-15"/>
      <point x="690" y="15"/>
      <point x="736" y="89" type="curve" smooth="yes"/>
      <point x="745" y="104"/>
      <point x="741.85471594867" y="118.1918244729611"/>
      <point x="735" y="122" type="curve" smooth="yes"/>
      <point x="725.0529337076633" y="127.96823977540201"/>
      <point x="712" y="121"/>
      <point x="702" y="104" type="curve" smooth="yes"/>
      <point x="676.1902047442537" y="60.321884951813935"/>
      <point x="635" y="28"/>
      <point x="600" y="28" type="curve" smooth="yes"/>
      <point x="564.0" y="28"/>
      <point x="547" y="67"/>
      <point x="575" y="163" type="curve" smooth="yes"/>
    </contour>
    <contour>
      <point x="583" y="1110" type="curve" smooth="yes"/>
      <point x="579" y="1099.0"/>
      <point x="584" y="1092"/>
      <point x="598.0" y="1092" type="curve" smooth="yes"/>
      <point x="958" y="1092" type="line" smooth="yes"/>
      <point x="969.0" y="1092.0"/>
      <point x="979" y="1099.0"/>
      <point x="982" y="1111.0" type="curve" smooth="yes"/>
      <point x="986" y="1122"/>
      <point x="981.0" y="1129.0"/>
      <point x="968.0" y="1129" type="curve" smooth="yes"/>
      <point x="608" y="1129" type="line" smooth="yes"/>
      <point x="596" y="1129"/>
      <point x="586.0" y="1122"/>
    </contour>
  </outline>
</glyph>
